<svg viewBox="0 0 510.2 623.6" xmlns="http://www.w3.org/2000/svg" xmlns:xlink="http://www.w3.org/1999/xlink" overflow="hidden">
    <g>
        <path d="M424.6 609.2 428.3 600.5 431.8 591.8 435.3 583.1 438.7 574.2 441.9 565.4 445 556.4 448.1 547.5 451 538.5 453.8 529.5 456.4 520.4 459 511.4 461.5 502.2 463.8 493.1 466 483.9 468.1 474.7 470 465.5 471.9 456.2 473.6 446.9 475.3 437.6 476.8 428.3 478.1 419 479.4 409.6 480.5 400.2 481.6 390.9 482.5 381.5 483.2 372.1 483.9 362.6 484.4 353.2 484.9 343.8 485.2 334.4 485.3 324.9 485.4 315.5 485.3 306 485.2 296.6 484.9 287.1 484.4 277.7 483.9 268.3 483.2 258.9 482.5 249.5 481.6 240.1 480.5 230.7 479.4 221.3 478.1 212 476.8 202.6 475.3 193.3 473.6 184 471.9 174.7 470 165.5 468.1 156.2 466 147 463.8 137.8 461.5 128.7 459 119.6 456.4 110.5 453.8 101.4 451 92.4 448.1 83.4 445 74.5 441.9 65.6 438.7 56.7 435.3 47.9 431.8 39.1 428.3 30.4 424.6 21.7" stroke="#000000" stroke-linecap="round" stroke-linejoin="round" stroke-miterlimit="10" fill="none" />
        <path d="M18.1 433.4 20.4 427.9 22.6 422.4 24.7 416.9 26.6 411.3 28.5 405.7 30.2 400 31.9 394.4 33.4 388.6 34.8 382.9 36.1 377.1 37.3 371.3 38.3 365.5 39.2 359.6 40 353.8 40.8 347.9 41.4 342 41.8 336.2 42.2 330.2 42.4 324.3 42.5 318.4 42.5 312.5 42.4 306.6 42.2 300.7 41.8 294.8 41.4 288.9 40.8 283 40 277.1 39.2 271.3 38.3 265.4 37.3 259.6 36.1 253.8 34.8 248 33.4 242.3 31.9 236.6 30.2 230.9 28.5 225.2 26.6 219.6 24.7 214.1 22.6 208.5 20.4 203 18.1 197.6" stroke="#000000" stroke-linecap="round" stroke-linejoin="round" stroke-miterlimit="10" fill="none" />
        <line x1="112" y1="315.5" x2="135.6" y2="315.5" stroke="#000000" stroke-linecap="round" stroke-linejoin="round" stroke-miterlimit="10" fill="none" />
        <line x1="230.5" y1="315.5" x2="270.4" y2="315.5" stroke="#000000" stroke-linecap="round" stroke-linejoin="round" stroke-miterlimit="10" fill="none" />
        <line x1="348.9" y1="315.5" x2="416" y2="315.5" stroke="#000000" stroke-linecap="round" stroke-linejoin="round" stroke-miterlimit="10" fill="none" />
        <line x1="18.1" y1="197.6" x2="424.6" y2="21.7" stroke="#000000" stroke-linecap="round" stroke-linejoin="round" stroke-miterlimit="10" fill="none" />
        <line x1="18.1" y1="433.4" x2="424.6" y2="609.2" stroke="#000000" stroke-linecap="round" stroke-linejoin="round" stroke-miterlimit="10" fill="none" />
        <line x1="100.1" y1="222.7" x2="122.8" y2="216.8" stroke="#000000" stroke-linecap="round" stroke-linejoin="round" stroke-miterlimit="10" fill="none" />
        <line x1="214.7" y1="192.7" x2="253.3" y2="182.6" stroke="#000000" stroke-linecap="round" stroke-linejoin="round" stroke-miterlimit="10" fill="none" />
        <line x1="329.3" y1="162.7" x2="394.2" y2="145.7" stroke="#000000" stroke-linecap="round" stroke-linejoin="round" stroke-miterlimit="10" fill="none" />
        <line x1="100.1" y1="408.2" x2="122.8" y2="414.2" stroke="#000000" stroke-linecap="round" stroke-linejoin="round" stroke-miterlimit="10" fill="none" />
        <line x1="214.7" y1="438.2" x2="253.3" y2="448.3" stroke="#000000" stroke-linecap="round" stroke-linejoin="round" stroke-miterlimit="10" fill="none" />
        <line x1="329.3" y1="468.2" x2="394.2" y2="485.2" stroke="#000000" stroke-linecap="round" stroke-linejoin="round" stroke-miterlimit="10" fill="none" />
        <path d="M114.7 217.5 115.4 220.1 122.8 216.8Z" />
        <path d="M114.7 217.5 115.4 220.1 122.8 216.8 114.7 217.5" stroke="#000000" stroke-linecap="round" stroke-miterlimit="10" fill="none" />
        <path d="M245.2 183.4 245.8 186 253.3 182.6Z" />
        <path d="M245.2 183.4 245.8 186 253.3 182.6 245.2 183.4" stroke="#000000" stroke-linecap="round" stroke-miterlimit="10" fill="none" />
        <path d="M386.1 146.5 386.7 149.1 394.2 145.7Z" />
        <path d="M386.1 146.5 386.7 149.1 394.2 145.7 386.1 146.5" stroke="#000000" stroke-linecap="round" stroke-miterlimit="10" fill="none" />
        <path d="M127.5 314.1 127.5 316.8 135.6 315.5Z" />
        <path d="M127.5 314.1 127.5 316.8 135.6 315.5 127.5 314.1" stroke="#000000" stroke-linecap="round" stroke-miterlimit="10" fill="none" />
        <path d="M262.3 314.1 262.3 316.8 270.4 315.5Z" />
        <path d="M262.3 314.1 262.3 316.8 270.4 315.5 262.3 314.1" stroke="#000000" stroke-linecap="round" stroke-miterlimit="10" fill="none" />
        <path d="M408 314.1 408 316.8 416 315.5Z" />
        <path d="M408 314.1 408 316.8 416 315.5 408 314.1" stroke="#000000" stroke-linecap="round" stroke-miterlimit="10" fill="none" />
        <path d="M115.4 410.8 114.7 413.4 122.8 414.2Z" />
        <path d="M115.4 410.8 114.7 413.4 122.8 414.2 115.4 410.8" stroke="#000000" stroke-linecap="round" stroke-miterlimit="10" fill="none" />
        <path d="M245.8 445 245.2 447.6 253.3 448.3Z" />
        <path d="M245.8 445 245.2 447.6 253.3 448.3 245.8 445" stroke="#000000" stroke-linecap="round" stroke-miterlimit="10" fill="none" />
        <path d="M386.7 481.8 386.1 484.4 394.2 485.2Z" />
        <path d="M386.7 481.8 386.1 484.4 394.2 485.2 386.7 481.8" stroke="#000000" stroke-linecap="round" stroke-miterlimit="10" fill="none" />
        <line x1="230.5" y1="315.5" x2="190.6" y2="315.5" stroke="#000000" stroke-linecap="round" stroke-linejoin="round" stroke-miterlimit="10" fill="none" />
        <path d="M198.6 314.1 198.6 316.8 190.6 315.5Z" />
        <path d="M198.6 314.1 198.6 316.8 190.6 315.5 198.6 314.1" stroke="#000000" stroke-linecap="round" stroke-miterlimit="10" fill="none" />
        <line x1="329.3" y1="162.7" x2="289.4" y2="162.7" stroke="#000000" stroke-linecap="round" stroke-linejoin="round" stroke-miterlimit="10" fill="none" />
        <path d="M297.4 161.4 297.4 164.1 289.4 162.7Z" />
        <path d="M297.4 161.4 297.4 164.1 289.4 162.7 297.4 161.4" stroke="#000000" stroke-linecap="round" stroke-miterlimit="10" fill="none" />
        <line x1="112" y1="315.5" x2="72.1" y2="315.5" stroke="#000000" stroke-linecap="round" stroke-linejoin="round" stroke-miterlimit="10" fill="none" />
        <path d="M80.2 314.1 80.2 316.8 72.1 315.5Z" />
        <path d="M80.2 314.1 80.2 316.8 72.1 315.5 80.2 314.1" stroke="#000000" stroke-linecap="round" stroke-miterlimit="10" fill="none" />
        <line x1="100.1" y1="222.7" x2="60.2" y2="222.7" stroke="#000000" stroke-linecap="round" stroke-linejoin="round" stroke-miterlimit="10" fill="none" />
        <path d="M68.3 221.4 68.3 224 60.2 222.7Z" />
        <path d="M68.3 221.4 68.3 224 60.2 222.7 68.3 221.4" stroke="#000000" stroke-linecap="round" stroke-miterlimit="10" fill="none" />
        <line x1="214.7" y1="192.7" x2="174.8" y2="192.7" stroke="#000000" stroke-linecap="round" stroke-linejoin="round" stroke-miterlimit="10" fill="none" />
        <path d="M182.8 191.4 182.8 194.1 174.8 192.7Z" />
        <path d="M182.8 191.4 182.8 194.1 174.8 192.7 182.8 191.4" stroke="#000000" stroke-linecap="round" stroke-miterlimit="10" fill="none" />
        <line x1="348.9" y1="315.5" x2="309" y2="315.5" stroke="#000000" stroke-linecap="round" stroke-linejoin="round" stroke-miterlimit="10" fill="none" />
        <path d="M317.1 314.1 317.1 316.8 309 315.5Z" />
        <path d="M317.1 314.1 317.1 316.8 309 315.5 317.1 314.1" stroke="#000000" stroke-linecap="round" stroke-miterlimit="10" fill="none" />
        <line x1="329.3" y1="468.2" x2="289.4" y2="468.2" stroke="#000000" stroke-linecap="round" stroke-linejoin="round" stroke-miterlimit="10" fill="none" />
        <path d="M297.4 466.8 297.4 469.5 289.4 468.2Z" />
        <path d="M297.4 466.8 297.4 469.5 289.4 468.2 297.4 466.8" stroke="#000000" stroke-linecap="round" stroke-miterlimit="10" fill="none" />
        <line x1="214.7" y1="438.2" x2="174.8" y2="438.2" stroke="#000000" stroke-linecap="round" stroke-linejoin="round" stroke-miterlimit="10" fill="none" />
        <path d="M182.8 436.9 182.8 439.5 174.8 438.2Z" />
        <path d="M182.8 436.9 182.8 439.5 174.8 438.2 182.8 436.9" stroke="#000000" stroke-linecap="round" stroke-miterlimit="10" fill="none" />
        <line x1="100.1" y1="408.2" x2="60.2" y2="408.2" stroke="#000000" stroke-linecap="round" stroke-linejoin="round" stroke-miterlimit="10" fill="none" />
        <path d="M68.3 406.9 68.3 409.6 60.2 408.2Z" />
        <path d="M68.3 406.9 68.3 409.6 60.2 408.2 68.3 406.9" stroke="#000000" stroke-linecap="round" stroke-miterlimit="10" fill="none" />
    </g>
</svg>