<svg viewBox="0 0 510.2 623.6" xmlns="http://www.w3.org/2000/svg" xmlns:xlink="http://www.w3.org/1999/xlink" overflow="hidden">
    <g>
        <path d="M424.4 592.3 428.1 583.7 431.6 575.1 435 566.5 438.3 557.8 441.5 549 444.6 540.3 447.5 531.5 450.4 522.6 453.1 513.7 455.7 504.8 458.2 495.8 460.6 486.8 462.9 477.8 465 468.8 467.1 459.7 469 450.6 470.8 441.5 472.4 432.4 474 423.2 475.4 414 476.8 404.8 478 395.6 479 386.3 480 377.1 480.9 367.8 481.6 358.6 482.2 349.3 482.7 340 483 330.7 483.3 321.4 483.4 312.1 483.4 302.8 483.3 293.5 483 284.3 482.7 275 482.2 265.7 481.6 256.4 480.9 247.1 480 237.9 479 228.6 478 219.4 476.8 210.2 475.4 201 474 191.8 472.4 182.6 470.8 173.5 469 164.3 467.1 155.3 465 146.2 462.9 137.1 460.6 128.1 458.2 119.1 455.7 110.2 453.1 101.3 450.4 92.4 447.5 83.5 444.6 74.7 441.5 65.9 438.3 57.2 435 48.5 431.6 39.8 428.1 31.3 424.4 22.7" stroke="#000000" stroke-linecap="round" stroke-linejoin="round" stroke-miterlimit="10" fill="none" />
        <path d="M30.4 421.8 32.7 416.3 34.9 410.9 36.9 405.4 38.9 399.8 40.7 394.3 42.4 388.6 44 383 45.5 377.3 46.9 371.6 48.1 365.8 49.3 360.1 50.3 354.3 51.2 348.5 51.9 342.7 52.6 336.8 53.1 331 53.5 325.1 53.8 319.2 54 313.4 54.1 307.5 54 301.6 53.8 295.7 53.5 289.9 53.1 284 52.6 278.2 51.9 272.3 51.2 266.5 50.3 260.7 49.3 254.9 48.1 249.1 46.9 243.4 45.5 237.7 44 232 42.4 226.3 40.7 220.7 38.9 215.1 36.9 209.6 34.9 204.1 32.7 198.6 30.4 193.2" stroke="#000000" stroke-linecap="round" stroke-linejoin="round" stroke-miterlimit="10" fill="none" />
        <line x1="121.5" y1="307.5" x2="144.3" y2="307.5" stroke="#000000" stroke-linecap="round" stroke-linejoin="round" stroke-miterlimit="10" fill="none" />
        <line x1="236.3" y1="307.5" x2="274.9" y2="307.5" stroke="#000000" stroke-linecap="round" stroke-linejoin="round" stroke-miterlimit="10" fill="none" />
        <line x1="351.1" y1="307.5" x2="416.2" y2="307.5" stroke="#000000" stroke-linecap="round" stroke-linejoin="round" stroke-miterlimit="10" fill="none" />
        <line x1="30.4" y1="193.2" x2="424.4" y2="22.7" stroke="#000000" stroke-linecap="round" stroke-linejoin="round" stroke-miterlimit="10" fill="none" />
        <line x1="30.4" y1="421.8" x2="424.4" y2="592.3" stroke="#000000" stroke-linecap="round" stroke-linejoin="round" stroke-miterlimit="10" fill="none" />
        <line x1="109.9" y1="217.6" x2="132" y2="211.8" stroke="#000000" stroke-linecap="round" stroke-linejoin="round" stroke-miterlimit="10" fill="none" />
        <line x1="221" y1="188.5" x2="258.4" y2="178.7" stroke="#000000" stroke-linecap="round" stroke-linejoin="round" stroke-miterlimit="10" fill="none" />
        <line x1="332" y1="159.4" x2="395" y2="143" stroke="#000000" stroke-linecap="round" stroke-linejoin="round" stroke-miterlimit="10" fill="none" />
        <line x1="109.9" y1="397.4" x2="132" y2="403.2" stroke="#000000" stroke-linecap="round" stroke-linejoin="round" stroke-miterlimit="10" fill="none" />
        <line x1="221" y1="426.5" x2="258.4" y2="436.3" stroke="#000000" stroke-linecap="round" stroke-linejoin="round" stroke-miterlimit="10" fill="none" />
        <line x1="332" y1="455.5" x2="395" y2="472" stroke="#000000" stroke-linecap="round" stroke-linejoin="round" stroke-miterlimit="10" fill="none" />
        <path d="M124.1 212.5 124.7 215 132 211.8Z" />
        <path d="M124.1 212.5 124.7 215 132 211.8 124.1 212.5" stroke="#000000" stroke-linecap="round" stroke-miterlimit="10" fill="none" />
        <path d="M250.5 179.4 251.2 182 258.4 178.7Z" />
        <path d="M250.5 179.4 251.2 182 258.4 178.7 250.5 179.4" stroke="#000000" stroke-linecap="round" stroke-miterlimit="10" fill="none" />
        <path d="M387.1 143.7 387.7 146.2 395 143Z" />
        <path d="M387.1 143.7 387.7 146.2 395 143 387.1 143.7" stroke="#000000" stroke-linecap="round" stroke-miterlimit="10" fill="none" />
        <path d="M136.5 306.2 136.5 308.8 144.3 307.5Z" />
        <path d="M136.5 306.2 136.5 308.8 144.3 307.5 136.5 306.2" stroke="#000000" stroke-linecap="round" stroke-miterlimit="10" fill="none" />
        <path d="M267.1 306.2 267.1 308.8 274.9 307.5Z" />
        <path d="M267.1 306.2 267.1 308.8 274.9 307.5 267.1 306.2" stroke="#000000" stroke-linecap="round" stroke-miterlimit="10" fill="none" />
        <path d="M408.3 306.2 408.3 308.8 416.2 307.5Z" />
        <path d="M408.3 306.2 408.3 308.8 416.2 307.5 408.3 306.2" stroke="#000000" stroke-linecap="round" stroke-miterlimit="10" fill="none" />
        <path d="M124.7 399.9 124.1 402.5 132 403.2Z" />
        <path d="M124.7 399.9 124.1 402.5 132 403.2 124.7 399.9" stroke="#000000" stroke-linecap="round" stroke-miterlimit="10" fill="none" />
        <path d="M251.2 433 250.5 435.5 258.4 436.3Z" />
        <path d="M251.2 433 250.5 435.5 258.4 436.3 251.2 433" stroke="#000000" stroke-linecap="round" stroke-miterlimit="10" fill="none" />
        <path d="M387.7 468.8 387.1 471.3 395 472Z" />
        <path d="M387.7 468.8 387.1 471.3 395 472 387.7 468.8" stroke="#000000" stroke-linecap="round" stroke-miterlimit="10" fill="none" />
    </g>
</svg>