<svg viewBox="0 0 510.2 623.6" xmlns="http://www.w3.org/2000/svg" xmlns:xlink="http://www.w3.org/1999/xlink" overflow="hidden">
    <g>
        <path d="M433.4 605 437.1 596.2 440.7 587.4 444.2 578.6 447.6 569.7 450.8 560.7 454 551.8 457 542.7 460 533.7 462.8 524.6 465.5 515.5 468.1 506.3 470.5 497.1 472.9 487.9 475.1 478.7 477.2 469.4 479.2 460.1 481 450.8 482.8 441.4 484.4 432 485.9 422.6 487.3 413.2 488.6 403.8 489.7 394.4 490.8 384.9 491.7 375.4 492.5 365.9 493.2 356.4 493.7 347 494.1 337.4 494.4 327.9 494.6 318.4 494.7 308.9 494.6 299.4 494.4 289.9 494.1 280.4 493.7 270.9 493.2 261.4 492.5 251.9 491.7 242.4 490.8 232.9 489.7 223.5 488.6 214 487.3 204.6 485.9 195.2 484.4 185.8 482.8 176.4 481 167.1 479.2 157.7 477.2 148.4 475.1 139.2 472.9 129.9 470.5 120.7 468.1 111.5 465.5 102.3 462.8 93.2 460 84.1 457 75.1 454 66.1 450.8 57.1 447.6 48.2 444.2 39.3 440.7 30.4 437.1 21.6 433.4 12.9" stroke="#000000" stroke-linecap="round" stroke-linejoin="round" stroke-miterlimit="10" fill="none" />
        <path d="M433.4 605 23.8 427.7 26.1 422.2 28.3 416.7 30.4 411.1 32.4 405.5 34.2 399.8 36 394.1 37.6 388.4 39.1 382.7 40.6 376.9 41.8 371 43 365.2 44.1 359.3 45 353.4 45.9 347.6 46.6 341.6 47.2 335.7 47.6 329.8 48 323.8 48.2 317.9 48.4 311.9 48.4 305.9 48.2 300 48 294 47.6 288.1 47.2 282.1 46.6 276.2 45.9 270.3 45 264.4 44.1 258.5 43 252.6 41.8 246.8 40.6 241 39.1 235.2 37.6 229.4 36 223.7 34.2 218 32.4 212.3 30.4 206.7 28.3 201.1 26.1 195.6 23.8 190.1 433.4 12.9" stroke="#000000" stroke-linecap="round" stroke-linejoin="round" stroke-miterlimit="10" fill="none" />
        <line x1="106.4" y1="215.4" x2="89.1" y2="209.4" stroke="#000000" stroke-linecap="round" stroke-linejoin="round" stroke-miterlimit="10" fill="none" />
        <line x1="221.8" y1="185.2" x2="220.5" y2="175.1" stroke="#000000" stroke-linecap="round" stroke-linejoin="round" stroke-miterlimit="10" fill="none" />
        <line x1="337.3" y1="155" x2="362.5" y2="137.9" stroke="#000000" stroke-linecap="round" stroke-linejoin="round" stroke-miterlimit="10" fill="none" />
        <line x1="118.4" y1="308.9" x2="101.9" y2="308.9" stroke="#000000" stroke-linecap="round" stroke-linejoin="round" stroke-miterlimit="10" fill="none" />
        <path d="M260.4 308.9C260.4 307.5 259.3 306.4 257.9 306.4 256.5 306.4 255.4 307.5 255.4 308.9 255.4 310.3 256.5 311.4 257.9 311.4 259.3 311.4 260.4 310.3 260.4 308.9" stroke="#000000" stroke-linecap="round" stroke-linejoin="round" stroke-miterlimit="10" fill="none" />
        <line x1="357.1" y1="308.9" x2="384.5" y2="308.9" stroke="#000000" stroke-linecap="round" stroke-linejoin="round" stroke-miterlimit="10" fill="none" />
        <line x1="106.4" y1="402.4" x2="89.1" y2="408.4" stroke="#000000" stroke-linecap="round" stroke-linejoin="round" stroke-miterlimit="10" fill="none" />
        <line x1="221.8" y1="432.6" x2="220.5" y2="442.8" stroke="#000000" stroke-linecap="round" stroke-linejoin="round" stroke-miterlimit="10" fill="none" />
        <line x1="337.3" y1="462.8" x2="362.5" y2="479.9" stroke="#000000" stroke-linecap="round" stroke-linejoin="round" stroke-miterlimit="10" fill="none" />
        <path d="M97.2 210.8 96.3 213.4 89.1 209.4Z" />
        <path d="M97.2 210.8 96.3 213.4 89.1 209.4 97.2 210.8" stroke="#000000" stroke-linecap="round" stroke-miterlimit="10" fill="none" />
        <path d="M222.9 182.9 220.2 183.3 220.5 175.1Z" />
        <path d="M222.9 182.9 220.2 183.3 220.5 175.1 222.9 182.9" stroke="#000000" stroke-linecap="round" stroke-miterlimit="10" fill="none" />
        <path d="M355 141.3 356.6 143.6 362.5 137.9Z" />
        <path d="M355 141.3 356.6 143.6 362.5 137.9 355 141.3" stroke="#000000" stroke-linecap="round" stroke-miterlimit="10" fill="none" />
        <path d="M97.2 407 96.3 404.4 89.1 408.4Z" />
        <path d="M97.2 407 96.3 404.4 89.1 408.4 97.2 407" stroke="#000000" stroke-linecap="round" stroke-miterlimit="10" fill="none" />
        <path d="M222.9 434.9 220.2 434.6 220.5 442.8Z" />
        <path d="M222.9 434.9 220.2 434.6 220.5 442.8 222.9 434.9" stroke="#000000" stroke-linecap="round" stroke-miterlimit="10" fill="none" />
        <path d="M355 476.5 356.6 474.2 362.5 479.9Z" />
        <path d="M355 476.5 356.6 474.2 362.5 479.9 355 476.5" stroke="#000000" stroke-linecap="round" stroke-miterlimit="10" fill="none" />
        <path d="M110 307.6 110 310.3 101.9 308.9Z" />
        <path d="M110 307.6 110 310.3 101.9 308.9 110 307.6" stroke="#000000" stroke-linecap="round" stroke-miterlimit="10" fill="none" />
        <path d="M376.4 307.6 376.4 310.3 384.5 308.9Z" />
        <path d="M376.4 307.6 376.4 310.3 384.5 308.9 376.4 307.6" stroke="#000000" stroke-linecap="round" stroke-miterlimit="10" fill="none" />
    </g>
</svg>