<?xml version="1.0" encoding="utf-8" standalone="no"?>
<!DOCTYPE svg PUBLIC "-//W3C//DTD SVG 1.1//EN" "http://www.w3.org/Graphics/SVG/1.1/DTD/svg11.dtd">
<svg xmlns:xlink="http://www.w3.org/1999/xlink" width="876pt" height="558pt" viewBox="0 0 876 558" xmlns="http://www.w3.org/2000/svg" version="1.1">
    <metadata>
        <rdf:RDF xmlns:dc="http://purl.org/dc/elements/1.1/" xmlns:cc="http://creativecommons.org/ns#" xmlns:rdf="http://www.w3.org/1999/02/22-rdf-syntax-ns#">
            <cc:Work>
                <dc:type rdf:resource="http://purl.org/dc/dcmitype/StillImage" />
                <dc:date>2023-05-17T09:22:44.210180</dc:date>
                <dc:format>image/svg+xml</dc:format>
                <dc:creator>
                    <cc:Agent>
                        <dc:title>Matplotlib v3.5.2, https://matplotlib.org/</dc:title>
                    </cc:Agent>
                </dc:creator>
            </cc:Work>
        </rdf:RDF>
    </metadata>
    <defs>
        <style type="text/css">
            * {
                stroke-linejoin: round;
                stroke-linecap: butt
            }
        </style>
    </defs>
    <g id="figure_1">
        <g id="patch_1">
            <path d="M 0 558 
L 876 558 
L 876 0 
L 0 0 
z
" style="fill: #ffffff" />
        </g>
        <g id="axes_1">
            <g id="patch_2">
                <path d="M 496.44 279 
C 496.44 267.837065 495.580376 256.690685 493.868754 245.659753 
C 492.157132 234.62882 489.59859 223.746054 486.215827 213.108008 
L 279 279 
L 496.44 279 
z
" style="fill: #ababab; stroke: #000000; stroke-width: 0.5; stroke-linejoin: miter" />
            </g>
            <g id="patch_3">
                <path d="M 486.215827 213.108008 
C 477.144799 184.581619 462.280097 158.233292 442.555092 135.717462 
C 422.830086 113.201633 398.666453 94.999641 371.58145 82.254406 
C 344.496446 69.509171 315.069091 62.493158 285.147154 61.646909 
C 255.225218 60.800661 225.448365 66.142267 197.686314 77.336324 
L 279 279 
L 486.215827 213.108008 
z
" style="fill: #d6d6d6; stroke: #000000; stroke-width: 0.5; stroke-linejoin: miter" />
            </g>
            <g id="patch_4">
                <path d="M 197.686314 77.336324 
C 161.089821 92.092555 129.191213 116.536064 105.424666 148.035284 
C 81.658118 179.534504 66.908274 216.916966 62.763089 256.158106 
C 58.617905 295.399246 65.231672 335.038424 81.892358 370.80812 
C 98.553044 406.577816 124.640503 437.146605 157.34618 459.223477 
C 190.051858 481.300349 228.158379 494.063555 267.563227 496.13902 
C 306.968076 498.214484 346.204518 489.524953 381.048393 471.005935 
C 415.892267 452.486917 445.04661 424.827729 465.372689 391.006136 
C 485.698767 357.184543 496.440002 318.459458 496.44 278.99999 
L 279 279 
L 197.686314 77.336324 
z
" style="fill: #878787; stroke: #000000; stroke-width: 0.5; stroke-linejoin: miter" />
            </g>
            <g id="matplotlib.axis_1" />
            <g id="matplotlib.axis_2" />
            <g id="legend_1">
                <g id="patch_5">
                    <path d="M 571.8 158.817187 
L 862.8 158.817187 
Q 868.8 158.817187 868.8 152.817187 
L 868.8 28.2 
Q 868.8 22.2 862.8 22.2 
L 571.8 22.2 
Q 565.8 22.2 565.8 28.2 
L 565.8 152.817187 
Q 565.8 158.817187 571.8 158.817187 
z
" style="fill: #ffffff; opacity: 0.8; stroke: #cccccc; stroke-linejoin: miter" />
                </g>
                <g id="patch_6">
                    <path d="M 577.8 57.754687 
L 637.8 57.754687 
L 637.8 36.754687 
L 577.8 36.754687 
z
" style="fill: #ababab; stroke: #000000; stroke-width: 0.5; stroke-linejoin: miter" />
                </g>
                <g id="text_1">
                    <!-- 正常物质 4.9% -->
                    <g transform="translate(661.8 57.754687)scale(0.3 -0.3)">
                        <defs>
                            <path id="SimSun-6b63" d="M 1600 2725 
Q 1600 2900 1575 3325 
L 2200 3025 
L 1950 2850 
L 1950 25 
L 3200 25 
L 3200 4500 
L 1675 4500 
Q 1350 4500 1075 4425 
L 850 4650 
L 5075 4650 
L 5450 5025 
L 5975 4500 
L 3550 4500 
L 3550 2525 
L 4775 2525 
L 5125 2875 
L 5625 2375 
L 3550 2375 
L 3550 25 
L 5075 25 
L 5475 425 
L 6025 -125 
L 1200 -125 
Q 875 -125 600 -200 
L 375 25 
L 1600 25 
L 1600 2725 
z
" transform="scale(0.015625)" />
                            <path id="SimSun-5e38" d="M 1525 5075 
Q 2125 4800 2250 4650 
Q 2375 4500 2375 4375 
Q 2375 4325 2325 4200 
Q 2275 4075 2175 4050 
Q 2075 4025 1950 4375 
Q 1800 4700 1475 5000 
L 1525 5075 
z
M 1050 4225 
L 1050 3950 
L 3025 3950 
Q 3025 4900 3000 5225 
L 3525 5000 
L 3350 4850 
L 3350 3950 
L 5350 3950 
L 5600 4225 
L 6050 3775 
Q 5700 3750 5200 3100 
L 5125 3150 
L 5400 3800 
L 1050 3800 
Q 1075 3350 950 3175 
Q 825 3000 662 2987 
Q 500 2975 450 3112 
Q 400 3250 625 3400 
Q 825 3550 950 4225 
L 1050 4225 
z
M 4500 5125 
L 4925 4775 
Q 4725 4725 4475 4500 
Q 4225 4250 3900 3975 
L 3825 4050 
Q 4075 4350 4225 4600 
Q 4375 4850 4500 5125 
z
M 2225 3050 
L 2225 2350 
L 4175 2350 
L 4175 3050 
L 2225 3050 
z
M 4000 400 
Q 4475 300 4637 287 
Q 4800 275 4800 450 
L 4800 1425 
L 3350 1425 
Q 3350 0 3375 -500 
L 3000 -625 
Q 3025 -25 3025 1425 
L 1625 1425 
L 1625 -75 
L 1250 -200 
Q 1275 300 1275 787 
Q 1275 1275 1250 1750 
L 1650 1575 
L 3025 1575 
L 3025 2200 
L 2225 2200 
L 2225 2000 
L 1875 1900 
Q 1900 2275 1900 2650 
Q 1900 3025 1875 3400 
L 2225 3200 
L 4150 3200 
L 4375 3425 
L 4675 3125 
L 4500 2975 
Q 4500 2325 4525 2100 
L 4175 1975 
L 4175 2200 
L 3350 2200 
L 3350 1575 
L 4750 1575 
L 4975 1800 
L 5325 1450 
L 5125 1300 
L 5125 325 
Q 5125 -50 4625 -250 
Q 4525 100 3975 300 
L 4000 400 
z
" transform="scale(0.015625)" />
                            <path id="SimSun-7269" d="M 3425 5225 
L 3975 4925 
L 3775 4800 
Q 3600 4400 3400 3950 
L 5500 3950 
L 5675 4200 
L 6075 3875 
L 5900 3725 
Q 5775 650 5575 137 
Q 5375 -375 4650 -525 
Q 4700 -150 3975 100 
L 4000 200 
Q 4650 50 4875 50 
Q 5100 50 5250 387 
Q 5400 725 5550 3800 
L 5075 3800 
Q 4825 2050 4150 1112 
Q 3475 175 2450 -375 
L 2400 -300 
Q 3375 400 3925 1325 
Q 4475 2250 4700 3800 
L 4175 3800 
Q 3750 2075 2400 975 
L 2350 1050 
Q 3525 2375 3800 3800 
L 3350 3800 
Q 2875 2975 2475 2550 
L 2400 2600 
Q 2850 3325 3112 4062 
Q 3375 4800 3425 5225 
z
M 1925 2050 
L 2700 2375 
L 2725 2275 
L 1925 1825 
Q 1925 200 1950 -425 
L 1575 -600 
Q 1600 -75 1600 1675 
Q 725 1275 625 1050 
L 350 1475 
Q 775 1575 1600 1925 
L 1600 3425 
L 950 3425 
Q 675 2825 325 2325 
L 250 2375 
Q 525 2950 687 3625 
Q 850 4300 850 4650 
L 1425 4375 
L 1200 4225 
Q 1100 3950 975 3575 
L 1600 3575 
Q 1600 4775 1575 5200 
L 2150 4950 
L 1925 4775 
L 1925 3575 
L 2100 3575 
L 2375 3875 
L 2775 3425 
L 1925 3425 
L 1925 2050 
z
" transform="scale(0.015625)" />
                            <path id="SimSun-8d28" d="M 275 -425 
Q 1175 1025 1125 3000 
Q 1125 4250 1100 4750 
L 1450 4525 
Q 2950 4650 3825 4837 
Q 4700 5025 4975 5200 
L 5400 4775 
Q 4600 4700 3750 4600 
Q 2875 4500 1450 4400 
L 1450 2750 
Q 1525 850 325 -475 
L 275 -425 
z
M 3400 3650 
Q 3400 4050 3375 4425 
L 3900 4200 
L 3725 4050 
L 3725 3650 
L 4925 3650 
L 5250 3950 
L 5675 3500 
L 3725 3500 
L 3725 2800 
L 4750 2800 
L 4925 3050 
L 5325 2750 
L 5125 2575 
Q 5125 1300 5150 850 
L 4800 675 
L 4800 2650 
L 2400 2650 
L 2400 725 
L 2050 575 
Q 2075 1325 2075 1912 
Q 2075 2500 2050 3000 
L 2400 2800 
L 3400 2800 
L 3400 3500 
L 2350 3500 
Q 2075 3500 1800 3425 
L 1575 3650 
L 3400 3650 
z
M 1225 -550 
Q 1800 -350 2337 -12 
Q 2875 325 3100 762 
Q 3325 1200 3350 1637 
Q 3375 2075 3375 2400 
L 3925 2125 
L 3725 1950 
Q 3675 800 3112 250 
Q 2550 -300 1250 -625 
L 1225 -550 
z
M 3625 725 
Q 4750 425 5125 262 
Q 5500 100 5525 -37 
Q 5550 -175 5550 -250 
Q 5550 -375 5512 -462 
Q 5475 -550 5450 -550 
Q 5375 -550 5250 -425 
Q 5050 -200 4700 37 
Q 4350 275 3600 625 
L 3625 725 
z
" transform="scale(0.015625)" />
                            <path id="SimSun-20" d="M 0 0 
Q 0 0 0 0 
z
" transform="scale(0.015625)" />
                            <path id="SimSun-34" d="M 2300 575 
Q 2300 400 2400 325 
Q 2500 250 2675 250 
L 2900 250 
L 2900 100 
L 1250 100 
L 1250 250 
L 1525 250 
Q 1725 250 1812 325 
Q 1900 400 1900 575 
L 1900 1400 
L 225 1400 
L 225 1525 
L 2050 4425 
L 2300 4425 
L 2300 1550 
L 2975 1550 
L 2975 1400 
L 2300 1400 
L 2300 575 
z
M 1875 3800 
L 450 1550 
L 1900 1550 
L 1900 3800 
L 1875 3800 
z
" transform="scale(0.015625)" />
                            <path id="SimSun-2e" d="M 800 25 
Q 650 25 537 125 
Q 425 225 425 400 
Q 425 575 537 675 
Q 650 775 800 775 
Q 950 775 1062 662 
Q 1175 550 1175 400 
Q 1175 225 1062 125 
Q 950 25 800 25 
z
" transform="scale(0.015625)" />
                            <path id="SimSun-39" d="M 700 3050 
Q 700 2500 912 2212 
Q 1125 1925 1450 1925 
Q 1825 1925 2100 2275 
Q 2375 2625 2375 2925 
Q 2375 3525 2175 3887 
Q 1975 4250 1525 4250 
Q 1100 4250 900 3912 
Q 700 3575 700 3050 
z
M 1375 1700 
Q 875 1700 575 2012 
Q 275 2325 275 3025 
Q 275 3625 600 4025 
Q 925 4425 1525 4425 
Q 2150 4425 2500 3925 
Q 2850 3425 2850 2475 
Q 2850 1425 2437 737 
Q 2025 50 1300 50 
Q 975 50 737 200 
Q 500 350 500 600 
Q 500 700 562 800 
Q 625 900 775 900 
Q 925 900 975 787 
Q 1025 675 1025 525 
Q 1025 425 1050 362 
Q 1075 300 1100 275 
Q 1125 250 1187 237 
Q 1250 225 1325 225 
Q 1775 225 2050 725 
Q 2325 1225 2375 2400 
Q 2250 2100 2000 1900 
Q 1750 1700 1375 1700 
z
" transform="scale(0.015625)" />
                            <path id="SimSun-25" d="M 750 4250 
Q 600 4250 500 4050 
Q 400 3850 400 3300 
Q 400 2675 512 2487 
Q 625 2300 750 2300 
Q 925 2300 1012 2525 
Q 1100 2750 1100 3300 
Q 1100 3750 1037 4000 
Q 975 4250 750 4250 
z
M 1425 3275 
Q 1425 2825 1275 2487 
Q 1125 2150 750 2150 
Q 450 2150 262 2450 
Q 75 2750 75 3275 
Q 75 3825 275 4125 
Q 475 4425 750 4425 
Q 1050 4425 1237 4112 
Q 1425 3800 1425 3275 
z
M 2725 1200 
Q 2725 1625 2650 1900 
Q 2575 2175 2375 2175 
Q 2225 2175 2125 1937 
Q 2025 1700 2025 1200 
Q 2025 575 2137 400 
Q 2250 225 2375 225 
Q 2550 225 2637 437 
Q 2725 650 2725 1200 
z
M 3050 1175 
Q 3050 675 2875 362 
Q 2700 50 2375 50 
Q 2100 50 1900 362 
Q 1700 675 1700 1175 
Q 1700 1725 1900 2037 
Q 2100 2350 2375 2350 
Q 2675 2350 2862 2025 
Q 3050 1700 3050 1175 
z
M 2525 4350 
L 725 50 
L 575 125 
L 2350 4425 
L 2525 4350 
z
" transform="scale(0.015625)" />
                        </defs>
                        <use xlink:href="#SimSun-6b63" />
                        <use xlink:href="#SimSun-5e38" x="100" />
                        <use xlink:href="#SimSun-7269" x="200" />
                        <use xlink:href="#SimSun-8d28" x="300" />
                        <use xlink:href="#SimSun-20" x="400" />
                        <use xlink:href="#SimSun-34" x="450" />
                        <use xlink:href="#SimSun-2e" x="500" />
                        <use xlink:href="#SimSun-39" x="550" />
                        <use xlink:href="#SimSun-25" x="600" />
                    </g>
                </g>
                <g id="patch_7">
                    <path d="M 577.8 100.410937 
L 637.8 100.410937 
L 637.8 79.410937 
L 577.8 79.410937 
z
" style="fill: #d6d6d6; stroke: #000000; stroke-width: 0.5; stroke-linejoin: miter" />
                </g>
                <g id="text_2">
                    <!-- 暗物质 26.2% -->
                    <g transform="translate(661.8 100.410937)scale(0.3 -0.3)">
                        <defs>
                            <path id="SimSun-6697" d="M 2550 4400 
L 4025 4400 
Q 4000 4725 3575 5225 
L 3625 5275 
Q 4025 5075 4187 4925 
Q 4350 4775 4350 4700 
Q 4350 4550 4175 4400 
L 5050 4400 
L 5325 4675 
L 5750 4250 
L 3375 4250 
Q 3050 4250 2775 4175 
L 2550 4400 
z
M 3075 4025 
Q 3625 3625 3687 3500 
Q 3750 3375 3750 3275 
Q 3750 3150 3650 3037 
Q 3550 2925 3500 2925 
Q 3425 2925 3400 3150 
Q 3325 3500 3000 3975 
L 3075 4025 
z
M 4750 4125 
L 5275 3825 
L 5050 3725 
Q 4700 3125 4450 2800 
L 5325 2800 
L 5625 3100 
L 6075 2650 
L 3100 2650 
Q 2775 2650 2500 2575 
L 2275 2800 
L 4300 2800 
Q 4625 3500 4750 4125 
z
M 2850 -575 
Q 2875 -25 2875 725 
Q 2875 1475 2850 2200 
L 3250 2000 
L 4975 2000 
L 5200 2225 
L 5550 1900 
L 5325 1750 
Q 5325 125 5375 -350 
L 5000 -500 
L 5000 -50 
L 3200 -50 
L 3200 -400 
L 2850 -575 
z
M 3200 1850 
L 3200 1075 
L 5000 1075 
L 5000 1850 
L 3200 1850 
z
M 3200 925 
L 3200 100 
L 5000 100 
L 5000 925 
L 3200 925 
z
M 875 4275 
L 875 2725 
L 1800 2725 
L 1800 4275 
L 875 4275 
z
M 875 2575 
L 875 925 
L 1800 925 
L 1800 2575 
L 875 2575 
z
M 2125 4175 
Q 2125 1275 2150 500 
L 1800 300 
L 1800 775 
L 875 775 
L 875 350 
L 525 125 
Q 550 1075 550 2287 
Q 550 3500 525 4650 
L 925 4425 
L 1775 4425 
L 1975 4650 
L 2325 4325 
L 2125 4175 
z
" transform="scale(0.015625)" />
                            <path id="SimSun-32" d="M 2325 3325 
Q 2325 3775 2125 4012 
Q 1925 4250 1525 4250 
Q 1225 4250 1012 4087 
Q 800 3925 800 3675 
Q 800 3525 900 3425 
Q 975 3325 975 3225 
Q 975 3100 912 3037 
Q 850 2975 725 2975 
Q 575 2975 487 3062 
Q 400 3150 400 3350 
Q 400 3875 775 4150 
Q 1150 4425 1575 4425 
Q 2175 4425 2462 4125 
Q 2750 3825 2750 3375 
Q 2750 3075 2612 2775 
Q 2475 2475 2175 2200 
Q 1450 1500 1062 1062 
Q 675 625 600 475 
L 2075 475 
Q 2300 475 2450 650 
Q 2600 825 2650 1175 
L 2800 1175 
L 2650 100 
L 325 100 
L 325 425 
Q 450 650 737 1000 
Q 1025 1350 1500 1825 
Q 1925 2250 2125 2625 
Q 2325 3000 2325 3325 
z
" transform="scale(0.015625)" />
                            <path id="SimSun-36" d="M 775 1800 
Q 775 1050 1037 637 
Q 1300 225 1675 225 
Q 2050 225 2250 500 
Q 2450 775 2450 1525 
Q 2450 2025 2237 2300 
Q 2025 2575 1725 2575 
Q 1450 2575 1212 2412 
Q 975 2250 775 1800 
z
M 1750 2825 
Q 2350 2825 2612 2425 
Q 2875 2025 2875 1525 
Q 2875 775 2512 412 
Q 2150 50 1675 50 
Q 1000 50 650 562 
Q 300 1075 300 2050 
Q 300 3200 725 3812 
Q 1150 4425 1875 4425 
Q 2225 4425 2437 4225 
Q 2650 4025 2650 3875 
Q 2650 3725 2587 3650 
Q 2525 3575 2375 3575 
Q 2250 3575 2187 3637 
Q 2125 3700 2125 3825 
Q 2125 3875 2150 3925 
Q 2150 3975 2150 4025 
Q 2150 4125 2075 4187 
Q 2000 4250 1800 4250 
Q 1375 4250 1075 3862 
Q 775 3475 775 2175 
Q 925 2500 1187 2662 
Q 1450 2825 1750 2825 
z
" transform="scale(0.015625)" />
                        </defs>
                        <use xlink:href="#SimSun-6697" />
                        <use xlink:href="#SimSun-7269" x="100" />
                        <use xlink:href="#SimSun-8d28" x="200" />
                        <use xlink:href="#SimSun-20" x="300" />
                        <use xlink:href="#SimSun-32" x="350" />
                        <use xlink:href="#SimSun-36" x="400" />
                        <use xlink:href="#SimSun-2e" x="450" />
                        <use xlink:href="#SimSun-32" x="500" />
                        <use xlink:href="#SimSun-25" x="550" />
                    </g>
                </g>
                <g id="patch_8">
                    <path d="M 577.8 142.95 
L 637.8 142.95 
L 637.8 121.95 
L 577.8 121.95 
z
" style="fill: #878787; stroke: #000000; stroke-width: 0.5; stroke-linejoin: miter" />
                </g>
                <g id="text_3">
                    <!-- 暗能量 68.9% -->
                    <g transform="translate(661.8 142.95)scale(0.3 -0.3)">
                        <defs>
                            <path id="SimSun-80fd" d="M 1775 5250 
L 2225 4875 
Q 1950 4800 1550 4375 
Q 1150 3925 900 3700 
L 2800 3750 
Q 2575 4175 2375 4400 
L 2425 4475 
Q 2850 4225 3075 4012 
Q 3300 3800 3287 3612 
Q 3275 3425 3175 3337 
Q 3075 3250 3025 3250 
Q 2975 3250 2975 3325 
Q 2925 3450 2850 3650 
Q 2425 3600 1700 3525 
Q 975 3450 750 3275 
L 500 3750 
Q 750 3750 1175 4275 
Q 1600 4800 1775 5250 
z
M 825 -600 
Q 850 -75 850 1325 
Q 850 2725 825 3100 
L 1200 2900 
L 2475 2900 
L 2675 3150 
L 3050 2825 
L 2850 2650 
L 2850 100 
Q 2900 -375 2350 -600 
Q 2325 -275 1700 -100 
L 1700 0 
Q 2175 -50 2350 -50 
Q 2525 -50 2525 225 
L 2525 1100 
L 1200 1100 
L 1200 -400 
L 825 -600 
z
M 1200 2750 
L 1200 2125 
L 2525 2125 
L 2525 2750 
L 1200 2750 
z
M 1200 1975 
L 1200 1250 
L 2525 1250 
L 2525 1975 
L 1200 1975 
z
M 3700 3075 
Q 3700 4825 3675 5100 
L 4250 4850 
L 4025 4650 
L 4025 3775 
Q 4800 4175 5175 4675 
L 5550 4250 
L 5325 4225 
Q 4600 3850 4025 3650 
L 4025 3175 
Q 4025 2900 4400 2900 
L 5250 2900 
Q 5500 2925 5525 3162 
Q 5550 3400 5550 3800 
L 5650 3800 
Q 5675 3500 5725 3262 
Q 5775 3025 6000 2950 
Q 5850 2625 5275 2625 
L 4225 2625 
Q 3700 2600 3700 3075 
z
M 3625 50 
Q 3625 2000 3600 2300 
L 4175 2025 
L 3950 1850 
L 3950 1050 
Q 4825 1525 5250 2125 
L 5650 1650 
L 5425 1650 
Q 4600 1200 3950 900 
L 3950 275 
Q 3950 -125 4325 -100 
L 5300 -100 
Q 5575 -75 5600 250 
Q 5600 550 5625 925 
L 5725 925 
Q 5750 500 5812 262 
Q 5875 25 6075 -25 
Q 5950 -375 5325 -400 
L 4175 -400 
Q 3650 -400 3625 50 
z
" transform="scale(0.015625)" />
                            <path id="SimSun-91cf" d="M 1700 2400 
L 1700 1875 
L 3025 1875 
L 3025 2400 
L 1700 2400 
z
M 3350 2400 
L 3350 1875 
L 4625 1875 
L 4625 2400 
L 3350 2400 
z
M 1700 1725 
L 1700 1225 
L 3025 1225 
L 3025 1725 
L 1700 1725 
z
M 3350 1725 
L 3350 1225 
L 4625 1225 
L 4625 1725 
L 3350 1725 
z
M 4950 2325 
Q 4950 1350 4975 1025 
L 4625 875 
L 4625 1075 
L 3350 1075 
L 3350 525 
L 4700 525 
L 5050 825 
L 5450 375 
L 3350 375 
L 3350 -225 
L 5275 -225 
L 5650 125 
L 6075 -375 
L 1175 -375 
Q 850 -375 575 -450 
L 350 -225 
L 3025 -225 
L 3025 375 
L 1725 375 
Q 1400 375 1125 300 
L 900 525 
L 3025 525 
L 3025 1075 
L 1700 1075 
L 1700 925 
L 1350 800 
Q 1375 1300 1375 1787 
Q 1375 2275 1350 2750 
L 1700 2550 
L 4600 2550 
L 4750 2750 
L 5125 2475 
L 4950 2325 
z
M 1775 4800 
L 1775 4375 
L 4550 4375 
L 4550 4800 
L 1775 4800 
z
M 1775 4225 
L 1775 3775 
L 4550 3775 
L 4550 4225 
L 1775 4225 
z
M 4875 4750 
Q 4875 3825 4900 3525 
L 4550 3375 
L 4550 3625 
L 1775 3625 
L 1775 3400 
L 1425 3250 
Q 1450 3650 1450 4262 
Q 1450 4875 1425 5125 
L 1800 4950 
L 4500 4950 
L 4650 5175 
L 5050 4900 
L 4875 4750 
z
M 250 3125 
L 5375 3125 
L 5725 3450 
L 6150 2975 
L 950 2975 
Q 750 2975 475 2900 
L 250 3125 
z
" transform="scale(0.015625)" />
                            <path id="SimSun-38" d="M 625 1125 
Q 625 725 887 475 
Q 1150 225 1550 225 
Q 2025 225 2237 475 
Q 2450 725 2450 1100 
Q 2450 1425 2150 1725 
Q 1850 2025 1250 2275 
Q 950 2075 787 1775 
Q 625 1475 625 1125 
z
M 2825 1175 
Q 2825 700 2475 375 
Q 2125 50 1550 50 
Q 1025 50 650 375 
Q 275 700 275 1125 
Q 275 1550 487 1850 
Q 700 2150 1100 2375 
Q 750 2550 562 2812 
Q 375 3075 375 3400 
Q 375 3825 700 4125 
Q 1025 4425 1600 4425 
Q 2125 4425 2450 4125 
Q 2775 3825 2775 3400 
Q 2775 3100 2587 2837 
Q 2400 2575 2000 2375 
Q 2425 2125 2625 1825 
Q 2825 1525 2825 1175 
z
M 2425 3375 
Q 2425 3725 2225 3987 
Q 2025 4250 1600 4250 
Q 1125 4250 925 4000 
Q 725 3750 725 3475 
Q 725 3200 1012 2937 
Q 1300 2675 1825 2475 
Q 2125 2625 2275 2850 
Q 2425 3075 2425 3375 
z
" transform="scale(0.015625)" />
                        </defs>
                        <use xlink:href="#SimSun-6697" />
                        <use xlink:href="#SimSun-80fd" x="100" />
                        <use xlink:href="#SimSun-91cf" x="200" />
                        <use xlink:href="#SimSun-20" x="300" />
                        <use xlink:href="#SimSun-36" x="350" />
                        <use xlink:href="#SimSun-38" x="400" />
                        <use xlink:href="#SimSun-2e" x="450" />
                        <use xlink:href="#SimSun-39" x="500" />
                        <use xlink:href="#SimSun-25" x="550" />
                    </g>
                </g>
            </g>
        </g>
    </g>
</svg>