<svg width="740" height="698" version="1.1" viewBox="0 0 740 698" xmlns="http://www.w3.org/2000/svg">
    <defs>
        <clipPath id="as">
            <path d="m-40.214 615.59h612v-562.08h-612" stroke-width=".12" />
        </clipPath>
        <clipPath id="ar">
            <path d="m-40.214 615.59h612v-562.08h-612" stroke-width=".12" />
        </clipPath>
        <clipPath id="aq">
            <path d="m-40.214 615.59h612v-562.08h-612" stroke-width=".12" />
        </clipPath>
        <clipPath id="ap">
            <path d="m-40.214 615.59h612v-562.08h-612" stroke-width=".12" />
        </clipPath>
        <clipPath id="ao">
            <path d="m-40.214 615.59h612v-562.08h-612" stroke-width=".12" />
        </clipPath>
        <clipPath id="an">
            <path d="m-40.214 615.59h612v-562.08h-612" stroke-width=".12" />
        </clipPath>
        <clipPath id="am">
            <path d="m-40.214 615.59h612v-562.08h-612" stroke-width=".12" />
        </clipPath>
        <clipPath id="al">
            <path d="m-40.214 615.59h612v-562.08h-612" stroke-width=".12" />
        </clipPath>
        <clipPath id="ak">
            <path d="m-40.214 615.59h612v-562.08h-612" stroke-width=".12" />
        </clipPath>
        <clipPath id="aj">
            <path d="m-40.214 615.59h612v-562.08h-612" stroke-width=".12" />
        </clipPath>
        <clipPath id="ai">
            <path d="m-40.214 615.59h612v-562.08h-612" stroke-width=".12" />
        </clipPath>
        <clipPath id="ah">
            <path d="m-40.214 615.59h612v-562.08h-612" stroke-width=".12" />
        </clipPath>
        <clipPath id="ag">
            <path d="m-40.214 615.59h612v-562.08h-612" stroke-width=".12" />
        </clipPath>
        <clipPath id="af">
            <path d="m-40.214 615.59h612v-562.08h-612" stroke-width=".12" />
        </clipPath>
        <clipPath id="ae">
            <path d="m-40.214 615.59h612v-562.08h-612" stroke-width=".12" />
        </clipPath>
        <clipPath id="ad">
            <path d="m-40.214 615.59h612v-562.08h-612" stroke-width=".12" />
        </clipPath>
        <clipPath id="ac">
            <path d="m-40.214 615.59h612v-562.08h-612" stroke-width=".12" />
        </clipPath>
        <clipPath id="ab">
            <path d="m-40.214 615.59h612v-562.08h-612" stroke-width=".12" />
        </clipPath>
        <clipPath id="aa">
            <path d="m-40.214 615.59h612v-562.08h-612" stroke-width=".12" />
        </clipPath>
        <clipPath id="z">
            <path d="m-40.214 615.59h612v-562.08h-612" stroke-width=".12" />
        </clipPath>
        <clipPath id="y">
            <path d="m-40.214 615.59h612v-562.08h-612" stroke-width=".12" />
        </clipPath>
        <clipPath id="x">
            <path d="m-40.214 615.59h612v-562.08h-612" stroke-width=".12" />
        </clipPath>
        <clipPath id="w">
            <path d="m-40.214 615.59h612v-562.08h-612" stroke-width=".12" />
        </clipPath>
        <clipPath id="v">
            <path d="m-40.214 615.59h612v-562.08h-612" stroke-width=".12" />
        </clipPath>
        <clipPath id="u">
            <path d="m-40.214 615.59h612v-562.08h-612" stroke-width=".12" />
        </clipPath>
        <clipPath id="t">
            <path d="m-40.214 615.59h612v-562.08h-612" stroke-width=".12" />
        </clipPath>
        <clipPath id="s">
            <path d="m-40.214 615.59h612v-562.08h-612" stroke-width=".12" />
        </clipPath>
        <clipPath id="r">
            <path d="m-40.214 615.59h612v-562.08h-612" stroke-width=".12" />
        </clipPath>
        <clipPath id="q">
            <path d="m-40.214 615.59h612v-562.08h-612" stroke-width=".12" />
        </clipPath>
        <clipPath id="p">
            <path d="m-40.214 615.59h612v-562.08h-612" stroke-width=".12" />
        </clipPath>
        <clipPath id="o">
            <path d="m-40.214 615.59h612v-562.08h-612" stroke-width=".12" />
        </clipPath>
        <clipPath id="n">
            <path d="m-40.214 615.59h612v-562.08h-612" stroke-width=".12" />
        </clipPath>
        <clipPath id="m">
            <path d="m-40.214 615.59h612v-562.08h-612" stroke-width=".12" />
        </clipPath>
        <clipPath id="l">
            <path d="m-40.214 615.59h612v-562.08h-612" stroke-width=".12" />
        </clipPath>
        <clipPath id="k">
            <path d="m-40.214 615.59h612v-562.08h-612" stroke-width=".12" />
        </clipPath>
        <clipPath id="j">
            <path d="m-40.214 615.59h612v-562.08h-612" stroke-width=".12" />
        </clipPath>
        <clipPath id="i">
            <path d="m-40.214 615.59h612v-562.08h-612" stroke-width=".12" />
        </clipPath>
        <clipPath id="h">
            <path d="m-40.214 615.59h612v-562.08h-612" stroke-width=".12" />
        </clipPath>
        <clipPath id="g">
            <path d="m-40.214 615.59h612v-562.08h-612" stroke-width=".12" />
        </clipPath>
        <clipPath id="f">
            <path d="m-40.214 615.59h612v-562.08h-612" stroke-width=".12" />
        </clipPath>
        <clipPath id="e">
            <path d="m-40.214 615.59h612v-562.08h-612" stroke-width=".12" />
        </clipPath>
        <clipPath id="d">
            <path d="m-40.214 615.59h612v-562.08h-612" stroke-width=".12" />
        </clipPath>
        <clipPath id="c">
            <path d="m-40.214 615.59h612v-562.08h-612" stroke-width=".12" />
        </clipPath>
        <clipPath id="b">
            <path d="m-40.214 615.59h612v-562.08h-612" stroke-width=".12" />
        </clipPath>
        <clipPath id="a">
            <path d="m-40.214 615.59h612v-562.08h-612" stroke-width=".12" />
        </clipPath>
    </defs>
    <g transform="matrix(1.3333 0 0 -1.3333 0 793.7)">
        <g fill="none" stroke="#000" stroke-linecap="round" stroke-linejoin="round" stroke-miterlimit="10">
            <path d="m438.87 333.38c0-97.083-79.887-176.97-176.97-176.97-97.083 0-176.97 79.887-176.97 176.97 0 97.083 79.887 176.97 176.97 176.97 97.083 0 176.97-79.887 176.97-176.97" clip-path="url(#a)" stroke-width=".6" />
            <path d="m261.95 333.35h176.88" clip-path="url(#b)" stroke-width=".3" />
            <path d="m261.95 333.35-113.04 136.2" clip-path="url(#c)" stroke-width=".3" />
            <path d="m515.99 333.38c0-139.39-114.7-254.1-254.1-254.1s-254.1 114.7-254.1 254.1c0 139.39 114.7 254.1 254.1 254.1s254.1-114.7 254.1-254.1" clip-path="url(#d)" stroke-width=".6" />
            <path d="m148.91 469.55 14.16-5.28m6.84-2.52 13.92-5.16m6.84-2.52 13.92-5.16m6.84-2.52 13.8-5.16m6.96-2.64 13.8-5.04m6.96-2.64 13.8-5.04m6.96-2.64 13.8-5.16m6.84-2.52 13.92-5.16m6.84-2.52 13.92-5.16m6.84-2.52 13.8-5.16m6.96-2.52 13.8-5.16m6.96-2.52 13.8-5.16m6.96-2.52 13.8-5.16m6.96-2.64 13.8-5.04m6.84-2.64 13.92-5.04m6.84-2.64 13.8-5.04m6.96-2.64 13.8-5.16m6.96-2.52 14.16-5.28" clip-path="url(#e)" stroke-width=".3" />
        </g>
        <g fill="#000000" font-family="Arial" stroke-width=".3">
            <text transform="scale(1,-1)" x="346.42551" y="-277.67035" font-size="20.602px" xml:space="preserve">
                <tspan x="346.42551" y="-277.67035" stroke-width=".3">R</tspan>
            </text>
            <text transform="scale(1,-1)" x="360.70551" y="-272.75034" font-size="14.422px" xml:space="preserve">
                <tspan x="360.70551" y="-272.75034" stroke-width=".3">0</tspan>
            </text>
            <text transform="scale(1,-1)" x="165.10551" y="-374.87033" font-size="20.602px" xml:space="preserve">
                <tspan x="165.10551" y="-374.87033" stroke-width=".3">R</tspan>
            </text>
            <text transform="scale(1,-1)" x="179.38551" y="-369.95035" font-size="14.422px" xml:space="preserve">
                <tspan x="179.38551" y="-369.95035" stroke-width=".3">0</tspan>
            </text>
            <g font-size="20.602px">
                <text transform="scale(1,-1)" x="473.74551" y="-282.95035" xml:space="preserve">
                    <tspan x="473.74551" y="-282.95035" stroke-width=".3">s</tspan>
                </text>
                <text transform="scale(1,-1)" x="359.3855" y="-428.15033" xml:space="preserve">
                    <tspan x="359.3855" y="-428.15033" stroke-width=".3">L</tspan>
                </text>
                <text transform="scale(1,-1)" x="265.42551" y="-313.07034" xml:space="preserve">
                    <tspan x="265.42551" y="-313.07034" stroke-width=".3">O</tspan>
                </text>
                <text transform="scale(1,-1)" x="533.62549" y="-325.91034" xml:space="preserve">
                    <tspan x="533.62549" y="-325.91034" stroke-width=".3">A</tspan>
                </text>
                <text transform="scale(1,-1)" x="124.30551" y="-477.71033" xml:space="preserve">
                    <tspan x="124.30551" y="-477.71033" stroke-width=".3">B</tspan>
                </text>
                <text transform="scale(1,-1)" x="416.50552" y="-315.59033" xml:space="preserve">
                    <tspan x="416.50552" y="-315.59033" stroke-width=".3">A</tspan>
                </text>
            </g>
            <text transform="scale(1,-1)" x="429.70551" y="-310.67035" font-size="14.422px" xml:space="preserve">
                <tspan x="429.70551" y="-310.67035" stroke-width=".3">0</tspan>
            </text>
        </g>
        <g fill="none" stroke="#000" stroke-linecap="round" stroke-linejoin="round" stroke-miterlimit="10" stroke-width=".3">
            <path d="m148.91 469.55-21.72-18" clip-path="url(#f)" />
            <path d="m261.95 333.35-21.72-17.88" clip-path="url(#g)" />
            <path d="m136.55 449.75 103.56-124.92" clip-path="url(#h)" />
        </g>
        <path d="m137.39 450.47-1.8-1.56-3.84 6.48z" clip-path="url(#i)" fill-rule="evenodd" stroke="#000" stroke-linecap="round" stroke-miterlimit="10" stroke-width=".3" />
        <path d="m239.15 324.11 1.92 1.56 3.72-6.48z" clip-path="url(#j)" fill-rule="evenodd" stroke="#000" stroke-linecap="round" stroke-miterlimit="10" stroke-width=".3" />
        <g fill="none" stroke="#000" stroke-linecap="round" stroke-linejoin="round" stroke-miterlimit="10" stroke-width=".3">
            <path d="m261.95 333.35v-42.96" clip-path="url(#k)" />
            <path d="m438.83 333.35v-42.96" clip-path="url(#l)" />
            <path d="m269.27 296.27h162.24" clip-path="url(#m)" />
        </g>
        <path d="m269.27 297.47v-2.4l-7.32 1.2z" clip-path="url(#n)" fill-rule="evenodd" stroke="#000" stroke-linecap="round" stroke-miterlimit="10" stroke-width=".3" />
        <path d="m431.51 295.07v2.4l7.32-1.2z" clip-path="url(#o)" fill-rule="evenodd" stroke="#000" stroke-linecap="round" stroke-miterlimit="10" stroke-width=".3" />
        <g fill="none" stroke="#000" stroke-linecap="round" stroke-linejoin="round" stroke-miterlimit="10" stroke-width=".3">
            <path d="m438.83 333.35v-42.96" clip-path="url(#p)" />
            <path d="m515.99 333.35v-42.96" clip-path="url(#q)" />
            <path d="m446.27 296.27h62.4" clip-path="url(#r)" />
        </g>
        <path d="m446.27 297.47v-2.4l-7.44 1.2z" clip-path="url(#s)" fill-rule="evenodd" stroke="#000" stroke-linecap="round" stroke-miterlimit="10" stroke-width=".3" />
        <path d="m508.67 295.07v2.4l7.32-1.2z" clip-path="url(#t)" fill-rule="evenodd" stroke="#000" stroke-linecap="round" stroke-miterlimit="10" stroke-width=".3" />
        <g fill="none" stroke="#000" stroke-linecap="round" stroke-linejoin="round" stroke-miterlimit="10" stroke-width=".3">
            <path d="m148.91 469.55 11.64 31.44" clip-path="url(#u)" />
            <path d="m515.99 333.35 11.64 31.56" clip-path="url(#v)" />
            <path d="m165.47 492.95 353.28-131.04" clip-path="url(#w)" />
        </g>
        <path d="m165.83 494.15-0.84-2.4-6.48 3.72z" clip-path="url(#x)" fill-rule="evenodd" stroke="#000" stroke-linecap="round" stroke-miterlimit="10" stroke-width=".3" />
        <path d="m518.27 360.71 0.84 2.4 6.48-3.72z" clip-path="url(#y)" fill-rule="evenodd" stroke="#000" stroke-linecap="round" stroke-miterlimit="10" stroke-width=".3" />
        <g fill="none" stroke="#000" stroke-linecap="round" stroke-linejoin="round" stroke-miterlimit="10" stroke-width=".3">
            <path d="m261.95 333.35v-107.04" clip-path="url(#z)" />
            <path d="m515.99 333.35v-107.04" clip-path="url(#aa)" />
            <path d="m269.27 232.19h239.4" clip-path="url(#ab)" />
        </g>
        <g stroke-width=".3">
            <path d="m269.27 233.51v-2.52l-7.32 1.2z" clip-path="url(#ac)" fill-rule="evenodd" stroke="#000" stroke-linecap="round" stroke-miterlimit="10" />
            <path d="m508.67 230.99v2.52l7.32-1.32z" clip-path="url(#ad)" fill-rule="evenodd" stroke="#000" stroke-linecap="round" stroke-miterlimit="10" />
            <text transform="scale(1,-1)" x="381.1055" y="-242.15034" fill="#000000" font-family="Arial" font-size="20.602px" xml:space="preserve">
                <tspan x="381.1055" y="-242.15034" stroke-width=".3">R</tspan>
            </text>
            <text transform="scale(1,-1)" x="395.74551" y="-237.59035" fill="#000000" font-family="Arial" font-size="14.422px" xml:space="preserve">
                <tspan x="395.74551" y="-237.59035" stroke-width=".3">t</tspan>
            </text>
        </g>
        <path d="m285.3 354.28c3.4554-3.8684 5.8982-8.534 7.1089-13.578" clip-path="url(#ae)" fill="none" stroke="#000" stroke-linecap="round" stroke-linejoin="round" stroke-miterlimit="10" stroke-width=".3" />
        <path d="m248.05 361.53c6.6823 3.2879 14.322 4.0914 21.542 2.2657" clip-path="url(#af)" fill="none" stroke="#000" stroke-linecap="round" stroke-linejoin="round" stroke-miterlimit="10" stroke-width=".3" />
        <g>
            <path d="m291.23 340.55 2.4 0.24-0.36-7.44z" clip-path="url(#ag)" fill-rule="evenodd" stroke="#000" stroke-linecap="round" stroke-miterlimit="10" stroke-width=".3" />
            <path d="m247.43 362.51 1.32-2.04-6.84-3z" clip-path="url(#ah)" fill-rule="evenodd" stroke="#000" stroke-linecap="round" stroke-miterlimit="10" stroke-width=".3" />
            <text transform="scale(1,-1)" x="273.8255" y="-356.87033" fill="#000000" font-family="Arial" font-size="24px" stroke-width=".3" style="inline-size:0;white-space:pre" xml:space="preserve">
                <tspan x="273.8255" y="-356.87033" font-size="24px" stroke-width=".3">γ</tspan>
            </text>
        </g>
        <g stroke="#000" stroke-linecap="round" stroke-miterlimit="10" stroke-width=".3">
            <path d="m454.91 498.71-9.72-8.28m-5.64-4.8-11.16-9.6m-5.64-4.8-11.16-9.6m-5.64-4.8-9.6-8.28" clip-path="url(#ai)" fill="none" stroke-linejoin="round" />
            <path d="m127.55 218.27-9.72-8.28m-5.64-4.8-11.16-9.6m-5.64-4.8-11.16-9.6m-5.64-4.8-9.72-8.28" clip-path="url(#aj)" fill="none" stroke-linejoin="round" />
            <path d="m442.07 490.91 3.24-3.72 9.6 11.52z" clip-path="url(#ak)" fill-rule="evenodd" />
            <path d="m454.91 168.11-9.72 8.28m-5.64 4.8-11.16 9.6m-5.64 4.8-11.16 9.6m-5.64 4.8-9.6 8.28" clip-path="url(#al)" fill="none" stroke-linejoin="round" />
            <path d="m127.55 448.55-9.72 8.28m-5.64 4.8-11.16 9.6m-5.64 4.8-11.16 9.6m-5.64 4.8-9.72 8.28" clip-path="url(#am)" fill="none" stroke-linejoin="round" />
        </g>
        <g fill-rule="evenodd" stroke="#000" stroke-linecap="round" stroke-miterlimit="10" stroke-width=".3">
            <path d="m78.466 487.19 3.24 3.72-12.84 7.8z" clip-path="url(#an)" />
            <path d="m442.07 175.79 3.24 3.72 9.6-11.4z" clip-path="url(#ao)" />
            <path d="m78.466 179.51 3.24-3.72-12.84-7.68z" clip-path="url(#ap)" />
        </g>
        <g stroke="#000" stroke-linecap="round" stroke-miterlimit="10" stroke-width=".3">
            <path d="m438.83 333.35h12.84m7.32 0h14.76m7.32 0h14.76m7.44 0h12.72" clip-path="url(#aq)" fill="none" stroke-linejoin="round" />
            <path d="m457.07 357.83-1.68-4.56 14.64-2.88z" clip-path="url(#ar)" fill-rule="evenodd" />
            <path d="m501.23 335.87v-4.92l14.76 2.4z" clip-path="url(#as)" fill-rule="evenodd" />
        </g>
    </g>
</svg>