<?xml version="1.0" encoding="UTF-8" standalone="no"?>

<svg version="1.1" id="svg275" width="666.66669" height="308" viewBox="0 0 666.66669 308" xmlns="http://www.w3.org/2000/svg" xmlns:svg="http://www.w3.org/2000/svg">
    <defs id="defs279">
        <clipPath clipPathUnits="userSpaceOnUse" id="clipPath369">
            <path d="m 363,164 h 4.68 v 8 H 363 Z" id="path367" />
        </clipPath>
    </defs>
    <g id="g283" transform="matrix(1.3333333,0,0,1.3333333,0,7.7e-6)">
        <g id="g285">
            <path d="m 30.137,40.316 0.023,0.711 0.195,5 0.098,2.27 0.102,2.133 0.195,3.91 0.098,1.797 0.097,1.703 0.196,3.16 0.101,1.465 0.098,1.402 0.195,2.617 0.098,1.227 0.097,1.176 0.2,2.215 0.097,1.043 0.098,1.003 0.195,1.903 0.395,3.426 0.098,0.785 0.097,0.761 0.195,1.457 0.395,2.665 0.098,0.621 0.097,0.601 0.196,1.16 0.394,2.141 0.106,0.547 0.105,0.527 0.215,1.024 0.426,1.894 0.105,0.445 0.106,0.434 0.215,0.844 0.425,1.574 0.106,0.371 0.105,0.367 0.215,0.707 0.426,1.332 0.851,2.379 0.106,0.278 0.109,0.265 0.211,0.528 0.426,0.996 0.105,0.238 0.11,0.234 0.211,0.461 0.426,0.875 0.105,0.211 0.109,0.207 0.211,0.407 0.426,0.777 0.852,1.43 0.101,0.156 0.098,0.152 0.199,0.305 0.399,0.59 0.793,1.093 0.101,0.129 0.098,0.129 0.199,0.25 0.398,0.492 0.797,0.918 0.098,0.11 0.098,0.105 0.199,0.215 0.398,0.414 0.797,0.785 1.59,1.403 0.391,0.312 0.386,0.305 0.782,0.582 1.558,1.055 0.195,0.125 0.196,0.121 0.39,0.238 0.778,0.453 1.562,0.844 0.106,0.051 0.105,0.054 0.211,0.106 0.422,0.207 0.848,0.398 1.691,0.735 0.422,0.171 0.422,0.168 0.847,0.325 1.247,0.445 0.445,0.156 0.195,0.071 0.199,0.062 0.395,0.133 0.789,0.25 1.578,0.476 0.098,0.028 0.097,0.031 0.2,0.055 0.394,0.109 0.789,0.215 1.578,0.41 0.106,0.027 0.109,0.024 0.215,0.055 0.426,0.101 0.855,0.203 1.711,0.379 0.106,0.024 0.109,0.023 0.211,0.043 0.43,0.09 0.855,0.172 1.711,0.332 0.211,0.039 0.207,0.039 0.422,0.074 0.84,0.148 1.679,0.286 3.36,0.519 0.098,0.012 0.097,0.016 0.586,0.082 0.785,0.109 1.567,0.211 3.132,0.39 0.211,0.024 0.215,0.027 0.422,0.047 0.852,0.098 1.699,0.187 3.398,0.344 0.098,0.012 0.098,0.008 0.597,0.058 0.793,0.074 1.586,0.145 3.172,0.269 6.219,0.469 6.746,0.438 6.297,0.355 6.824,0.332 6.699,0.289 6.25,0.239 6.778,0.234 6.324,0.195 6.855,0.192 6.727,0.168 6.281,0.144 6.805,0.145 6.355,0.125 6.231,0.113 6.758,0.113 6.308,0.098 6.836,0.098 6.711,0.089 6.258,0.079 6.789,0.082 6.34,0.07 6.211,0.062 6.738,0.067 6.289,0.058 6.82,0.063 6.368,0.051 6.238,0.05 6.773,0.051 6.317,0.047 6.847,0.047 6.723,0.043 6.269,0.039 6.801,0.039 6.348,0.039 6.223,0.031 6.753,0.036 6.301,0.031 h 0.11 l 0.109,0.004 h 0.66 l 0.879,0.007 1.758,0.008 h 0.437 l 0.442,0.004 0.879,0.004 h 0.441 l 0.438,0.004 h 0.441 l 0.109,0.004 h 0.329" style="fill:none;stroke:#000000;stroke-width:1.6;stroke-linecap:square;stroke-linejoin:miter;stroke-miterlimit:3.25;stroke-dasharray:none;stroke-opacity:1" id="path287" />
            <path d="m 60.02,166.488 0.019,-0.687 0.106,-1.168 0.109,-0.695 0.105,-0.547 0.106,-0.465 0.098,-0.383 0.097,-0.348 0.098,-0.32 0.101,-0.301 0.098,-0.281 0.098,-0.262 0.199,-0.492 0.098,-0.23 0.097,-0.219 0.199,-0.414 0.395,-0.754 0.195,-0.344 0.2,-0.324 0.394,-0.606 0.098,-0.144 0.097,-0.137 0.2,-0.273 0.394,-0.512 0.098,-0.125 0.097,-0.121 0.2,-0.234 0.394,-0.446 0.789,-0.82 0.196,-0.188 0.199,-0.187 0.394,-0.356 0.789,-0.667 0.106,-0.086 0.109,-0.082 0.215,-0.168 0.426,-0.321 0.855,-0.601 0.106,-0.071 0.109,-0.074 0.215,-0.137 0.426,-0.273 0.855,-0.512 0.106,-0.062 0.109,-0.063 0.211,-0.117 0.43,-0.234 0.855,-0.449 1.711,-0.809 0.211,-0.094 0.207,-0.09 0.422,-0.179 0.84,-0.344 1.679,-0.633 0.106,-0.035 0.105,-0.039 0.207,-0.074 0.422,-0.145 0.84,-0.277 1.68,-0.524 0.195,-0.054 0.195,-0.059 0.391,-0.113 0.785,-0.219 1.567,-0.41 0.097,-0.024 0.098,-0.027 0.195,-0.047 0.391,-0.097 0.785,-0.188 1.566,-0.355 0.106,-0.02 0.105,-0.023 0.215,-0.047 0.422,-0.09 0.852,-0.176 1.699,-0.332 0.105,-0.019 0.106,-0.024 0.215,-0.039 0.422,-0.078 0.851,-0.152 1.699,-0.289 0.196,-0.032 0.199,-0.035 0.398,-0.062 0.793,-0.125 1.586,-0.243 3.172,-0.441 0.094,-0.012 0.098,-0.015 0.195,-0.024 0.39,-0.051 0.778,-0.097 1.554,-0.192 3.11,-0.351 0.422,-0.047 0.422,-0.043 0.843,-0.09 1.684,-0.168 3.375,-0.316 0.098,-0.012 0.097,-0.008 0.199,-0.015 0.395,-0.036 0.785,-0.07 1.574,-0.129 3.149,-0.25 6.824,-0.476 6.699,-0.403 6.25,-0.324 6.778,-0.308 6.324,-0.258 6.855,-0.246 6.727,-0.219 6.281,-0.184 6.805,-0.179 6.355,-0.153 6.231,-0.136 6.758,-0.137 6.308,-0.117 6.836,-0.118 6.711,-0.109 6.258,-0.094 6.789,-0.093 6.34,-0.082 6.211,-0.075 6.738,-0.078 6.289,-0.066 6.82,-0.071 6.368,-0.062 6.238,-0.055 6.773,-0.058 6.317,-0.051 6.847,-0.055 6.723,-0.047 6.269,-0.047 6.801,-0.043 6.348,-0.039 6.223,-0.039 6.753,-0.039 6.301,-0.035 h 0.219 l 0.219,-0.004 h 0.441 l 0.879,-0.004 1.758,-0.011 h 0.219 l 0.218,-0.004 h 0.442 l 0.879,-0.004 h 0.109 l 0.109,-0.004 h 0.661 l 0.109,-0.004 h 0.66 l 0.11,-0.004" style="fill:none;stroke:#000000;stroke-width:1.6;stroke-linecap:square;stroke-linejoin:miter;stroke-miterlimit:3.25;stroke-dasharray:none;stroke-opacity:1" id="path289" />
            <path d="M 28,135.047 H 348.188" style="fill:none;stroke:#000000;stroke-width:1.6;stroke-linecap:square;stroke-linejoin:miter;stroke-miterlimit:3.25;stroke-dasharray:none;stroke-opacity:1" id="path291" />
            <path d="m 354.594,133.504 h 4.043 l 0.09,-0.008 0.097,-0.008 0.106,-0.015 0.117,-0.02 0.125,-0.031 0.141,-0.039 0.148,-0.051 0.164,-0.066 0.18,-0.078 0.191,-0.094 0.207,-0.114 0.223,-0.128 0.242,-0.153 0.258,-0.172 0.277,-0.191 0.297,-0.219 0.316,-0.246 0.34,-0.273 0.36,-0.297 0.382,-0.332 0.407,-0.36 0.425,-0.394 0.454,-0.43 0.476,-0.453 0.492,-0.484 0.512,-0.504 1.07,-1.071 0.551,-0.558 0.563,-0.574 0.57,-0.578 1.156,-1.18 1.164,-1.18 0.582,-0.586 0.575,-0.574 0.574,-0.566 0.562,-0.551 0.551,-0.539 0.543,-0.516 0.527,-0.492 0.512,-0.469 0.496,-0.441 0.473,-0.414 0.457,-0.375 0.433,-0.348 0.415,-0.312 0.398,-0.29 0.379,-0.257 0.363,-0.231 0.348,-0.207 0.336,-0.183 0.32,-0.161 0.313,-0.14 0.3,-0.117 0.293,-0.106 0.282,-0.086 0.277,-0.07 0.269,-0.059 0.266,-0.047 0.262,-0.035 0.258,-0.023 0.257,-0.02 0.254,-0.011 0.258,-0.008 h 5.238" style="fill:none;stroke:#ffffff;stroke-width:4;stroke-linecap:butt;stroke-linejoin:round;stroke-miterlimit:3.25;stroke-dasharray:none;stroke-opacity:0.666667" id="path293" />
            <path d="m 354.594,133.504 h 4.043 l 0.09,-0.008 0.097,-0.008 0.106,-0.015 0.117,-0.02 0.125,-0.031 0.141,-0.039 0.148,-0.051 0.164,-0.066 0.18,-0.078 0.191,-0.094 0.207,-0.114 0.223,-0.128 0.242,-0.153 0.258,-0.172 0.277,-0.191 0.297,-0.219 0.316,-0.246 0.34,-0.273 0.36,-0.297 0.382,-0.332 0.407,-0.36 0.425,-0.394 0.454,-0.43 0.476,-0.453 0.492,-0.484 0.512,-0.504 1.07,-1.071 0.551,-0.558 0.563,-0.574 0.57,-0.578 1.156,-1.18 1.164,-1.18 0.582,-0.586 0.575,-0.574 0.574,-0.566 0.562,-0.551 0.551,-0.539 0.543,-0.516 0.527,-0.492 0.512,-0.469 0.496,-0.441 0.473,-0.414 0.457,-0.375 0.433,-0.348 0.415,-0.312 0.398,-0.29 0.379,-0.257 0.363,-0.231 0.348,-0.207 0.336,-0.183 0.32,-0.161 0.313,-0.14 0.3,-0.117 0.293,-0.106 0.282,-0.086 0.277,-0.07 0.269,-0.059 0.266,-0.047 0.262,-0.035 0.258,-0.023 0.257,-0.02 0.254,-0.011 0.258,-0.008 h 5.238" style="fill:none;stroke:#aaaaaa;stroke-width:1.25;stroke-linecap:square;stroke-linejoin:miter;stroke-miterlimit:3.25;stroke-dasharray:none;stroke-opacity:1" id="path295" />
            <path d="m 388.109,107.469 h 95 v 15 h -95 z" style="fill:#ffffff;fill-opacity:0.666667;fill-rule:nonzero;stroke:none" id="path297" />
            <path d="m 388.109,107.469 h 95 v 15 h -95 z" style="fill:none;stroke:#ffffff;stroke-width:1.25;stroke-linecap:square;stroke-linejoin:miter;stroke-miterlimit:3.25;stroke-dasharray:none;stroke-opacity:0.666667" id="path299" />
            <text xml:space="preserve" transform="translate(390.60908,118.43364)" style="font-variant:normal;font-weight:normal;font-size:10px;font-family:'Microsoft YaHei UI';-inkscape-font-specification:MicrosoftYaHeiUI;writing-mode:lr-tb;fill:#000000;fill-opacity:1;fill-rule:nonzero;stroke:none" id="text303">
                <tspan x="0 10 20 30 40 50 60 70 80" y="0" id="tspan301" style="font-style:normal;font-variant:normal;font-weight:normal;font-stretch:normal;font-family:'宋体';-inkscape-font-specification:'宋体'">重力斥力场时间系数</tspan>
            </text>
            <path d="m 354.594,136.664 h 3.965 l 0.078,0.004 0.09,0.004 0.097,0.008 0.106,0.015 0.117,0.024 0.125,0.027 0.141,0.043 0.148,0.051 0.164,0.062 0.18,0.078 0.191,0.098 0.207,0.11 0.223,0.128 0.242,0.153 0.258,0.172 0.277,0.191 0.297,0.219 0.316,0.246 0.34,0.269 0.36,0.301 0.382,0.328 0.407,0.364 0.425,0.394 0.454,0.426 0.476,0.453 0.492,0.481 0.512,0.507 0.527,0.524 0.543,0.543 0.551,0.558 0.563,0.571 0.57,0.582 0.578,0.586 0.578,0.589 1.164,1.18 1.157,1.156 0.574,0.567 0.562,0.551 0.551,0.535 0.543,0.515 0.527,0.496 0.512,0.465 0.496,0.442 0.473,0.41 0.457,0.379 0.433,0.344 0.415,0.316 0.398,0.285 0.379,0.258 0.363,0.23 0.348,0.207 0.336,0.18 0.32,0.164 0.313,0.137 0.3,0.121 0.293,0.105 0.282,0.086 0.277,0.071 0.269,0.058 0.266,0.043 0.262,0.035 0.258,0.028 0.257,0.019 0.254,0.008 0.258,0.008 0.262,0.004 h 4.976" style="fill:none;stroke:#ffffff;stroke-width:4;stroke-linecap:butt;stroke-linejoin:round;stroke-miterlimit:3.25;stroke-dasharray:none;stroke-opacity:0.666667" id="path305" />
            <path d="m 354.594,136.664 h 3.965 l 0.078,0.004 0.09,0.004 0.097,0.008 0.106,0.015 0.117,0.024 0.125,0.027 0.141,0.043 0.148,0.051 0.164,0.062 0.18,0.078 0.191,0.098 0.207,0.11 0.223,0.128 0.242,0.153 0.258,0.172 0.277,0.191 0.297,0.219 0.316,0.246 0.34,0.269 0.36,0.301 0.382,0.328 0.407,0.364 0.425,0.394 0.454,0.426 0.476,0.453 0.492,0.481 0.512,0.507 0.527,0.524 0.543,0.543 0.551,0.558 0.563,0.571 0.57,0.582 0.578,0.586 0.578,0.589 1.164,1.18 1.157,1.156 0.574,0.567 0.562,0.551 0.551,0.535 0.543,0.515 0.527,0.496 0.512,0.465 0.496,0.442 0.473,0.41 0.457,0.379 0.433,0.344 0.415,0.316 0.398,0.285 0.379,0.258 0.363,0.23 0.348,0.207 0.336,0.18 0.32,0.164 0.313,0.137 0.3,0.121 0.293,0.105 0.282,0.086 0.277,0.071 0.269,0.058 0.266,0.043 0.262,0.035 0.258,0.028 0.257,0.019 0.254,0.008 0.258,0.008 0.262,0.004 h 4.976" style="fill:none;stroke:#aaaaaa;stroke-width:1.25;stroke-linecap:square;stroke-linejoin:miter;stroke-miterlimit:3.25;stroke-dasharray:none;stroke-opacity:1" id="path307" />
            <path d="m 388.109,147.676 h 95 v 15 h -95 z" style="fill:#ffffff;fill-opacity:0.666667;fill-rule:nonzero;stroke:none" id="path309" />
            <path d="m 388.109,147.676 h 95 v 15 h -95 z" style="fill:none;stroke:#ffffff;stroke-width:1.25;stroke-linecap:square;stroke-linejoin:miter;stroke-miterlimit:3.25;stroke-dasharray:none;stroke-opacity:0.666667" id="path311" />
            <text xml:space="preserve" transform="translate(390.60908,158.64293)" style="font-variant:normal;font-weight:normal;font-size:10px;font-family:'Microsoft YaHei UI';-inkscape-font-specification:MicrosoftYaHeiUI;writing-mode:lr-tb;fill:#000000;fill-opacity:1;fill-rule:nonzero;stroke:none" id="text315">
                <tspan x="0 10 20 30 40 50 60 70 80" y="0" id="tspan313" style="font-style:normal;font-variant:normal;font-weight:normal;font-stretch:normal;font-family:'宋体';-inkscape-font-specification:'宋体'">重力引力场时间系数</tspan>
            </text>
            <path d="m 354.594,135.047 h 8.144 l 0.508,0.004 h 2.391 l 0.672,0.004 h 2.125 l 0.734,0.004 h 1.477 l 0.738,0.004 h 2.156 l 0.688,0.003 h 2.48 l 0.543,0.004 h 10.859" style="fill:none;stroke:#ffffff;stroke-width:4;stroke-linecap:butt;stroke-linejoin:round;stroke-miterlimit:3.25;stroke-dasharray:none;stroke-opacity:0.666667" id="path317" />
            <path d="m 354.594,135.047 h 8.144 l 0.508,0.004 h 2.391 l 0.672,0.004 h 2.125 l 0.734,0.004 h 1.477 l 0.738,0.004 h 2.156 l 0.688,0.003 h 2.48 l 0.543,0.004 h 10.859" style="fill:none;stroke:#aaaaaa;stroke-width:1.25;stroke-linecap:square;stroke-linejoin:miter;stroke-miterlimit:3.25;stroke-dasharray:none;stroke-opacity:1" id="path319" />
            <path d="m 388.109,127.57 h 105 v 15 h -105 z" style="fill:#ffffff;fill-opacity:0.666667;fill-rule:nonzero;stroke:none" id="path321" />
            <path d="m 388.109,127.57 h 105 v 15 h -105 z" style="fill:none;stroke:#ffffff;stroke-width:1.25;stroke-linecap:square;stroke-linejoin:miter;stroke-miterlimit:3.25;stroke-dasharray:none;stroke-opacity:0.666667" id="path323" />
            <text xml:space="preserve" transform="translate(390.60908,138.53828)" style="font-variant:normal;font-weight:normal;font-size:10px;font-family:'Microsoft YaHei UI';-inkscape-font-specification:MicrosoftYaHeiUI;writing-mode:lr-tb;fill:#000000;fill-opacity:1;fill-rule:nonzero;stroke:none" id="text327">
                <tspan x="0 10 20 30 40 50 60 70 80 90" y="0" id="tspan325" style="font-style:normal;font-variant:normal;font-weight:normal;font-stretch:normal;font-family:'宋体';-inkscape-font-specification:'宋体'">平直闵式时空时间系数</tspan>
            </text>
            <path d="M 60.02,229.773 V 8.742" style="fill:none;stroke:#000000;stroke-width:1;stroke-linecap:butt;stroke-linejoin:miter;stroke-miterlimit:3.25;stroke-dasharray:1, 4;stroke-dashoffset:0;stroke-opacity:1" id="path329" />
            <text xml:space="preserve" transform="translate(64.282754,197.75031)" style="font-style:italic;font-variant:normal;font-size:10px;font-family:Arial;-inkscape-font-specification:Arial-ItalicMT;writing-mode:lr-tb;fill:#000000;fill-opacity:1;fill-rule:nonzero;stroke:none" id="text333">
                <tspan x="0" y="0" id="tspan331">r</tspan>
            </text>
            <text xml:space="preserve" transform="translate(67.612832,200.0838)" style="font-style:italic;font-variant:normal;font-size:9px;font-family:Arial;-inkscape-font-specification:Arial-ItalicMT;writing-mode:lr-tb;fill:#000000;fill-opacity:1;fill-rule:nonzero;stroke:none" id="text337">
                <tspan x="0" y="0" id="tspan335">s</tspan>
            </text>
            <text xml:space="preserve" transform="translate(72.626016,197.75031)" style="font-variant:normal;font-weight:normal;font-size:10px;font-family:MathematicaSans;-inkscape-font-specification:MathematicaSans;writing-mode:lr-tb;fill:#000000;fill-opacity:1;fill-rule:nonzero;stroke:none" id="text341">
                <tspan x="0" y="0" id="tspan339">=</tspan>
            </text>
            <path d="m 82.766,194.668 h 24.922" style="fill:none;stroke:#000000;stroke-width:0.820312;stroke-linecap:square;stroke-linejoin:miter;stroke-miterlimit:10;stroke-dasharray:none;stroke-opacity:1" id="path343" />
            <text xml:space="preserve" style="font-variant:normal;font-weight:normal;font-size:10px;font-family:Arial;-inkscape-font-specification:ArialMT;writing-mode:lr-tb;fill:#000000;fill-opacity:1;fill-rule:nonzero;stroke:none" id="text347" x="82.854202" y="188.26326">
                <tspan x="82.854202" y="188.26326" id="tspan345">2</tspan>
            </text>
            <text xml:space="preserve" style="font-style:italic;font-variant:normal;font-size:10px;font-family:Arial;-inkscape-font-specification:Arial-ItalicMT;writing-mode:lr-tb;fill:#000000;fill-opacity:1;fill-rule:nonzero;stroke:none" id="text353" x="90.254204" y="188.26326">
                <tspan x="90.254204 99.864204" y="188.26326" id="tspan349">GM</tspan>
                <tspan x="90.419029" y="209.81573" id="tspan351">c</tspan>
            </text>
            <text xml:space="preserve" style="font-variant:normal;font-weight:normal;font-size:9px;font-family:Arial;-inkscape-font-specification:ArialMT;writing-mode:lr-tb;fill:#000000;fill-opacity:1;fill-rule:nonzero;stroke:none" id="text357" x="95.526451" y="205.6673">
                <tspan x="95.526451" y="205.6673" id="tspan355">2</tspan>
            </text>
            <path d="M 21.328,166.621 H 342.75" style="fill:none;stroke:#000000;stroke-width:0.8;stroke-linecap:butt;stroke-linejoin:miter;stroke-miterlimit:3.25;stroke-dasharray:none;stroke-opacity:1" id="path359" />
            <path d="m 341.52,163.109 0.195,0.399 0.426,0.961 0.226,0.574 0.199,0.582 0.137,0.539 0.047,0.457 -0.047,0.414 -0.137,0.531 -0.199,0.602 -0.226,0.613 -0.426,1.047 -0.195,0.445 13.339,-3.652 z" style="fill:#000000;fill-opacity:1;fill-rule:nonzero;stroke:#000000;stroke-width:0.8;stroke-linecap:square;stroke-linejoin:miter;stroke-miterlimit:3.25;stroke-dasharray:none;stroke-opacity:1" id="path361" />
        </g>
        <g id="g363">
            <g id="g365" clip-path="url(#clipPath369)">
                <text xml:space="preserve" transform="translate(362.85876,171.47461)" style="font-variant:normal;font-weight:normal;font-size:14px;font-family:Arial;-inkscape-font-specification:ArialMT;writing-mode:lr-tb;fill:#000000;fill-opacity:1;fill-rule:nonzero;stroke:none" id="text373">
                    <tspan x="0" y="0" id="tspan371">r</tspan>
                </text>
            </g>
        </g>
        <g id="g375">
            <path d="M 28,229.773 V 35.75" style="fill:none;stroke:#000000;stroke-width:0.8;stroke-linecap:butt;stroke-linejoin:miter;stroke-miterlimit:3.25;stroke-dasharray:none;stroke-opacity:1" id="path377" />
            <path d="m 24.488,36.98 0.399,-0.195 0.961,-0.426 0.574,-0.226 0.582,-0.199 0.539,-0.137 0.457,-0.047 0.414,0.047 0.531,0.137 0.602,0.199 0.613,0.226 1.047,0.426 0.445,0.195 L 28,23.641 Z" style="fill:#000000;fill-opacity:1;fill-rule:nonzero;stroke:#000000;stroke-width:0.8;stroke-linecap:square;stroke-linejoin:miter;stroke-miterlimit:3.25;stroke-dasharray:none;stroke-opacity:1" id="path379" />
            <text xml:space="preserve" transform="translate(0,13.673828)" style="font-variant:normal;font-weight:normal;font-size:14px;font-family:'Microsoft YaHei UI';-inkscape-font-specification:MicrosoftYaHeiUI;writing-mode:lr-tb;fill:#000000;fill-opacity:1;fill-rule:nonzero;stroke:none" id="text383">
                <tspan x="0 14 28 42" y="0" id="tspan381" style="font-style:normal;font-variant:normal;font-weight:normal;font-stretch:normal;font-family:'宋体';-inkscape-font-specification:'宋体'">时间系数</tspan>
            </text>
        </g>
    </g>
</svg>