<svg viewBox="0 0 595.28 340.16" xmlns="http://www.w3.org/2000/svg" xmlns:xlink="http://www.w3.org/1999/xlink" overflow="hidden">
    <path d="M87.81 17.97 87.81 287.97 571.56 287.97" stroke="#000000" stroke-width="1.5001" stroke-miterlimit="22.9256" fill="none" />
    <path d="M83.31 24.71 92.31 24.71 87.81 11.21Z" />
    <path d="M83.31 24.71 92.31 24.71 87.81 11.21Z" stroke="#000000" stroke-width="1.5001" stroke-miterlimit="22.9256" fill="none" />
    <path d="M564.81 283.47 564.81 292.47 578.31 287.96Z" />
    <path d="M564.81 283.47 564.81 292.47 578.31 287.96Z" stroke="#000000" stroke-width="1.5001" stroke-miterlimit="22.9256" fill="none" />
    <path d="M108.03 260.13C108.76 243.6 109.82 222.26 110.53 201.7 111.09 185.43 112.19 169.07 113.12 153.39 114.42 131.37 116.2 112.62 118.07 96.46 120.14 78.5 121.76 65.17 125.06 63.71 160.23 51.07 191 90.77 244.46 132.34 321.47 185.54 442.07 209.56 559.14 221.45" stroke="#000000" stroke-width="0.75" stroke-miterlimit="22.9256" stroke-dasharray="3.37 3.37" fill="none" /><text font-family="DejaVuSans" font-size="36" transform="translate(525.275 207.19)">A</text>
    <path d="M107.94 260.18C110.87 197.32 112.02 134.8 121.14 72.44 122.69 56.57 129.09 50.48 150.57 50.48 177.27 50.48 199.03 59.3 230.82 59.3 266 59.52 369.41 44.73 402.59 45.95 439.03 45.95 541.97 50.34 559.13 51.71" stroke="#171717" stroke-width="0.8249" stroke-miterlimit="22.9256" fill="none" /><text fill="#171717" font-family="DejaVuSans" font-size="36" transform="translate(530.916 40.1697)">B</text><text fill="#171717" font-family="SimSun" font-size="20" transform="translate(506.123 317.628)">距</text><text fill="#171717" font-family="SimSun" font-size="20" transform="translate(527.307 317.628)">离</text><text fill="#171717" font-family="SimSun" font-size="20" transform="translate(35.7485 53.9925)">速</text><text fill="#171717" font-family="SimSun" font-size="20" transform="translate(56.9321 53.9925)">度</text>
</svg>