<svg viewBox="0 0 324 203" xmlns="http://www.w3.org/2000/svg" xmlns:xlink="http://www.w3.org/1999/xlink" overflow="hidden">
    <g>
        <defs>
            <rect x="42" y="69" width="247" height="84" id="SVGID_1_" />
        </defs>
        <clipPath id="SVGID_00000154399870700778411520000016100600591699879321_">
            <use width="100%" height="100%" xlink:href="#SVGID_1_" overflow="visible"></use>
        </clipPath>
        <path d="M42.16 70.3 42.24 70.76 42.31 71.21 42.47 72.1 42.77 73.84 43.37 77.12 43.44 77.52 43.52 77.91 43.67 78.68 43.97 80.17 44.57 83 44.65 83.34 44.73 83.68 44.88 84.34 45.18 85.64 45.78 88.1 46.98 92.57 47.15 93.14 47.31 93.69 47.64 94.77 48.29 96.83 48.46 97.32 48.62 97.81 48.94 98.76 49.6 100.57 49.68 100.79 49.76 101.01 49.93 101.44 50.25 102.28 50.91 103.89 52.22 106.84 52.29 107 52.37 107.16 52.52 107.48 52.82 108.11 53.43 109.32 54.66 111.58 54.73 111.71 54.81 111.84 54.96 112.11 55.27 112.62 55.88 113.63 57.1 115.5 57.25 115.72 57.4 115.94 57.69 116.37 58.29 117.19 59.49 118.75 59.56 118.84 59.64 118.93 59.79 119.12 60.09 119.48 60.69 120.19 61.88 121.52 61.97 121.61 62.04 121.7 62.21 121.87 62.53 122.21 63.18 122.87 64.48 124.11 64.56 124.19 64.64 124.26 64.8 124.41 65.13 124.7 65.78 125.27 67.07 126.34 67.15 126.4 67.23 126.47 67.38 126.58 67.68 126.82 68.28 127.28 69.5 128.17 71.92 129.78 72.57 130.19 73.23 130.58 74.54 131.33 77.17 132.71 77.25 132.75 77.33 132.8 77.49 132.88 77.82 133.03 78.46 133.34 79.75 133.93 82.32 135.02 82.4 135.05 82.48 135.09 82.62 135.15 82.93 135.27 83.53 135.5 84.73 135.95 87.13 136.8 87.46 136.91 87.78 137.02 88.44 137.23 89.74 137.65 92.35 138.42 97.21 139.7 101.99 140.79 107.17 141.82 112 142.66 117.23 143.46 122.38 144.16 127.17 144.75 132.37 145.32 137.23 145.8 142.48 146.28 147.65 146.7 152.46 147.07 157.69 147.43 162.57 147.74 167.35 148.03 172.54 148.32 177.38 148.57 182.62 148.82 187.77 149.05 192.57 149.25 197.78 149.46 202.65 149.64 207.41 149.81 212.58 149.98 217.41 150.13 222.64 150.29 227.53 150.43 232.32 150.56 237.51 150.69 242.36 150.81 247.61 150.93 252.77 151.05 257.59 151.15 262.8 151.25 267.67 151.35 272.45 151.44 277.63 151.53 282.46 151.61 283.14 151.62 283.81 151.64 285.16 151.66 285.84 151.67 286.51 151.68 287.86 151.7" stroke="#000000" stroke-width="1.44" stroke-linecap="square" stroke-miterlimit="3.25" fill="none" clip-path="url(#SVGID_00000154399870700778411520000016100600591699879321_)" />
    </g>
    <line x1="42.16" y1="189.84" x2="42.16" y2="186.64" stroke="#000000" stroke-width="0.18" stroke-miterlimit="3.25" fill="none" /><text font-family="ArialMT" font-size="9" transform="translate(39.6602 200.69)">0</text>
    <line x1="54.45" y1="189.84" x2="54.45" y2="187.92" stroke="#000000" stroke-width="0.18" stroke-miterlimit="3.25" fill="none" />
    <line x1="66.73" y1="189.84" x2="66.73" y2="187.92" stroke="#000000" stroke-width="0.18" stroke-miterlimit="3.25" fill="none" />
    <line x1="79.02" y1="189.84" x2="79.02" y2="187.92" stroke="#000000" stroke-width="0.18" stroke-miterlimit="3.25" fill="none" />
    <line x1="91.31" y1="189.84" x2="91.31" y2="186.64" stroke="#000000" stroke-width="0.18" stroke-miterlimit="3.25" fill="none" /><text transform="translate(78.1646 200.69)">
        <tspan font-family="ArialMT" font-size="9" x="0" y="0">2</tspan>
        <tspan font-family="ArialMT" font-size="9" letter-spacing="1" x="5.01" y="0">0</tspan>
        <tspan font-family="ArialMT" font-size="9" x="11.25" y="0">000</tspan>
    </text>
    <line x1="103.59" y1="189.84" x2="103.59" y2="187.92" stroke="#000000" stroke-width="0.18" stroke-miterlimit="3.25" fill="none" />
    <line x1="115.87" y1="189.84" x2="115.87" y2="187.92" stroke="#000000" stroke-width="0.18" stroke-miterlimit="3.25" fill="none" />
    <line x1="128.16" y1="189.84" x2="128.16" y2="187.92" stroke="#000000" stroke-width="0.18" stroke-miterlimit="3.25" fill="none" />
    <line x1="140.44" y1="189.84" x2="140.44" y2="186.64" stroke="#000000" stroke-width="0.18" stroke-miterlimit="3.25" fill="none" /><text transform="translate(127.304 200.69)">
        <tspan font-family="ArialMT" font-size="9" x="0" y="0">4</tspan>
        <tspan font-family="ArialMT" font-size="9" letter-spacing="1" x="5.01" y="0">0</tspan>
        <tspan font-family="ArialMT" font-size="9" x="11.25" y="0">000</tspan>
    </text>
    <line x1="152.73" y1="189.84" x2="152.73" y2="187.92" stroke="#000000" stroke-width="0.18" stroke-miterlimit="3.25" fill="none" />
    <line x1="165.01" y1="189.84" x2="165.01" y2="187.92" stroke="#000000" stroke-width="0.18" stroke-miterlimit="3.25" fill="none" />
    <line x1="177.3" y1="189.84" x2="177.3" y2="187.92" stroke="#000000" stroke-width="0.18" stroke-miterlimit="3.25" fill="none" />
    <line x1="189.58" y1="189.84" x2="189.58" y2="186.64" stroke="#000000" stroke-width="0.18" stroke-miterlimit="3.25" fill="none" /><text transform="translate(176.444 200.69)">
        <tspan font-family="ArialMT" font-size="9" x="0" y="0">6</tspan>
        <tspan font-family="ArialMT" font-size="9" letter-spacing="1" x="5" y="0">0</tspan>
        <tspan font-family="ArialMT" font-size="9" x="11.25" y="0">000</tspan>
    </text>
    <line x1="201.87" y1="189.84" x2="201.87" y2="187.92" stroke="#000000" stroke-width="0.18" stroke-miterlimit="3.25" fill="none" />
    <line x1="214.15" y1="189.84" x2="214.15" y2="187.92" stroke="#000000" stroke-width="0.18" stroke-miterlimit="3.25" fill="none" />
    <line x1="226.44" y1="189.84" x2="226.44" y2="187.92" stroke="#000000" stroke-width="0.18" stroke-miterlimit="3.25" fill="none" />
    <line x1="238.72" y1="189.84" x2="238.72" y2="186.64" stroke="#000000" stroke-width="0.18" stroke-miterlimit="3.25" fill="none" /><text transform="translate(225.584 200.69)">
        <tspan font-family="ArialMT" font-size="9" x="0" y="0">8</tspan>
        <tspan font-family="ArialMT" font-size="9" letter-spacing="1" x="5.01" y="0">0</tspan>
        <tspan font-family="ArialMT" font-size="9" x="11.25" y="0">000</tspan>
    </text>
    <line x1="251.01" y1="189.84" x2="251.01" y2="187.92" stroke="#000000" stroke-width="0.18" stroke-miterlimit="3.25" fill="none" />
    <line x1="263.29" y1="189.84" x2="263.29" y2="187.92" stroke="#000000" stroke-width="0.18" stroke-miterlimit="3.25" fill="none" />
    <line x1="275.58" y1="189.84" x2="275.58" y2="187.92" stroke="#000000" stroke-width="0.18" stroke-miterlimit="3.25" fill="none" />
    <line x1="287.86" y1="189.84" x2="287.86" y2="186.64" stroke="#000000" stroke-width="0.18" stroke-miterlimit="3.25" fill="none" />
    <line x1="300.15" y1="189.84" x2="300.15" y2="187.92" stroke="#000000" stroke-width="0.18" stroke-miterlimit="3.25" fill="none" />
    <line x1="42.16" y1="189.84" x2="312.43" y2="189.84" stroke="#000000" stroke-width="0.18" stroke-miterlimit="3.25" fill="none" /><text font-family="ArialMT" font-size="12.6" transform="translate(319.632 194.21)">r</text>
    <line x1="42.16" y1="189.84" x2="45.36" y2="189.84" stroke="#000000" stroke-width="0.18" stroke-miterlimit="3.25" fill="none" /><text font-family="ArialMT" font-size="9" transform="translate(34.4575 192.962)">0</text>
    <line x1="42.16" y1="183.16" x2="44.08" y2="183.16" stroke="#000000" stroke-width="0.18" stroke-miterlimit="3.25" fill="none" />
    <line x1="42.16" y1="176.48" x2="44.08" y2="176.48" stroke="#000000" stroke-width="0.18" stroke-miterlimit="3.25" fill="none" />
    <line x1="42.16" y1="169.8" x2="44.08" y2="169.8" stroke="#000000" stroke-width="0.18" stroke-miterlimit="3.25" fill="none" />
    <line x1="42.16" y1="163.12" x2="44.08" y2="163.12" stroke="#000000" stroke-width="0.18" stroke-miterlimit="3.25" fill="none" />
    <line x1="42.16" y1="156.43" x2="45.36" y2="156.43" stroke="#000000" stroke-width="0.18" stroke-miterlimit="3.25" fill="none" /><text font-family="ArialMT" font-size="9" transform="translate(0.5005 161.081)">5.</text><text font-family="MathematicaSans" font-size="7" transform="translate(8.9966 161.081)">×</text><text font-family="ArialMT" font-size="9" transform="translate(15.2427 161.081)">10</text><text font-family="MathematicaSans" font-size="8.1" transform="translate(27.2729 156.881)">-</text><text font-family="ArialMT" font-size="8.1" transform="translate(29.9951 156.881)">10</text>
    <line x1="42.16" y1="149.75" x2="44.08" y2="149.75" stroke="#000000" stroke-width="0.18" stroke-miterlimit="3.25" fill="none" />
    <line x1="42.16" y1="143.07" x2="44.08" y2="143.07" stroke="#000000" stroke-width="0.18" stroke-miterlimit="3.25" fill="none" />
    <line x1="42.16" y1="136.39" x2="44.08" y2="136.39" stroke="#000000" stroke-width="0.18" stroke-miterlimit="3.25" fill="none" />
    <line x1="42.16" y1="129.71" x2="44.08" y2="129.71" stroke="#000000" stroke-width="0.18" stroke-miterlimit="3.25" fill="none" />
    <line x1="42.16" y1="123.03" x2="45.36" y2="123.03" stroke="#000000" stroke-width="0.18" stroke-miterlimit="3.25" fill="none" /><text font-family="ArialMT" font-size="9" transform="translate(5.0054 127.674)">1.</text><text font-family="MathematicaSans" font-size="7" transform="translate(13.5015 127.674)">×</text><text font-family="ArialMT" font-size="9" transform="translate(19.7476 127.674)">10</text><text font-family="MathematicaSans" font-size="8.1" transform="translate(30.7778 123.474)">-</text><text font-family="ArialMT" font-size="8.1" transform="translate(34.5 123.474)">9</text>
    <line x1="42.16" y1="116.35" x2="44.08" y2="116.35" stroke="#000000" stroke-width="0.18" stroke-miterlimit="3.25" fill="none" />
    <line x1="42.16" y1="109.66" x2="44.08" y2="109.66" stroke="#000000" stroke-width="0.18" stroke-miterlimit="3.25" fill="none" />
    <line x1="42.16" y1="102.98" x2="44.08" y2="102.98" stroke="#000000" stroke-width="0.18" stroke-miterlimit="3.25" fill="none" />
    <line x1="42.16" y1="96.3" x2="44.08" y2="96.3" stroke="#000000" stroke-width="0.18" stroke-miterlimit="3.25" fill="none" />
    <line x1="42.16" y1="89.62" x2="45.36" y2="89.62" stroke="#000000" stroke-width="0.18" stroke-miterlimit="3.25" fill="none" /><text font-family="ArialMT" font-size="9" transform="matrix(1 0 0 1 0 94.2671)">1.5</text><text font-family="MathematicaSans" font-size="7" transform="translate(13.5 94.2671)">×</text><text font-family="ArialMT" font-size="9" transform="translate(19.7461 94.2671)">10</text><text font-family="MathematicaSans" font-size="8.1" transform="translate(30.7778 90.0669)">-</text><text font-family="ArialMT" font-size="8.1" transform="translate(34.5 90.0669)">9</text>
    <line x1="42.16" y1="82.94" x2="44.08" y2="82.94" stroke="#000000" stroke-width="0.18" stroke-miterlimit="3.25" fill="none" />
    <line x1="42.16" y1="76.26" x2="44.08" y2="76.26" stroke="#000000" stroke-width="0.18" stroke-miterlimit="3.25" fill="none" />
    <line x1="42.16" y1="69.58" x2="44.08" y2="69.58" stroke="#000000" stroke-width="0.18" stroke-miterlimit="3.25" fill="none" />
    <line x1="42.16" y1="62.9" x2="44.08" y2="62.9" stroke="#000000" stroke-width="0.18" stroke-miterlimit="3.25" fill="none" />
    <line x1="42.16" y1="56.21" x2="45.36" y2="56.21" stroke="#000000" stroke-width="0.18" stroke-miterlimit="3.25" fill="none" /><text font-family="ArialMT" font-size="9" transform="translate(5.0054 60.8604)">2.</text><text font-family="MathematicaSans" font-size="7" transform="translate(13.5015 60.8604)">×</text><text font-family="ArialMT" font-size="9" transform="translate(19.7476 60.8604)">10</text><text font-family="MathematicaSans" font-size="8.1" transform="translate(30.7778 56.6597)">-</text><text font-family="ArialMT" font-size="8.1" transform="translate(34.5 56.6597)">9</text>
    <line x1="42.16" y1="49.53" x2="44.08" y2="49.53" stroke="#000000" stroke-width="0.18" stroke-miterlimit="3.25" fill="none" />
    <line x1="42.16" y1="42.85" x2="44.08" y2="42.85" stroke="#000000" stroke-width="0.18" stroke-miterlimit="3.25" fill="none" />
    <line x1="42.16" y1="36.17" x2="44.08" y2="36.17" stroke="#000000" stroke-width="0.18" stroke-miterlimit="3.25" fill="none" />
    <line x1="42.16" y1="29.49" x2="44.08" y2="29.49" stroke="#000000" stroke-width="0.18" stroke-miterlimit="3.25" fill="none" />
    <line x1="42.16" y1="189.84" x2="42.16" y2="22.8" stroke="#000000" stroke-width="0.18" stroke-miterlimit="3.25" fill="none" /><text font-family="MathematicaSans" font-size="12.6" transform="translate(35.7803 8.4062)">ρ</text><text font-family="ArialMT" font-size="8.946" transform="translate(45.1201 11.7261)">d</text>
    <path d="M39.28 27.53 39.61 27.37 40.4 27.02 40.88 26.83 41.35 26.67 41.8 26.56 42.18 26.52 42.52 26.56 42.96 26.67 43.45 26.83 43.96 27.02 44.82 27.37 45.19 27.53 42.18 16.53Z" stroke="#000000" stroke-width="0.36" stroke-linecap="square" stroke-miterlimit="3.25" />
    <path d="M303.82 186.81 303.98 187.14 304.33 187.93 304.52 188.41 304.68 188.89 304.79 189.33 304.83 189.71 304.79 190.05 304.68 190.49 304.52 190.98 304.33 191.49 303.98 192.35 303.82 192.72 314.82 189.71Z" stroke="#000000" stroke-width="0.36" stroke-linecap="square" stroke-miterlimit="3.25" />
</svg>