<?xml version="1.0" encoding="UTF-8"?>
<svg xmlns="http://www.w3.org/2000/svg" xmlns:xlink="http://www.w3.org/1999/xlink" width="165pt" height="165pt" viewBox="0 0 165 165" version="1.1">
    <defs>
        <clipPath id="clip1">
            <path d="M 0 0 L 165 0 L 165 164.640625 L 0 164.640625 Z M 0 0 " />
        </clipPath>
    </defs>
    <g id="surface13">
        <g clip-path="url(#clip1)" clip-rule="nonzero">
            <path style="fill:none;stroke-width:1.1;stroke-linecap:square;stroke-linejoin:miter;stroke:rgb(0%,0%,0%);stroke-opacity:1;stroke-miterlimit:3.25;" d="M 234.299219 87.867188 C 234.299219 66.863281 225.955469 46.71875 211.103906 31.863281 C 196.248438 17.011719 176.103906 8.667969 155.1 8.667969 C 134.096094 8.667969 113.951563 17.011719 99.096094 31.863281 C 84.244531 46.71875 75.900781 66.863281 75.900781 87.867188 C 75.900781 108.875 84.244531 129.019531 99.096094 143.871094 C 113.951563 158.722656 134.096094 167.066406 155.1 167.066406 C 176.103906 167.066406 196.248438 158.722656 211.103906 143.871094 C 225.955469 129.019531 234.299219 108.875 234.299219 87.867188 Z M 234.299219 87.867188 " transform="matrix(1,0,0,1,-72.6,-5.5)" />
        </g>
        <path style="fill:none;stroke-width:1.1;stroke-linecap:square;stroke-linejoin:miter;stroke:rgb(0%,0%,0%);stroke-opacity:1;stroke-miterlimit:3.25;" d="M 155.1 87.867188 L 155.1 167.066406 " transform="matrix(1,0,0,1,-72.6,-5.5)" />
    </g>
</svg>