<?xml version="1.0" encoding="UTF-8" standalone="no"?>
<svg width="491pt" height="441pt" viewBox="0 0 491 441" version="1.1" id="svg605" xmlns:xlink="http://www.w3.org/1999/xlink" xmlns="http://www.w3.org/2000/svg" xmlns:svg="http://www.w3.org/2000/svg" xmlns:rdf="http://www.w3.org/1999/02/22-rdf-syntax-ns#" xmlns:cc="http://creativecommons.org/ns#" xmlns:dc="http://purl.org/dc/elements/1.1/">
    <metadata id="metadata2">
        <rdf:RDF>
            <cc:Work>
                <dc:type rdf:resource="http://purl.org/dc/dcmitype/StillImage" />
                <dc:date>2023-05-04T12:20:29.106237</dc:date>
                <dc:format>image/svg+xml</dc:format>
                <dc:creator>
                    <cc:Agent>
                        <dc:title>Matplotlib v3.5.2, https://matplotlib.org/</dc:title>
                    </cc:Agent>
                </dc:creator>
            </cc:Work>
        </rdf:RDF>
    </metadata>
    <defs id="defs6">
        <style type="text/css" id="style4">
            * {
                stroke-linejoin: round;
                stroke-linecap: butt
            }
        </style>
    </defs>
    <g id="figure_1">
        <g id="pane3d_1" transform="translate(-109.40425,-156.21258)">
            <g id="patch_3">
                <path d="m 286.80642,465.04815 288.3873,22.48978 3.71433,-308.72522 -293.71569,-12.10055" style="opacity:0.5;fill:#f2f2f2;stroke:#f2f2f2;stroke-linejoin:miter" id="path14" />
            </g>
        </g>
        <g id="pane3d_2" transform="translate(-109.40425,-156.21258)">
            <g id="patch_4">
                <path d="m 286.80642,465.04815 -122.48645,65.88516 -4.2282,-328.72793 125.10059,-35.49322" style="opacity:0.5;fill:#e6e6e6;stroke:#e6e6e6;stroke-linejoin:miter" id="path18" />
            </g>
        </g>
        <g id="pane3d_3" transform="translate(-109.40425,-156.21258)">
            <g id="patch_5">
                <path d="m 286.80642,465.04815 -122.48645,65.88516 314.79272,27.52272 96.08103,-70.9181" style="opacity:0.5;fill:#ececec;stroke:#ececec;stroke-linejoin:miter" id="path22" />
            </g>
        </g>
        <g id="axis3d_1" transform="translate(-109.40425,-156.21258)">
            <g id="line2d_1">
                <path d="m 575.19372,487.53793 -96.08103,70.9181" style="fill:none;stroke:#000000;stroke-width:0.8;stroke-linecap:square" id="path26" />
            </g>
            <g id="text_1">
                <!-- x -->
                <g transform="matrix(0.16,0,0,-0.16,552.24349,555.99034)" id="g34">
                    <defs id="defs30">
                        <path id="DejaVuSans-78" d="M 3513,3500 2247,1797 3578,0 H 2900 L 1881,1375 863,0 H 184 L 1544,1831 300,3500 h 678 l 928,-1247 928,1247 z" transform="scale(0.015625)" />
                    </defs>
                    <use xlink:href="#DejaVuSans-78" id="use32" />
                </g>
            </g>
            <g id="xtick_1">
                <g id="line2d_2">
                    <path d="m 565.04116,493.06538 7.22545,0.56892" style="fill:none;stroke:#000000;stroke-width:0.8;stroke-linecap:square" id="path37" />
                </g>
                <g id="text_2">
                    <!-- −0.6 -->
                    <g transform="matrix(0.1,0,0,-0.1,567.39681,514.23844)" id="g54">
                        <defs id="defs44">
                            <path id="DejaVuSans-2212" d="M 678,2272 H 4684 V 1741 H 678 Z" transform="scale(0.015625)" />
                            <path id="DejaVuSans-30" d="m 2034,4250 q -487,0 -733,-480 -245,-479 -245,-1442 0,-959 245,-1439 246,-480 733,-480 491,0 736,480 246,480 246,1439 0,963 -246,1442 -245,480 -736,480 z m 0,500 q 785,0 1199,-621 414,-620 414,-1801 0,-1178 -414,-1799 -414,-620 -1199,-620 -784,0 -1198,620 -414,621 -414,1799 0,1181 414,1801 414,621 1198,621 z" transform="scale(0.015625)" />
                            <path id="DejaVuSans-2e" d="m 684,794 h 660 V 0 H 684 Z" transform="scale(0.015625)" />
                            <path id="DejaVuSans-36" d="m 2113,2584 q -425,0 -674,-291 -248,-290 -248,-796 0,-503 248,-796 249,-292 674,-292 425,0 673,292 248,293 248,796 0,506 -248,796 -248,291 -673,291 z m 1253,1979 v -575 q -238,112 -480,171 -242,60 -480,60 -625,0 -955,-422 -329,-422 -376,-1275 184,272 462,417 279,145 613,145 703,0 1111,-427 408,-426 408,-1160 0,-719 -425,-1154 -425,-434 -1131,-434 -810,0 -1238,620 -428,621 -428,1799 0,1106 525,1764 525,658 1409,658 238,0 480,-47 242,-47 505,-140 z" transform="scale(0.015625)" />
                        </defs>
                        <use xlink:href="#DejaVuSans-2212" id="use46" />
                        <use xlink:href="#DejaVuSans-30" x="83.789062" id="use48" />
                        <use xlink:href="#DejaVuSans-2e" x="147.41211" id="use50" />
                        <use xlink:href="#DejaVuSans-36" x="179.19922" id="use52" />
                    </g>
                </g>
            </g>
            <g id="xtick_2">
                <g id="line2d_3">
                    <path d="m 552.74828,502.1119 7.31379,0.58462" style="fill:none;stroke:#000000;stroke-width:0.8;stroke-linecap:square" id="path58" />
                </g>
                <g id="text_3">
                    <!-- −0.4 -->
                    <g transform="matrix(0.1,0,0,-0.1,555.29036,523.48024)" id="g72">
                        <defs id="defs62">
                            <path id="DejaVuSans-34" d="M 2419,4116 825,1625 h 1594 z m -166,550 h 794 V 1625 h 666 V 1100 H 3047 V 0 H 2419 V 1100 H 313 v 609 z" transform="scale(0.015625)" />
                        </defs>
                        <use xlink:href="#DejaVuSans-2212" id="use64" />
                        <use xlink:href="#DejaVuSans-30" x="83.789062" id="use66" />
                        <use xlink:href="#DejaVuSans-2e" x="147.41211" id="use68" />
                        <use xlink:href="#DejaVuSans-34" x="179.19922" id="use70" />
                    </g>
                </g>
            </g>
            <g id="xtick_3">
                <g id="line2d_4">
                    <path d="m 540.11389,511.40975 7.40429,0.60098" style="fill:none;stroke:#000000;stroke-width:0.8;stroke-linecap:square" id="path76" />
                </g>
                <g id="text_4">
                    <!-- −0.2 -->
                    <g transform="matrix(0.1,0,0,-0.1,542.84724,532.97905)" id="g90">
                        <defs id="defs80">
                            <path id="DejaVuSans-32" d="M 1228,531 H 3431 V 0 H 469 v 531 q 359,372 979,998 621,627 780,809 303,340 423,576 121,236 121,464 0,372 -261,606 -261,235 -680,235 -297,0 -627,-103 -329,-103 -704,-313 v 638 q 381,153 712,231 332,78 607,78 725,0 1156,-363 431,-362 431,-968 0,-288 -108,-546 -107,-257 -392,-607 -78,-91 -497,-524 Q 1991,1309 1228,531 Z" transform="scale(0.015625)" />
                        </defs>
                        <use xlink:href="#DejaVuSans-2212" id="use82" />
                        <use xlink:href="#DejaVuSans-30" x="83.789062" id="use84" />
                        <use xlink:href="#DejaVuSans-2e" x="147.41211" id="use86" />
                        <use xlink:href="#DejaVuSans-32" x="179.19922" id="use88" />
                    </g>
                </g>
            </g>
            <g id="xtick_4">
                <g id="line2d_5">
                    <path d="m 527.12357,520.96953 7.49701,0.61804" style="fill:none;stroke:#000000;stroke-width:0.8;stroke-linecap:square" id="path94" />
                </g>
                <g id="text_5">
                    <!-- 0.0 -->
                    <g transform="matrix(0.1,0,0,-0.1,534.24305,542.74573)" id="g103">
                        <use xlink:href="#DejaVuSans-30" id="use97" />
                        <use xlink:href="#DejaVuSans-2e" x="63.623047" id="use99" />
                        <use xlink:href="#DejaVuSans-30" x="95.410156" id="use101" />
                    </g>
                </g>
            </g>
            <g id="xtick_5">
                <g id="line2d_6">
                    <path d="m 513.76206,530.80248 7.59205,0.63584" style="fill:none;stroke:#000000;stroke-width:0.8;stroke-linecap:square" id="path107" />
                </g>
                <g id="text_6">
                    <!-- 0.2 -->
                    <g transform="matrix(0.1,0,0,-0.1,521.08305,552.79179)" id="g116">
                        <use xlink:href="#DejaVuSans-30" id="use110" />
                        <use xlink:href="#DejaVuSans-2e" x="63.623047" id="use112" />
                        <use xlink:href="#DejaVuSans-32" x="95.410156" id="use114" />
                    </g>
                </g>
            </g>
            <g id="xtick_6">
                <g id="line2d_7">
                    <path d="m 500.01321,540.92048 7.68949,0.65441" style="fill:none;stroke:#000000;stroke-width:0.8;stroke-linecap:square" id="path120" />
                </g>
                <g id="text_7">
                    <!-- 0.4 -->
                    <g transform="matrix(0.1,0,0,-0.1,507.54115,563.12938)" id="g129">
                        <use xlink:href="#DejaVuSans-30" id="use123" />
                        <use xlink:href="#DejaVuSans-2e" x="63.623047" id="use125" />
                        <use xlink:href="#DejaVuSans-34" x="95.410156" id="use127" />
                    </g>
                </g>
            </g>
            <g id="xtick_7">
                <g id="line2d_8">
                    <path d="m 485.85994,551.3361 7.78942,0.67381" style="fill:none;stroke:#000000;stroke-width:0.8;stroke-linecap:square" id="path133" />
                </g>
                <g id="text_8">
                    <!-- 0.6 -->
                    <g transform="matrix(0.1,0,0,-0.1,493.60048,573.77138)" id="g142">
                        <use xlink:href="#DejaVuSans-30" id="use136" />
                        <use xlink:href="#DejaVuSans-2e" x="63.623047" id="use138" />
                        <use xlink:href="#DejaVuSans-36" x="95.410156" id="use140" />
                    </g>
                </g>
            </g>
        </g>
        <g id="axis3d_2" transform="translate(-109.40425,-156.21258)">
            <g id="line2d_9">
                <path d="m 164.31997,530.93331 314.79272,27.52272" style="fill:none;stroke:#000000;stroke-width:0.8;stroke-linecap:square" id="path147" />
            </g>
            <g id="text_9">
                <!-- y -->
                <g transform="matrix(0.16,0,0,-0.16,303.23319,584.7776)" id="g155">
                    <defs id="defs151">
                        <path id="DejaVuSans-79" d="m 2059,-325 q -243,-625 -475,-815 -231,-191 -618,-191 H 506 v 481 h 338 q 237,0 368,113 132,112 291,531 L 1606,56 191,3500 H 800 L 1894,763 2988,3500 h 609 z" transform="scale(0.015625)" />
                    </defs>
                    <use xlink:href="#DejaVuSans-79" id="use153" />
                </g>
            </g>
            <g id="xtick_8">
                <g id="line2d_10">
                    <path d="m 192.29685,532.70105 -3.19206,1.75927" style="fill:none;stroke:#000000;stroke-width:0.8;stroke-linecap:square" id="path158" />
                </g>
                <g id="text_10">
                    <!-- −0.6 -->
                    <g transform="matrix(0.1,0,0,-0.1,173.82475,557.04911)" id="g169">
                        <use xlink:href="#DejaVuSans-2212" id="use161" />
                        <use xlink:href="#DejaVuSans-30" x="83.789062" id="use163" />
                        <use xlink:href="#DejaVuSans-2e" x="147.41211" id="use165" />
                        <use xlink:href="#DejaVuSans-36" x="179.19922" id="use167" />
                    </g>
                </g>
            </g>
            <g id="xtick_9">
                <g id="line2d_11">
                    <path d="m 234.30121,536.36999 -3.10271,1.77778" style="fill:none;stroke:#000000;stroke-width:0.8;stroke-linecap:square" id="path173" />
                </g>
                <g id="text_11">
                    <!-- −0.4 -->
                    <g transform="matrix(0.1,0,0,-0.1,215.97739,560.82209)" id="g184">
                        <use xlink:href="#DejaVuSans-2212" id="use176" />
                        <use xlink:href="#DejaVuSans-30" x="83.789062" id="use178" />
                        <use xlink:href="#DejaVuSans-2e" x="147.41211" id="use180" />
                        <use xlink:href="#DejaVuSans-34" x="179.19922" id="use182" />
                    </g>
                </g>
            </g>
            <g id="xtick_10">
                <g id="line2d_12">
                    <path d="m 276.74824,540.07759 -3.01129,1.79659" style="fill:none;stroke:#000000;stroke-width:0.8;stroke-linecap:square" id="path188" />
                </g>
                <g id="text_12">
                    <!-- −0.2 -->
                    <g transform="matrix(0.1,0,0,-0.1,258.57619,564.63499)" id="g199">
                        <use xlink:href="#DejaVuSans-2212" id="use191" />
                        <use xlink:href="#DejaVuSans-30" x="83.789062" id="use193" />
                        <use xlink:href="#DejaVuSans-2e" x="147.41211" id="use195" />
                        <use xlink:href="#DejaVuSans-32" x="179.19922" id="use197" />
                    </g>
                </g>
            </g>
            <g id="xtick_11">
                <g id="line2d_13">
                    <path d="m 319.64496,543.82447 -2.91775,1.8157" style="fill:none;stroke:#000000;stroke-width:0.8;stroke-linecap:square" id="path203" />
                </g>
                <g id="text_13">
                    <!-- 0.0 -->
                    <g transform="matrix(0.1,0,0,-0.1,305.81811,568.48848)" id="g212">
                        <use xlink:href="#DejaVuSans-30" id="use206" />
                        <use xlink:href="#DejaVuSans-2e" x="63.623047" id="use208" />
                        <use xlink:href="#DejaVuSans-30" x="95.410156" id="use210" />
                    </g>
                </g>
            </g>
            <g id="xtick_12">
                <g id="line2d_14">
                    <path d="m 362.99856,547.61126 -2.82204,1.83512" style="fill:none;stroke:#000000;stroke-width:0.8;stroke-linecap:square" id="path216" />
                </g>
                <g id="text_14">
                    <!-- 0.2 -->
                    <g transform="matrix(0.1,0,0,-0.1,349.33074,572.38318)" id="g225">
                        <use xlink:href="#DejaVuSans-30" id="use219" />
                        <use xlink:href="#DejaVuSans-2e" x="63.623047" id="use221" />
                        <use xlink:href="#DejaVuSans-32" x="95.410156" id="use223" />
                    </g>
                </g>
            </g>
            <g id="xtick_13">
                <g id="line2d_15">
                    <path d="m 406.81638,551.4386 -2.7241,1.85484" style="fill:none;stroke:#000000;stroke-width:0.8;stroke-linecap:square" id="path229" />
                </g>
                <g id="text_15">
                    <!-- 0.4 -->
                    <g transform="matrix(0.1,0,0,-0.1,393.31135,576.31977)" id="g238">
                        <use xlink:href="#DejaVuSans-30" id="use232" />
                        <use xlink:href="#DejaVuSans-2e" x="63.623047" id="use234" />
                        <use xlink:href="#DejaVuSans-34" x="95.410156" id="use236" />
                    </g>
                </g>
            </g>
            <g id="xtick_14">
                <g id="line2d_16">
                    <path d="m 451.10591,555.30714 -2.62387,1.87489" style="fill:none;stroke:#000000;stroke-width:0.8;stroke-linecap:square" id="path242" />
                </g>
                <g id="text_16">
                    <!-- 0.6 -->
                    <g transform="matrix(0.1,0,0,-0.1,437.76752,580.29893)" id="g251">
                        <use xlink:href="#DejaVuSans-30" id="use245" />
                        <use xlink:href="#DejaVuSans-2e" x="63.623047" id="use247" />
                        <use xlink:href="#DejaVuSans-36" x="95.410156" id="use249" />
                    </g>
                </g>
            </g>
        </g>
        <g id="axis3d_3" transform="translate(-109.40425,-156.21258)">
            <g id="line2d_17">
                <path d="m 164.31997,530.93331 -4.2282,-328.72793" style="fill:none;stroke:#000000;stroke-width:0.8;stroke-linecap:square" id="path256" />
            </g>
            <g id="text_17">
                <!-- z -->
                <g transform="matrix(0.16,0,0,-0.16,118.71676,375.7902)" id="g264">
                    <defs id="defs260">
                        <path id="DejaVuSans-7a" d="M 353,3500 H 3084 V 2975 L 922,459 H 3084 V 0 H 275 V 525 L 2438,3041 H 353 Z" transform="scale(0.015625)" />
                    </defs>
                    <use xlink:href="#DejaVuSans-7a" id="use262" />
                </g>
            </g>
            <g id="xtick_15">
                <g id="line2d_18">
                    <path d="m 165.03543,501.7785 -3.25525,1.6788" style="fill:none;stroke:#000000;stroke-width:0.8;stroke-linecap:square" id="path267" />
                </g>
                <g id="text_18">
                    <!-- −0.6 -->
                    <g transform="matrix(0.1,0,0,-0.1,133.93576,511.74608)" id="g278">
                        <use xlink:href="#DejaVuSans-2212" id="use270" />
                        <use xlink:href="#DejaVuSans-30" x="83.789062" id="use272" />
                        <use xlink:href="#DejaVuSans-2e" x="147.41211" id="use274" />
                        <use xlink:href="#DejaVuSans-36" x="179.19922" id="use276" />
                    </g>
                </g>
            </g>
            <g id="xtick_16">
                <g id="line2d_19">
                    <path d="m 164.46678,457.34002 -3.26547,1.57152" style="fill:none;stroke:#000000;stroke-width:0.8;stroke-linecap:square" id="path282" />
                </g>
                <g id="text_19">
                    <!-- −0.4 -->
                    <g transform="matrix(0.1,0,0,-0.1,133.31389,467.15622)" id="g293">
                        <use xlink:href="#DejaVuSans-2212" id="use285" />
                        <use xlink:href="#DejaVuSans-30" x="83.789062" id="use287" />
                        <use xlink:href="#DejaVuSans-2e" x="147.41211" id="use289" />
                        <use xlink:href="#DejaVuSans-34" x="179.19922" id="use291" />
                    </g>
                </g>
            </g>
            <g id="xtick_17">
                <g id="line2d_20">
                    <path d="m 163.89507,412.66172 -3.27575,1.46306" style="fill:none;stroke:#000000;stroke-width:0.8;stroke-linecap:square" id="path297" />
                </g>
                <g id="text_20">
                    <!-- −0.2 -->
                    <g transform="matrix(0.1,0,0,-0.1,132.68866,422.32486)" id="g308">
                        <use xlink:href="#DejaVuSans-2212" id="use300" />
                        <use xlink:href="#DejaVuSans-30" x="83.789062" id="use302" />
                        <use xlink:href="#DejaVuSans-2e" x="147.41211" id="use304" />
                        <use xlink:href="#DejaVuSans-32" x="179.19922" id="use306" />
                    </g>
                </g>
            </g>
            <g id="xtick_18">
                <g id="line2d_21">
                    <path d="m 163.32026,367.74166 -3.28609,1.35339" style="fill:none;stroke:#000000;stroke-width:0.8;stroke-linecap:square" id="path312" />
                </g>
                <g id="text_21">
                    <!-- 0.0 -->
                    <g transform="matrix(0.1,0,0,-0.1,136.24988,377.25004)" id="g321">
                        <use xlink:href="#DejaVuSans-30" id="use315" />
                        <use xlink:href="#DejaVuSans-2e" x="63.623047" id="use317" />
                        <use xlink:href="#DejaVuSans-30" x="95.410156" id="use319" />
                    </g>
                </g>
            </g>
            <g id="xtick_19">
                <g id="line2d_22">
                    <path d="m 162.74233,322.57787 -3.29649,1.24251" style="fill:none;stroke:#000000;stroke-width:0.8;stroke-linecap:square" id="path325" />
                </g>
                <g id="text_22">
                    <!-- 0.2 -->
                    <g transform="matrix(0.1,0,0,-0.1,135.61782,331.92977)" id="g334">
                        <use xlink:href="#DejaVuSans-30" id="use328" />
                        <use xlink:href="#DejaVuSans-2e" x="63.623047" id="use330" />
                        <use xlink:href="#DejaVuSans-32" x="95.410156" id="use332" />
                    </g>
                </g>
            </g>
            <g id="xtick_20">
                <g id="line2d_23">
                    <path d="m 162.16126,277.16835 -3.30696,1.13041" style="fill:none;stroke:#000000;stroke-width:0.8;stroke-linecap:square" id="path338" />
                </g>
                <g id="text_23">
                    <!-- 0.4 -->
                    <g transform="matrix(0.1,0,0,-0.1,134.98232,286.36205)" id="g347">
                        <use xlink:href="#DejaVuSans-30" id="use341" />
                        <use xlink:href="#DejaVuSans-2e" x="63.623047" id="use343" />
                        <use xlink:href="#DejaVuSans-34" x="95.410156" id="use345" />
                    </g>
                </g>
            </g>
            <g id="xtick_21">
                <g id="line2d_24">
                    <path d="m 161.57702,231.51111 -3.31749,1.01704" style="fill:none;stroke:#000000;stroke-width:0.8;stroke-linecap:square" id="path351" />
                </g>
                <g id="text_24">
                    <!-- 0.6 -->
                    <g transform="matrix(0.1,0,0,-0.1,134.34334,240.54484)" id="g360">
                        <use xlink:href="#DejaVuSans-30" id="use354" />
                        <use xlink:href="#DejaVuSans-2e" x="63.623047" id="use356" />
                        <use xlink:href="#DejaVuSans-36" x="95.410156" id="use358" />
                    </g>
                </g>
            </g>
        </g>
        <g id="axes_1" transform="translate(-109.40425,-156.21258)">
            <g id="line2d_25">
                <path d="M 476.70428,222.86221 169.10476,208.40072" clip-path="url(#p0fc56e4401)" style="fill:none;stroke:#000000;stroke-width:0.5;stroke-linecap:square" id="path365" />
            </g>
            <g id="line2d_26">
                <path d="M 169.10476,208.40072 288.64028,173.6774" clip-path="url(#p0fc56e4401)" style="fill:none;stroke:#000000;stroke-width:0.5;stroke-linecap:square" id="path368" />
            </g>
            <g id="line2d_27">
                <path d="m 288.64028,173.6774 282.33904,11.86939" clip-path="url(#p0fc56e4401)" style="fill:none;stroke:#000000;stroke-width:0.5;stroke-linecap:square" id="path371" />
            </g>
            <g id="line2d_28">
                <path d="m 570.97932,185.54679 -94.27504,37.31542" clip-path="url(#p0fc56e4401)" style="fill:none;stroke:#000000;stroke-width:0.5;stroke-linecap:square" id="path374" />
            </g>
            <g id="line2d_29">
                <path d="M 474.75128,549.64542 172.99103,523.56875" clip-path="url(#p0fc56e4401)" style="fill:none;stroke:#000000;stroke-width:0.5;stroke-linecap:square" id="path377" />
            </g>
            <g id="line2d_30">
                <path d="M 172.99103,523.56875 290.13554,460.80236" clip-path="url(#p0fc56e4401)" style="fill:none;stroke:#000000;stroke-width:0.5;stroke-linecap:square" id="path380" />
            </g>
            <g id="line2d_31">
                <path d="m 290.13554,460.80236 277.41207,21.47979" clip-path="url(#p0fc56e4401)" style="fill:none;stroke:#000000;stroke-width:0.5;stroke-linecap:square" id="path383" />
            </g>
            <g id="line2d_32">
                <path d="m 567.54761,482.28215 -92.79633,67.36327" clip-path="url(#p0fc56e4401)" style="fill:none;stroke:#000000;stroke-width:0.5;stroke-linecap:square" id="path386" />
            </g>
            <g id="line2d_33">
                <path d="m 476.70428,222.86221 -1.953,326.78321" clip-path="url(#p0fc56e4401)" style="fill:none;stroke:#000000;stroke-width:0.5;stroke-linecap:square" id="path389" />
            </g>
            <g id="line2d_34">
                <path d="m 169.10476,208.40072 3.88627,315.16803" clip-path="url(#p0fc56e4401)" style="fill:none;stroke:#000000;stroke-width:0.5;stroke-linecap:square" id="path392" />
            </g>
            <g id="line2d_35">
                <path d="m 288.64028,173.6774 1.49526,287.12496" clip-path="url(#p0fc56e4401)" style="fill:none;stroke:#000000;stroke-width:0.5;stroke-linecap:square" id="path395" />
            </g>
            <g id="line2d_36">
                <path d="m 570.97932,185.54679 -3.43171,296.73536" clip-path="url(#p0fc56e4401)" style="fill:none;stroke:#000000;stroke-width:0.5;stroke-linecap:square" id="path398" />
            </g>
            <g id="Path3DCollection_1">
                <defs id="defs402">
                    <path id="C0_0_c2d17011a8" d="m 0,2.236068 c 0.593012,0 1.161816,-0.235606 1.581139,-0.654929 C 2.000462,1.161816 2.236068,0.593012 2.236068,0 c 0,-0.593012 -0.235606,-1.161816 -0.654929,-1.581139 C 1.161816,-2.000462 0.593012,-2.236068 0,-2.236068 c -0.593012,0 -1.161816,0.235606 -1.581139,0.654929 C -2.000462,-1.161816 -2.236068,-0.593012 -2.236068,0 c 0,0.593012 0.235606,1.161816 0.654929,1.581139 C -1.161816,2.000462 -0.593012,2.236068 0,2.236068 Z" />
                </defs>
                <g clip-path="url(#p0fc56e4401)" id="g406">
                    <use xlink:href="#C0_0_c2d17011a8" x="313.50146" y="431.00269" style="fill-opacity:0.3;stroke:#000000;stroke-opacity:0.3" id="use404" />
                </g>
                <g clip-path="url(#p0fc56e4401)" id="g410">
                    <use xlink:href="#C0_0_c2d17011a8" x="312.7106" y="222.30252" style="fill-opacity:0.37691;stroke:#000000;stroke-opacity:0.37691" id="use408" />
                </g>
                <g clip-path="url(#p0fc56e4401)" id="g414">
                    <use xlink:href="#C0_0_c2d17011a8" x="514.44543" y="445.78082" style="fill-opacity:0.450968;stroke:#000000;stroke-opacity:0.450968" id="use412" />
                </g>
                <g clip-path="url(#p0fc56e4401)" id="g418">
                    <use xlink:href="#C0_0_c2d17011a8" x="516.22681" y="232.04953" style="fill-opacity:0.53175;stroke:#000000;stroke-opacity:0.53175" id="use416" />
                </g>
                <g clip-path="url(#p0fc56e4401)" id="g422">
                    <use xlink:href="#C0_0_c2d17011a8" x="376.34595" y="350.85406" style="fill-opacity:0.631042;stroke:#000000;stroke-opacity:0.631042" id="use420" />
                </g>
                <g clip-path="url(#p0fc56e4401)" id="g426">
                    <use xlink:href="#C0_0_c2d17011a8" x="232.01636" y="473.43698" style="fill-opacity:0.733492;stroke:#000000;stroke-opacity:0.733492" id="use424" />
                </g>
                <g clip-path="url(#p0fc56e4401)" id="g430">
                    <use xlink:href="#C0_0_c2d17011a8" x="230.0695" y="250.30664" style="fill-opacity:0.821779;stroke:#000000;stroke-opacity:0.821779" id="use428" />
                </g>
                <g clip-path="url(#p0fc56e4401)" id="g434">
                    <use xlink:href="#C0_0_c2d17011a8" x="445.43146" y="490.41562" style="fill-opacity:0.906939;stroke:#000000;stroke-opacity:0.906939" id="use432" />
                </g>
                <g clip-path="url(#p0fc56e4401)" id="g438">
                    <use xlink:href="#C0_0_c2d17011a8" x="446.3884" y="261.52554" style="stroke:#000000" id="use436" />
                </g>
            </g>
            <g id="text_25">
                <!-- O -->
                <g transform="matrix(0.16,0,0,-0.16,386.78199,340.57656)" id="g446">
                    <defs id="defs442">
                        <path id="DejaVuSans-4f" d="m 2522,4238 q -688,0 -1093,-513 -404,-512 -404,-1397 0,-881 404,-1394 405,-512 1093,-512 687,0 1089,512 402,513 402,1394 0,885 -402,1397 -402,513 -1089,513 z m 0,512 q 981,0 1568,-658 588,-658 588,-1764 0,-1103 -588,-1761 -587,-658 -1568,-658 -984,0 -1574,656 -589,657 -589,1763 0,1106 589,1764 590,658 1574,658 z" transform="scale(0.015625)" />
                    </defs>
                    <use xlink:href="#DejaVuSans-4f" id="use444" />
                </g>
            </g>
            <g id="text_26">
                <!-- $A_{1,1,1}$ -->
                <g transform="matrix(0.16,0,0,-0.16,457.56619,250.47604)" id="g466">
                    <defs id="defs452">
                        <path id="DejaVuSans-Oblique-41" d="m 2356,4666 h 716 L 3938,0 H 3278 L 3084,1197 H 984 L 325,0 H -341 Z M 2584,4044 1275,1722 h 1713 z" transform="scale(0.015625)" />
                        <path id="DejaVuSans-31" d="M 794,531 H 1825 V 4091 L 703,3866 v 575 l 1116,225 h 631 V 531 H 3481 V 0 H 794 Z" transform="scale(0.015625)" />
                        <path id="DejaVuSans-2c" d="m 750,794 h 659 V 256 L 897,-744 H 494 L 750,256 Z" transform="scale(0.015625)" />
                    </defs>
                    <use xlink:href="#DejaVuSans-Oblique-41" transform="translate(0,0.09375)" id="use454" />
                    <use xlink:href="#DejaVuSans-31" transform="matrix(0.7,0,0,0.7,68.408203,-16.3125)" id="use456" />
                    <use xlink:href="#DejaVuSans-2c" transform="matrix(0.7,0,0,0.7,112.94434,-16.3125)" id="use458" />
                    <use xlink:href="#DejaVuSans-31" transform="matrix(0.7,0,0,0.7,148.83301,-16.3125)" id="use460" />
                    <use xlink:href="#DejaVuSans-2c" transform="matrix(0.7,0,0,0.7,193.36914,-16.3125)" id="use462" />
                    <use xlink:href="#DejaVuSans-31" transform="matrix(0.7,0,0,0.7,229.25781,-16.3125)" id="use464" />
                </g>
            </g>
            <g id="text_27">
                <!-- $A_{1,-1,1}$ -->
                <g transform="matrix(0.16,0,0,-0.16,240.52453,239.52452)" id="g483">
                    <use xlink:href="#DejaVuSans-Oblique-41" transform="translate(0,0.09375)" id="use469" />
                    <use xlink:href="#DejaVuSans-31" transform="matrix(0.7,0,0,0.7,68.408203,-16.3125)" id="use471" />
                    <use xlink:href="#DejaVuSans-2c" transform="matrix(0.7,0,0,0.7,112.94434,-16.3125)" id="use473" />
                    <use xlink:href="#DejaVuSans-2212" transform="matrix(0.7,0,0,0.7,162.4707,-16.3125)" id="use475" />
                    <use xlink:href="#DejaVuSans-31" transform="matrix(0.7,0,0,0.7,234.76074,-16.3125)" id="use477" />
                    <use xlink:href="#DejaVuSans-2c" transform="matrix(0.7,0,0,0.7,279.29687,-16.3125)" id="use479" />
                    <use xlink:href="#DejaVuSans-31" transform="matrix(0.7,0,0,0.7,315.18555,-16.3125)" id="use481" />
                </g>
            </g>
            <g id="text_28">
                <!-- $A_{-1,1,1}$ -->
                <g transform="matrix(0.16,0,0,-0.16,526.76743,221.70505)" id="g500">
                    <use xlink:href="#DejaVuSans-Oblique-41" transform="translate(0,0.09375)" id="use486" />
                    <use xlink:href="#DejaVuSans-2212" transform="matrix(0.7,0,0,0.7,68.408203,-16.3125)" id="use488" />
                    <use xlink:href="#DejaVuSans-31" transform="matrix(0.7,0,0,0.7,127.06055,-16.3125)" id="use490" />
                    <use xlink:href="#DejaVuSans-2c" transform="matrix(0.7,0,0,0.7,171.59668,-16.3125)" id="use492" />
                    <use xlink:href="#DejaVuSans-31" transform="matrix(0.7,0,0,0.7,207.48535,-16.3125)" id="use494" />
                    <use xlink:href="#DejaVuSans-2c" transform="matrix(0.7,0,0,0.7,252.02148,-16.3125)" id="use496" />
                    <use xlink:href="#DejaVuSans-31" transform="matrix(0.7,0,0,0.7,287.91016,-16.3125)" id="use498" />
                </g>
            </g>
            <g id="text_29">
                <!-- $A_{-1,-1,1}$ -->
                <g transform="matrix(0.16,0,0,-0.16,322.61631,212.19295)" id="g519">
                    <use xlink:href="#DejaVuSans-Oblique-41" transform="translate(0,0.09375)" id="use503" />
                    <use xlink:href="#DejaVuSans-2212" transform="matrix(0.7,0,0,0.7,68.408203,-16.3125)" id="use505" />
                    <use xlink:href="#DejaVuSans-31" transform="matrix(0.7,0,0,0.7,127.06055,-16.3125)" id="use507" />
                    <use xlink:href="#DejaVuSans-2c" transform="matrix(0.7,0,0,0.7,171.59668,-16.3125)" id="use509" />
                    <use xlink:href="#DejaVuSans-2212" transform="matrix(0.7,0,0,0.7,221.12305,-16.3125)" id="use511" />
                    <use xlink:href="#DejaVuSans-31" transform="matrix(0.7,0,0,0.7,293.41309,-16.3125)" id="use513" />
                    <use xlink:href="#DejaVuSans-2c" transform="matrix(0.7,0,0,0.7,337.94922,-16.3125)" id="use515" />
                    <use xlink:href="#DejaVuSans-31" transform="matrix(0.7,0,0,0.7,373.83789,-16.3125)" id="use517" />
                </g>
            </g>
            <g id="text_30">
                <!-- $A_{1,1,-1}$ -->
                <g transform="matrix(0.16,0,0,-0.16,456.45432,479.97794)" id="g536">
                    <use xlink:href="#DejaVuSans-Oblique-41" transform="translate(0,0.09375)" id="use522" />
                    <use xlink:href="#DejaVuSans-31" transform="matrix(0.7,0,0,0.7,68.408203,-16.3125)" id="use524" />
                    <use xlink:href="#DejaVuSans-2c" transform="matrix(0.7,0,0,0.7,112.94434,-16.3125)" id="use526" />
                    <use xlink:href="#DejaVuSans-31" transform="matrix(0.7,0,0,0.7,148.83301,-16.3125)" id="use528" />
                    <use xlink:href="#DejaVuSans-2c" transform="matrix(0.7,0,0,0.7,193.36914,-16.3125)" id="use530" />
                    <use xlink:href="#DejaVuSans-2212" transform="matrix(0.7,0,0,0.7,242.89551,-16.3125)" id="use532" />
                    <use xlink:href="#DejaVuSans-31" transform="matrix(0.7,0,0,0.7,315.18555,-16.3125)" id="use534" />
                </g>
            </g>
            <g id="text_31">
                <!-- $A_{1,-1,-1}$ -->
                <g transform="matrix(0.16,0,0,-0.16,242.33577,463.23602)" id="g555">
                    <use xlink:href="#DejaVuSans-Oblique-41" transform="translate(0,0.09375)" id="use539" />
                    <use xlink:href="#DejaVuSans-31" transform="matrix(0.7,0,0,0.7,68.408203,-16.3125)" id="use541" />
                    <use xlink:href="#DejaVuSans-2c" transform="matrix(0.7,0,0,0.7,112.94434,-16.3125)" id="use543" />
                    <use xlink:href="#DejaVuSans-2212" transform="matrix(0.7,0,0,0.7,162.4707,-16.3125)" id="use545" />
                    <use xlink:href="#DejaVuSans-31" transform="matrix(0.7,0,0,0.7,234.76074,-16.3125)" id="use547" />
                    <use xlink:href="#DejaVuSans-2c" transform="matrix(0.7,0,0,0.7,279.29687,-16.3125)" id="use549" />
                    <use xlink:href="#DejaVuSans-2212" transform="matrix(0.7,0,0,0.7,328.82324,-16.3125)" id="use551" />
                    <use xlink:href="#DejaVuSans-31" transform="matrix(0.7,0,0,0.7,401.11328,-16.3125)" id="use553" />
                </g>
            </g>
            <g id="text_32">
                <!-- $A_{-1,1,-1}$ -->
                <g transform="matrix(0.16,0,0,-0.16,524.84825,435.96914)" id="g574">
                    <use xlink:href="#DejaVuSans-Oblique-41" transform="translate(0,0.09375)" id="use558" />
                    <use xlink:href="#DejaVuSans-2212" transform="matrix(0.7,0,0,0.7,68.408203,-16.3125)" id="use560" />
                    <use xlink:href="#DejaVuSans-31" transform="matrix(0.7,0,0,0.7,127.06055,-16.3125)" id="use562" />
                    <use xlink:href="#DejaVuSans-2c" transform="matrix(0.7,0,0,0.7,171.59668,-16.3125)" id="use564" />
                    <use xlink:href="#DejaVuSans-31" transform="matrix(0.7,0,0,0.7,207.48535,-16.3125)" id="use566" />
                    <use xlink:href="#DejaVuSans-2c" transform="matrix(0.7,0,0,0.7,252.02148,-16.3125)" id="use568" />
                    <use xlink:href="#DejaVuSans-2212" transform="matrix(0.7,0,0,0.7,301.54785,-16.3125)" id="use570" />
                    <use xlink:href="#DejaVuSans-31" transform="matrix(0.7,0,0,0.7,373.83789,-16.3125)" id="use572" />
                </g>
            </g>
            <g id="text_33">
                <!-- $A_{-1,-1,-1}$ -->
                <g transform="matrix(0.16,0,0,-0.16,323.28527,421.40091)" id="g595">
                    <use xlink:href="#DejaVuSans-Oblique-41" transform="translate(0,0.09375)" id="use577" />
                    <use xlink:href="#DejaVuSans-2212" transform="matrix(0.7,0,0,0.7,68.408203,-16.3125)" id="use579" />
                    <use xlink:href="#DejaVuSans-31" transform="matrix(0.7,0,0,0.7,127.06055,-16.3125)" id="use581" />
                    <use xlink:href="#DejaVuSans-2c" transform="matrix(0.7,0,0,0.7,171.59668,-16.3125)" id="use583" />
                    <use xlink:href="#DejaVuSans-2212" transform="matrix(0.7,0,0,0.7,221.12305,-16.3125)" id="use585" />
                    <use xlink:href="#DejaVuSans-31" transform="matrix(0.7,0,0,0.7,293.41309,-16.3125)" id="use587" />
                    <use xlink:href="#DejaVuSans-2c" transform="matrix(0.7,0,0,0.7,337.94922,-16.3125)" id="use589" />
                    <use xlink:href="#DejaVuSans-2212" transform="matrix(0.7,0,0,0.7,387.47559,-16.3125)" id="use591" />
                    <use xlink:href="#DejaVuSans-31" transform="matrix(0.7,0,0,0.7,459.76562,-16.3125)" id="use593" />
                </g>
            </g>
        </g>
    </g>
    <defs id="defs603">
        <clipPath id="p0fc56e4401">
            <rect x="97.199997" y="86.400002" width="543.59998" height="543.59998" id="rect600" />
        </clipPath>
    </defs>
</svg>