<svg width="574.8" height="671.92" version="1.1" viewBox="0 0 574.8 671.92" xmlns="http://www.w3.org/2000/svg">
    <defs>
        <clipPath id="a">
            <path d="m886 4685h4403v-4684h-4403" />
        </clipPath>
    </defs>
    <g transform="matrix(1.3333 0 0 -1.3333 0 793.7)">
        <g transform="matrix(.50316 0 0 .83397 0 98.836)">
            <path d="m0 0h841.89v595.28h-841.89z" fill="#fff" />
        </g>
        <g transform="matrix(.12 0 0 .12 -148.63 64.126)">
            <g clip-path="url(#a)" fill="none" stroke="#000" stroke-linecap="round" stroke-linejoin="round" stroke-miterlimit="10">
                <g stroke-width="5">
                    <path d="m1272.9 1263c36.955 36.706 72.82 51.545 101.56 42.019" />
                    <path d="m1272.9 1263c74.016-24.533 145.09-75.927 197.44-142.78 52.357-66.851 81.817-143.82 81.845-213.83" />
                    <path d="m1595.5 999.03c0.013-32.528-14.917-64.494-43.278-92.664" />
                    <path d="m1499.5 2882.6c-52.335-51.982-137.05-65.14-227.14-35.281" />
                    <path d="m1551.4 3018.9c0.022-55.03-18.144-102.68-51.943-136.25" />
                    <path d="m1594.7 3111.5c0.013-32.528-14.917-64.494-43.278-92.664" />
                    <path d="m1433.6 3271.7c99.55-32.996 161.07-94.156 161.1-160.15" />
                    <path d="m2461.7 4087.5c-37.838 12.542-59.878 66.184-59.909 145.81" />
                    <path d="m2842.3 4301.1c-42.78-42.491-113.29-73.53-195.87-86.228-82.588-12.698-170.66-6.042-244.68 18.491" />
                    <path d="m2842.3 4301.1c0.022-55.029-18.144-102.68-51.943-136.25" />
                    <path d="m2402.6 2120.8c-0.027 70.008 16.959 154.12 47.189 233.67 30.23 79.549 71.291 148.18 114.07 190.67" />
                    <path d="m2563.9 2545.2c74.016-24.533 145.09-75.926 197.44-142.78 52.357-66.85 81.817-143.82 81.845-213.83" />
                    <path d="m2843.1 2188.6c-42.78-42.491-113.29-73.529-195.87-86.228s-170.66-6.0425-244.68 18.491" />
                    <path d="m3227.3 351.14c-0.022 55.03 18.143 102.68 51.942 136.25" />
                    <path d="m3279.3 487.39c52.335 51.983 137.05 65.141 227.14 35.281" />
                    <path d="m3608 564.69c37.838-12.542 59.877-66.183 59.909-145.81" />
                    <path d="m3506.4 522.67c36.955 36.706 72.82 51.545 101.56 42.019" />
                    <path d="m3505.8 2107.1c-153.16 50.764-279.23 211.74-279.29 356.6" />
                    <path d="m3667.1 2531.4c0.028-70.008-16.958-154.12-47.189-233.67-30.23-79.549-71.291-148.18-114.07-190.67" />
                    <path d="m3226.5 2463.7c42.78 42.491 113.29 73.53 195.87 86.228 82.587 12.698 170.66 6.0428 244.68-18.49" />
                    <path d="m4474.1 3653.2c-0.013 32.528 14.916 64.493 43.277 92.663" />
                    <path d="m4635.2 3493c-99.55 32.997-161.07 94.156-161.1 160.15" />
                    <path d="m4695.2 3347.2c-37.838 12.542-59.878 66.184-59.909 145.81" />
                    <path d="m4796.7 3389.2c-36.955-36.706-72.82-51.545-101.56-42.02" />
                    <path d="m4570.2 1769.6c52.336 51.982 137.05 65.141 227.14 35.281" />
                    <path d="m4636.1 1380.5c-99.55 32.996-161.07 94.156-161.1 160.15" />
                    <path d="m4636.1 1380.5c-0.027 70.008 16.958 154.12 47.189 233.67 30.23 79.549 71.291 148.18 114.07 190.67" />
                    <path d="m1374.5 1305c131.56-43.604 220.95-167.37 221.01-305.96" />
                    <path d="m1594.7 3111.5c0.034-85.911-34.267-168.37-95.221-228.91" />
                    <path d="m2790.4 4164.8c-86.107-85.526-213.5-115.48-328.7-77.3" />
                    <path d="m3279.3 487.39c86.108 85.526 213.5 115.48 328.7 77.301" />
                    <path d="m4695.2 3347.2c-131.56 43.605-220.96 167.37-221.01 305.96" />
                    <path d="m4475 1540.7c-0.033 85.91 34.268 168.37 95.221 228.91" />
                </g>
                <g stroke-width="2">
                    <path d="m1272 3111 64-21m49-16 98-32m49-17 98-32m49-16 98-33m49-16 98-33m49-16 98-32m49-16 98-33m49-16 97-33m49-16 98-32m49-17 98-32m49-16 98-33m49-16 98-32m49-17 98-32m49-16 98-33m49-16 98-32m49-17 64-21" />
                    <path d="m2563 4394 64-22m49-16 98-32m49-16 98-33m49-16 98-33m49-16 98-32m49-17 98-32m49-16 97-33m49-16 98-32m49-17 98-32m49-16 98-33m49-16 98-33m49-16 98-32m49-16 98-33m49-16 98-33m49-16 98-32m49-17 64-21" />
                    <path d="m1273 999 64-21m49-16 98-33m49-16 98-33m49-16 98-32m49-17 98-32m49-16 97-33m49-16 98-32m49-17 98-32m49-16 98-33m49-16 98-33m49-16 98-32m49-16 98-33m49-16 98-33m49-16 98-32m49-17 98-32m49-16 64-21" />
                    <path d="m2564 2281 64-21m49-16 98-33m49-16 98-32m49-17 98-32m48-16 98-33m49-16 98-33m49-16 98-32m49-16 98-33m49-16 98-33m49-16 98-32m49-17 98-32m49-16 98-33m49-16 98-32m49-17 98-32m49-16 98-33m49-16 63-21" />
                </g>
                <g stroke-width="5">
                    <path d="m4518 1633" />
                    <path d="m4518.3 1633.3c-0.021 55.03 18.144 102.68 51.943 136.25" />
                    <path d="m4475 1540.7c-0.013 32.528 14.917 64.494 43.278 92.664" />
                    <path d="m4796.7 3389.2c-74.016 24.533-145.09 75.926-197.44 142.78-52.357 66.851-81.817 143.82-81.845 213.83" />
                    <path d="m2790.4 4164.8c-52.335-51.982-137.05-65.141-227.14-35.281" />
                    <path d="m2563.2 4129.5c-36.955-36.706-72.82-51.545-101.56-42.02" />
                    <path d="m1433.6 3271.7c0.027-70.008-16.959-154.12-47.189-233.67-30.231-79.549-71.291-148.18-114.07-190.67" />
                    <path d="m1434.4 1159.2c99.55-32.997 161.07-94.156 161.1-160.15" />
                    <path d="m1374.5 1305c37.838-12.542 59.878-66.184 59.909-145.81" />
                    <path d="m3227.3 351.14c42.78 42.491 113.29 73.529 195.87 86.228 82.587 12.698 170.66 6.0424 244.68-18.491" />
                </g>
                <g stroke-width="2">
                    <path d="m1273 999v102m0 51v103m0 52v103m0 52v103m0 52v103m0 51v104m0 51v103m0 52v103m0 52v103m0 52-1 103m0 51v103m0 52v103m0 52v103m0 52v101" />
                    <path d="m3507 259-1 101m0 52v103m0 52v103m0 52v103m0 51v104m0 51v103m0 52v103m0 52v103m0 51v104m0 51v103m0 52v103m0 52v103m0 52v103m0 51v102" />
                    <path d="m4797 1541v102m0 51v103m0 52v103m0 52v103m0 52v103m0 51v103m0 52v103m0 52v103m0 52v103m0 51v104m0 51v103m0 52v103m0 52v103m0 52v101" />
                    <path d="m2564 2281v102m0 51v104m0 51v103m0 52v103m0 52v103m0 52v103m0 51v104m0 51-1 103m0 52v103m0 52v103m0 51v104m0 51v103m0 52v103m0 52v102" />
                    <path d="m3507 259 78 77m36 37 73 72m37 37 73 72m37 37 73 72m37 37 73 72m36 37 74 73m36 36 73 73m37 36 73 73m37 36 73 73m37 36 73 73m37 36 73 73m36 36 78 78" />
                    <path d="m3506 2371 78 78m36 36 74 73m36 36 73 73m37 36 73 73m37 36 73 73m37 36 73 73m36 36 74 73m36 36 73 73m37 37 73 72m37 37 73 72m37 37 73 72m37 37 78 77" />
                    <path d="m1272 3111 78 78m37 36 73 73m37 36 73 73m37 36 73 73m36 37 74 72m36 37 73 72m37 37 73 72m37 37 73 72m37 37 73 73m36 36 74 73m36 36 73 73m37 36 78 78" />
                    <path d="m1273 999 78 77m37 37 73 73m37 36 73 73m36 36 74 73m36 36 73 73m37 36 73 73m37 36 73 73m37 36 73 73m36 36 74 73m36 36 73 73m37 36 73 73m37 37 78 77" />
                </g>
                <g stroke-width="5">
                    <path d="m1272.7 1791.1c110.87 110.12 218.46 154.63 304.67 126.06" />
                    <path d="m1272.7 1791.1c222.05-73.599 435.26-227.78 592.33-428.33 157.07-200.55 245.45-431.46 245.53-641.48" />
                    <path d="m2240.4 999.28c0.038-97.583-44.75-193.48-129.83-277.99" />
                    <path d="m1953.9 2425.1c-157.01-155.94-411.15-195.42-681.41-105.84" />
                    <path d="m2109.8 2833.8c0.064-165.09-54.432-308.04-155.83-408.75" />
                    <path d="m2239.6 3111.8c0.038-97.584-44.75-193.48-129.83-277.99" />
                    <path d="m1756.3 3592.2c298.65-98.989 483.22-282.47 483.3-480.44" />
                    <path d="m2258.8 3475.4c-113.52 37.625-179.63 198.55-179.73 437.44" />
                    <path d="m3400.7 4116c-128.34-127.47-339.86-220.59-587.62-258.68-247.76-38.095-511.98-18.127-734.03 55.472" />
                    <path d="m3400.7 4116c0.064-165.09-54.432-308.04-155.83-408.75" />
                    <path d="m2079.9 1800.3c-0.082 210.02 50.876 462.35 141.57 701 90.692 238.65 213.87 444.55 342.21 572.02" />
                    <path d="m2563.6 3073.3c222.05-73.599 435.26-227.78 592.33-428.33 157.07-200.55 245.45-431.46 245.53-641.48" />
                    <path d="m3401.5 2003.5c-128.34-127.47-339.86-220.59-587.62-258.68s-511.98-18.127-734.03 55.472" />
                    <path d="m2669 536.21c-0.065 165.09 54.43 308.04 155.83 408.75" />
                    <path d="m2824.8 944.96c157.01 155.95 411.15 195.42 681.42 105.84" />
                    <path d="m3810.9 1176.9c113.51-37.626 179.63-198.55 179.73-437.44" />
                    <path d="m3506.2 1050.8c110.87 110.12 218.46 154.63 304.67 126.06" />
                    <path d="m3506 1578.9c-459.47 152.29-837.69 635.22-837.87 1069.8" />
                    <path d="m3989.8 2851.9c0.082-210.02-50.875-462.35-141.57-701-90.691-238.65-213.87-444.55-342.21-572.02" />
                    <path d="m2668.1 2648.7c128.34 127.47 339.86 220.59 587.62 258.68 247.76 38.095 511.98 18.128 734.03-55.471" />
                    <path d="m3829.2 3652.9c-0.038 97.583 44.75 193.48 129.83 277.99" />
                    <path d="m4312.5 3172.5c-298.65 98.99-483.22 282.47-483.3 480.44" />
                    <path d="m4492.3 2735.1c-113.52 37.625-179.63 198.55-179.73 437.44" />
                    <path d="m4796.9 2861.1c-110.87-110.12-218.46-154.64-304.67-126.06" />
                    <path d="m4115.7 2227.2c157.01 155.95 411.15 195.42 681.42 105.84" />
                    <path d="m4313.3 1060c-298.65 98.99-483.22 282.47-483.3 480.44" />
                    <path d="m4313.3 1060c-0.082 210.02 50.876 462.35 141.57 701 90.691 238.65 213.87 444.55 342.21 572.02" />
                    <path d="m1577.4 1917.2c394.67-130.81 662.86-502.1 663.03-917.88" />
                    <path d="m2239.6 3111.8c0.1011-257.73-102.8-505.11-285.66-686.74" />
                    <path d="m3244.9 3707.3c-258.32-256.58-640.49-346.45-986.09-231.9" />
                    <path d="m2824.8 944.96c258.32 256.58 640.49 346.45 986.09 231.9" />
                    <path d="m4492.2 2735.1c-394.67 130.81-662.87 502.11-663.03 917.89" />
                    <path d="m3830 1540.4c-0.099 257.73 102.8 505.11 285.66 686.73" />
                    <path d="m3960 1818" />
                    <path d="m3959.9 1818.4c-0.064 165.09 54.432 308.04 155.83 408.75" />
                    <path d="m3830 1540.4c-0.038 97.584 44.75 193.48 129.83 277.99" />
                    <path d="m4796.9 2861.1c-222.05 73.599-435.26 227.78-592.33 428.33-157.07 200.55-245.45 431.46-245.53 641.48" />
                    <path d="m3244.9 3707.3c-157.01-155.95-411.15-195.42-681.42-105.84" />
                    <path d="m2563.4 3601.4c-110.87-110.12-218.46-154.63-304.67-126.06" />
                    <path d="m1756.3 3592.2c0.082-210.02-50.876-462.36-141.57-701-90.692-238.65-213.87-444.55-342.21-572.02" />
                    <path d="m1757.1 1479.7c298.65-98.99 483.22-282.47 483.3-480.44" />
                    <path d="m1577.4 1917.2c113.52-37.625 179.63-198.55 179.73-437.44" />
                    <path d="m2669 536.21c128.34 127.47 339.86 220.59 587.62 258.68 247.76 38.095 511.98 18.127 734.03-55.472" />
                </g>
            </g>
        </g>
    </g>
</svg>