<?xml version="1.0" encoding="UTF-8"?>
<svg width="600" height="600" version="1.1" viewBox="0 0 3199690 3199690" xmlns="http://www.w3.org/2000/svg">
 <defs>
  <marker id="a" overflow="visible" markerHeight="5.5999999" markerWidth="7.6999998" orient="auto-start-reverse" preserveAspectRatio="xMidYMid" viewBox="0 0 7.7 5.6">
   <path transform="scale(.7)" d="m-2-4 11 4-11 4c2-2.33 2-5.66 0-8z" fill="context-stroke" fill-rule="evenodd"/>
  </marker>
  <marker id="b" overflow="visible" markerHeight="5.5999999" markerWidth="7.6999998" orient="auto-start-reverse" preserveAspectRatio="xMidYMid" viewBox="0 0 7.7 5.6">
   <path transform="scale(.7)" d="m-2-4 11 4-11 4c2-2.33 2-5.66 0-8z" fill="context-stroke" fill-rule="evenodd"/>
  </marker>
 </defs>
 <g fill="none" fill-rule="nonzero" stroke="#000" stroke-linejoin="bevel" stroke-miterlimit="22.926" stroke-width="1e4">
  <line x1="1690280" x2="1508820" y1="2865800" y2="297135"/>
  <path d="m2812280 2402010c368760-545020 328640-1269090-98080-1.77e6 -426720-500942-1135200-655682-1731913-378275-596721 277407-935081 918809-827144 1567949 107942 649130 635664 1146530 1.29e6 1215900"/>
  <path d="m2125600 930680c-29320 43326-33290 99000-10420 146050 22860 47050 69090 78330 121270 82050 52180 3730 102380-20660 131690-64000"/>
  <path d="m1445200 3037550c4900 520 9830 770 14760 770 4980 0 9970-270 14920-790 5050-520 10070-1310 15050-2340 5110-1070 10170-2380 15160-3920 5170-1590 10260-3430 15270-5470 5210-2120 10330-4470 15360-7010 5240-2660 10380-5520 15420-8560 5270-3190 10430-6570 15470-10100 5290-3710 10460-7590 15510-11620 5300-4230 10470-8610 15530-13130 5300-4740 10470-9620 15530-14620 5290-5240 10460-10620 15520-16100 5280-5750 10440-11610 15480-17570 5270-6230 10410-12580 15430-19010 5250-6720 10370-13540 15370-20440 5220-7190 10310-14470 15300-21840"/>
  <path d="m2812280 2402010c-14040 20750-28870 40970-44440 60610-15600 19670-31940 38750-48980 57190-17090 18500-34890 36370-53310 53550-18530 17260-37710 33840-57460 49690-19890 15960-40370 31190-61370 45660-21180 14580-42880 28400-65050 41430-22370 13160-45220 25510-68470 37060-23490 11660-47390 22500-71630 32520-24510 10140-49360 19430-74510 27880-25430 8560-51150 16260-77090 23120-26260 6950-52750 13030-79400 18270-26970 5310-54110 9750-81370 13350-27590 3650-55280 6430-83040 8380-28090 1980-56230 3090-84390 3380-28480 290-56960-270-85410-1640-28750-1400-57460-3620-86080-6660"/>
  <path d="m1508820 297135c31110 3299 62120 7553 92990 12720 31160 5219 62170 11375 92970 18427 31070 7117 61930 15145 92540 24056 30840 8976 61420 18846 91700 29573 30470 10796 60640 22461 90450 34960 29960 12560 59570 25967 88780 40187 29320 14272 58240 29362 86730 45238 28540 15910 56650 32612 84270 50079 55260 34943 108620 72942 159710 113783 50880 40667 99520 84144 145540 130198 22870 22885 45100 46405 66640 70539 21400 23987 42130 48579 62130 73746 19860 24982 38990 50534 57360 76629 18210 25860 35680 52260 52330 79150 16500 26640 32200 53760 47060 81340 14700 27280 28580 55010 41580 83150 12850 27810 24840 56020 35910 84580 10940 28220 20990 56780 30090 85650 8980 28500 17040 57290 24120 86320 6980 28660 13020 57550 18050 86610 4960 28690 8940 57550 11900 86510 2910 28590 4820 57290 5690 86020 850 28370 680 56780-540 85140-1210 28030-3460 56020-6770 83880-3270 27570-7590 55010-12960 82250-5330 26980-11690 53760-19110 80240-7360 26280-15740 52270-25160 77880-9360 25460-19730 50540-31100 75170-11320 24520-23630 48580-36910 72110-13230 23480-27430 46420-42530 68740"/>
  <path d="m2237800 884297c6250 666 12470 1712 18600 3117 6240 1427 12390 3226 18420 5362 6110 2166 12090 4678 17920 7514 5870 2858 11580 6044 17110 9533 5520 3494 10860 7294 15960 11380 5090 4064 9950 8409 14560 13018 4560 4561 8860 9378 12870 14428 3960 4976 7630 10177 10970 15577 3290 5301 6260 10792 8870 16451 2550 5526 4770 11211 6600 17022 1780 5661 3200 11441 4220 17291 490 2870 890 5760 1180 8650 300 2860 490 5730 580 8600 160 5640-70 11300-740 16910-650 5490-1710 10930-3200 16250-740 2630-1580 5220-2520 7780-930 2550-1970 5060-3110 7520-1130 2450-2360 4860-3690 7210-1320 2350-2740 4640-4260 6870"/>
  <path d="m2237800 884297c-5690-601-11420-886-17150-826-5600 57-11190 441-16740 1172-5420 718-10790 1768-16080 3165-5160 1362-10230 3061-15160 5097-4820 1993-9510 4315-14010 6961-4410 2594-8650 5504-12640 8708-3940 3160-7650 6610-11080 10324-3400 3688-6530 7631-9340 11782"/>
  <path d="m1508820 297135c-6500 9611-12810 19348-18940 29193-6440 10320-12690 20757-18770 31289-6350 11012-12530 22128-18550 33335-6270 11686-12360 23468-18300 35327-6180 12335-12180 24761-18030 37256-6070 12971-11970 26015-17720 39128-5950 13576-11740 27225-17390 40931-5820 14164-11490 28388-17010 42669-11550 29858-22460 59963-32830 90254-10930 31912-21250 64027-31040 96306-10230 33741-19890 67655-29030 101712-9490 35340-18420 70828-26840 106436-8680 36699-16820 73529-24470 110449-7820 37810-15120 75730-21920 113740-6920 38660-13330 77410-19240 116240-5980 39260-11450 78590-16430 117990-5e3 39580-9500 79230-13500 118930-4e3 39650-7500 79350-10490 119090-2970 39450-5450 78930-7410 118450-1930 38980-3360 78000-4270 117020-880 38250-1270 76520-1110 114790 160 37290 830 74560 2060 111820 1190 36050 2910 72090 5220 108080 2210 34590 4970 69140 8330 103630 3220 32900 6980 65740 11400 98490 2120 15720 4400 31430 6830 47100 2360 15220 4880 30410 7560 45580 2600 14690 5360 29340 8290 43960 2830 14130 5820 28230 8990 42290 3070 13550 6290 27070 9700 40540 3270 12950 6720 25860 10370 38710 3490 12330 7160 24620 11020 36830 3700 11700 7590 23330 11680 34900 3900 11030 7990 21990 12290 32880 4100 10360 8390 20640 12900 30820 4290 9670 8770 19250 13480 28720 4460 8960 9130 17830 14040 26560 4630 8240 9480 16370 14570 24350 4800 7520 9820 14910 15080 22110 4960 6790 10140 13420 15570 19830 5110 6050 10450 11910 16030 17520 5260 5300 10740 10380 16460 15180 2740 2300 5530 4530 8380 6690 2780 2110 5600 4150 8480 6110 5560 3780 11300 7280 17240 10420 5700 3010 11580 5700 17590 8010 5850 2240 11830 4120 17910 5590 5990 1450 12080 2510 18200 3160"/>
 </g>
 <g fill-rule="nonzero">
  <path d="m2174230 1481010h97670l7490-7370 10410 10420h-23750v80770c260 8640-3300 14480-10920 17400-760-4570-6350-8380-16890-11430v-2410c4950 630 9780 1140 14610 1390 4820 380 6850-1900 6220-6850v-78870h-68450c-4320 0-8260 510-11940 1520zm17910 77340c250-11550 380-21710 380-30480 0-8760-130-17900-380-27550l7870 3930h27310l2920-4950 8510 6480-3940 3550v21340c0 5590 130 12190 380 19810l-7360 2920v-8890h-28320v11430zm7370-51050v34160h28320v-34160z"/>
  <path d="m2355080 1490540c-2670 15490-5590 28190-8890 38100 6990 10660 10920 17780 11940 21590 890 3810 1400 6220 1400 7230 0 2290-510 4200-1400 5720-1020 1520-1650 2160-2030 2160-1020 0-2540-3050-4450-9400-2280-7620-5330-14730-8890-21340-6350 15240-15870 28960-28830 41280l-1010-2030c11550-14230 20190-29090 25780-44710-3300-5960-9400-14730-18290-26280l1400-1020c8380 8250 14730 15240 19430 20830 2280-6610 4570-17910 6860-34170h-16260c-4320 0-8380 510-11940 1530l-4440-4570h32260l4950-4960 6350 6480zm61600-8e3c0 25010 120 42290 380 51560l-6860 3430v-57030h-38740v54100l-6980 4450c380-9650 510-20190 510-31750s-130-22860-510-33780l7490 3940h37210l4960-4830 6980 6860zm-78490 99690c9650-3300 17910-7490 24890-12570 6860-5210 12070-11690 15370-19430 3300-7750 5210-17910 5970-30480 630-12580 890-22360 890-29340l11430 6480-4450 3430c-250 20570-2030 35680-5210 45460-3170 9780-8120 17530-15110 23370-6980 5710-18030 10790-33270 15110zm62610-2410c-5710 0-8510-3300-8510-9910v-24890c0-4950-130-9910-510-14860l10420 5460-3430 3560v29720c0 3300 1780 4950 5460 4950h8890c3050 0 4830-1780 5460-5460 640-3690 1140-9910 1520-18800h2420c0 8260 510 13970 1270 17020 890 3170 2410 5080 4700 5710-2290 5080-5970 7500-10930 7500z"/>
  <path d="m2486910 1551880c250-6230 510-18930 510-38100 0-19310-260-33020-510-41280l7360 4450h24390l3930-3940 6480 6480-4060 2920v42670c0 6600 250 13340 510 19940l-6360 2920v-67940h-25400v68960zm15870-58930 10420 5460-3560 3430c380 22480-1270 39620-4950 51430-3560 11690-13470 21850-29720 30480l-1020-2030c11560-7870 19180-16000 22860-24260 3560-8250 5590-17900 5970-29080 260-11050 260-22860 0-35430zm6350 59940c9650 6610 15240 11180 16640 13720 1520 2410 2290 4320 2290 5710 0 1660-510 3310-1530 4700-1010 1530-1780 2290-2410 2290-1400 0-2670-2030-4070-5970-1900-5970-5840-12320-11810-18920zm27310 2540c380-4950 500-10670 500-17400v-33780c0-7240-120-13210-500-17780l10920 5460-3940 3940v42160c0 4960 130 10040 510 14990zm17900 13470v-77480c0-9270-120-16380-500-21330l10410 4950-3430 3430v91820c0 3690-630 6480-2030 8510-1270 2030-3940 3680-7870 4950-2420-4950-7370-8630-14990-10920v-2030c9020 1400 14220 1900 15870 1780 1660-130 2540-1400 2540-3680zm-69970-66550c-6230 26160-9910 41150-10930 45210-1260 4190-1900 9400-1650 15370 130 5970 390 10030 640 12440 0 1270-760 1910-2410 1910-1400 0-3050-260-4960-1020-2030-630-3040-2030-3040-4440 0-1660 500-4070 1520-7500 1020-3300 1520-5840 1520-7870 0-2290-760-4190-2280-5460-1400-1400-4700-2670-9660-3940v-2030c5970 630 9660 890 11180 760s3180-1650 4950-4440c1780-2920 6230-16010 13210-39500zm-29210-5460c9270 5580 14090 10030 14600 13460 510 3300 130 5460-1270 6470-1270 890-2280 1400-2920 1400-1400 0-2540-1780-3550-5460-1660-4950-4200-9780-7880-14480zm8380-26290c8890 4950 13840 8890 14860 11680 1010 2800 890 4950-510 6480-1270 1520-2410 2160-3430 2160s-2030-1400-2920-4450c-1650-4570-4700-9400-9020-14350z"/>
  <path d="m2625080 1569910c6990 1020 12450 1530 16640 1650 4060 260 6220-2160 6220-7110v-26290h-36700c-4320 0-8380 510-11940 1520l-4440-4570h53080v-20830h-24380l-6860 1020-4060-4060h60070l6980-6860 9910 9900h-34800v20830h33280l8e3 -7870 10790 10920h-52070v31240c0 6230-3940 11180-11810 14860-380-4950-6350-8890-17910-11940zm17400-101220 890-1010c5970 2920 10030 5580 11940 7620 2030 2160 3050 3930 3050 5200 0 1650-890 3560-2540 5460-1650 2040-2800 3050-3430 3050-1020 0-1910-1650-2540-4950-1020-4700-3430-9780-7370-15370zm42170 37090 5970-13340h-77980c380 1650 500 3300 500 4950 0 2670-630 5080-1900 7240-1400 2160-3430 3050-6220 2670-2800-380-4190-1020-4190-2030 0-890 760-2410 2410-4450 3300-3930 5590-9780 6980-17270h1910l510 5840h76960l4950-5330 8890 9400c-5330 250-11050 4950-17400 13840z"/>
  <path d="m2757800 1522670v21330h27810v-21330zm34800 0v21330h28190v-21330zm-34800 24380v23750h27810v-23750zm34800 0v23750h28190v-23750zm-6990-27430c0-8890-130-16760-510-23750l11940 5460-4440 3430v14860h27300l3940-4950 8380 6980-4440 3050c0 27810 120 46100 500 55120l-7490 3930v-9900h-62990v7490l-7370 3430c260-10920 510-22860 510-35810 0-12830-250-24260-510-34290l7370 4950zm-6980-50040 1010-1020c6990 3310 11180 5850 12700 7620 1400 1910 2160 3560 2160 5210 0 2030-630 3940-1900 5720-1400 1900-2420 2790-3050 2790-1020 0-1910-1780-2920-5460-1400-4950-3940-9910-8e3 -14860zm48130 37210 6480-13330h-85860c640 5330 380 9140-760 11430-1140 2280-3170 3300-6090 3170-3050-120-4580-890-4580-2160 0-1010 890-2540 2540-4570 2930-3940 4960-9400 5970-16250h1910l510 5330h85850l4440-4950 9020 9010c-5330 260-11300 4700-17910 13340z"/>
 </g>
 <path d="m2300940 2965290h812610v127000h-812610z" fill="#fff"/>
 <g fill-rule="nonzero">
  <path d="m2388820 2976760 890-1520c7370 2920 11680 5330 13210 6980 1520 1650 2160 3050 2160 4450 0 1270-380 2920-1400 4700-1020 1770-1910 2660-2540 2660-1020 0-1910-1270-2920-3930-1650-4320-4830-8770-9400-13340zm-42670 35690 890-1530c8380 4320 13330 7500 14980 9400 1650 2040 2420 3810 2420 5460 0 1400-510 3050-1780 4960-1140 2030-2030 3040-2670 3040-1270 0-2540-1770-3430-5460-2030-5330-5460-10540-10410-15870zm26290-41660 10920 4960-3560 3430v19810h20830l6480-6350 9400 9400h-36710c2290 11170 5460 20820 9400 28700 7370-8260 12190-14990 14480-20320l8890 8510c-3300 0-10800 4690-22350 14350 7620 14220 16760 23490 27300 27810v1910c-4570-260-8250 1390-10920 4950-5590-5210-10920-12960-16130-22990-5080-10160-8630-21080-10670-33020v60960c0 6730-3930 11180-11940 13460 0-4950-4440-8760-13330-11430v-2030c6600 760 11300 1140 14100 1270 2790 250 4310-760 4310-2670v-29840c-16250 12570-24890 20570-25900 23880l-7880-8010c4580-1270 15880-7620 33780-18790v-36700h-17390c-3690-390-6990 0-9910 1010l-4060-4060h31360c0-12190-250-21590-500-28200zm-71000 17270h32770l5460-5330 7870 8380h-20320v30740h6480l4960-4960 6470 8010h-17910v28700l20320-6860 510 1900c-25400 10930-39370 18290-41650 21850l-5460-8890c5330-1270 11810-3300 19300-5970v-30730h-890c-4320 0-8250 500-11940 1520l-4440-4570h17270v-30740h-2410c-4320 0-8260 510-11940 1530z"/>
  <path d="m2.52e6 2977650-4950 3940v29720h23870l7370-7370 9400 10410h-35180c5970 32770 18160 53470 36700 62110v2030c-5330-380-9270 1400-11940 5460-15490-16000-24630-39120-27170-69600h-3050c-1650 35060-13840 59440-36700 73030l-1020-1520c18920-16260 29080-40010 30730-71510h-11810c-4320 0-8250 510-11940 1530l-4440-4570h28190c0-18420-120-31500-510-39120zm6990 1020c7870 3300 13080 5840 15360 7620 2290 1900 3430 3930 3430 6220 0 1650-510 3560-1390 5710-1020 2160-1660 3180-2040 3180-1010 0-2160-1400-3430-4440-2410-4580-6600-10290-12950-16900zm-57030 107690c260-7620 510-25780 510-54610-12950 13210-20700 22350-23370 27310l-6470-8890c5330-2030 15240-9270 29840-21850 0-33520-250-52320-510-56640l12320 5460-4950 3430v77470c0 10670 250 18800 510 24390zm-25400-92330 1020-1520c9020 6600 14100 11180 15370 13460 1390 2290 2030 4190 2030 5460 0 1650-760 3560-2290 5720-1400 2160-2540 3300-3170 3300-1020 0-2030-2030-2920-5970-1650-6100-5080-12830-10040-20450z"/>
  <path d="m2580340 3085860c4310-8510 7240-17660 8760-27060 1400-9390 2030-24380 1650-44950-250-20450-510-32900-510-37210l6480 4440h11940l3430-4440 6980 5460-3550 3040v87380c380 5970-2420 9910-8390 11940-630-4070-4310-6860-10920-8510v-2030c4950 380 8510 500 10410 500 2040 0 3050-1260 3050-3930v-31750h-12950c0 8250-1020 16510-3180 24760-2160 8260-6220 16130-12190 23370zm16380-101730v24250h12950v-24250zm0 27300v24260h12950v-24260zm40640-22350c0-9140-130-15370-510-18290l10030 3940-3550 3940v10410h9900l5470-5330 6980 8380h-22350v11300h6470l4960-4950 6980 8e3h-23870c-4320 0-8260 510-11810 1520l-4580-4570h15880v-11300h-3940c-4320 0-8250 510-11940 1520l-4440-4570zm-12830 55120c260-5590 510-11180 510-16640s-250-10280-510-14600l6480 3930h16760l3560-4440 6860 5460-3430 3050v19300l-5970 2420v-3940h-17780v2920zm6480-24260v15750h17780v-15750zm53470-44700 9010 8e3c-3050 630-7360 4440-12950 11430-5590 6860-12320 12830-20320 17780l-1020-1400c4320-3300 8890-8380 13720-14980 4700-6610 8640-13590 11560-20830zm3040 30220 7880 8510c-2920 640-7500 4830-13840 12320-6230 7620-14360 13970-24260 18930l-1020-1530c6610-4570 12700-10540 18290-17650 5710-7110 9910-13970 12950-20580zm2040 31370 7870 8890c-2670 640-7240 4450-13840 11430-6610 7240-13970 13340-22100 18290s-16640 8640-25530 10920v-1520c11560-4570 21850-11050 30990-19300 9020-8260 16640-17780 22610-28710zm-44710 5850 8890 4950c-2660 1650-4440 3550-5460 5460-1020 2030-2670 5710-4950 10920 3680-1010 9270-2410 16890-4440l510 1520c-8e3 2920-15880 5970-23880 9140-7870 3180-12320 5590-13330 7240l-5970-8e3c8890-1650 16510-3300 22860-4950 2280-8260 3810-15500 4440-21840zm-18790 3930 880-890c3690 2920 6230 5460 7750 7370 1530 2030 2030 3940 1530 5710-510 1910-1270 3050-2290 3810-1020 640-1650 890-2030 890-890 0-1650-1270-1910-3930-380-3310-1650-7620-3930-12960z"/>
  <path d="m2736930 2981590v24760h17900v-24760zm0 27810v23750h17900v-23750zm2920 64520c5330 380 9140 500 11430 500 2280 0 3550-2030 3550-5960v-32260h-17900c-380 10280-1910 19810-4700 28830-2800 8890-6610 16250-11180 21840l-1520-510c3300-7620 5710-14860 7240-21840 1520-6990 2410-13720 2660-20320 390-6730 510-18800 510-36580 0-17650-120-28830-510-33520l7500 4440h16890l3430-5330 8510 5970-4070 3930v88900c380 6610-2920 11050-9900 13340-640-4960-4580-8130-11940-9400zm34290 3550c2030-1650 2790-4060 2410-6980v-44200c-1900 0-4700 510-8380 1530l-4450-4580h12830v-36700c0-4570-130-8890-380-12830l11300 5470-4440 3420v31250c4950-3940 10670-9270 17140-15880 6480-6600 11940-13330 16640-20320l8380 9400-4950 1520c-18540 15240-30860 24640-37210 28320v6350h34290l7360-6850 9020 9900h-38730c4310 12570 9770 22860 16630 30990 6730 8130 14480 13590 22990 16130v2030c-5210 380-8760 2540-10410 6480-8890-7240-15880-15620-20830-24890s-8510-19430-10920-30740h-9400v46230l17400-11430 1010 1400c-11300 10280-18030 17900-20320 22860z"/>
  <path d="m2892500 3072520c6990 1020 12450 1520 16640 1650 4060 250 6220-2160 6220-7110v-26290h-36700c-4320 0-8380 510-11940 1520l-4440-4570h53080v-20830h-24380l-6860 1020-4060-4060h60070l6980-6860 9910 9900h-34800v20830h33270l8010-7870 10790 10920h-52070v31240c0 6230-3940 11180-11810 14860-380-4950-6350-8890-17910-11940zm17400-101220 890-1020c5970 2930 10030 5590 11940 7620 2030 2160 3050 3940 3050 5210 0 1650-890 3560-2540 5460-1660 2030-2800 3050-3430 3050-1020 0-1910-1650-2540-4950-1020-4700-3430-9780-7370-15370zm42160 37080 5970-13330h-77970c380 1650 500 3300 500 4950 0 2670-630 5080-1900 7240-1400 2160-3430 3050-6220 2670-2800-380-4200-1020-4200-2030 0-890 770-2420 2420-4450 3300-3930 5590-9780 6980-17270h1910l510 5840h76960l4950-5330 8890 9400c-5330 250-11050 4950-17400 13840z"/>
  <path d="m3025220 3025280v21330h27810v-21330zm34800 0v21330h28190v-21330zm-34800 24380v23750h27810v-23750zm34800 0v23750h28190v-23750zm-6990-27430c0-8890-130-16770-510-23750l11940 5460-4440 3430v14860h27300l3940-4950 8380 6980-4450 3050c0 27810 130 46100 510 55120l-7490 3930v-9900h-62990v7490l-7370 3430c250-10920 510-22860 510-35820 0-12820-260-24250-510-34280l7370 4950zm-6990-50040 1020-1020c6990 3310 11180 5850 12700 7620 1400 1910 2160 3560 2160 5210 0 2030-640 3940-1900 5720-1400 1900-2420 2790-3050 2790-1020 0-1910-1780-2920-5460-1400-4950-3940-9910-8010-14860zm48140 37210 6480-13330h-85860c640 5330 380 9140-760 11430-1140 2280-3170 3300-6100 3170-3040-130-4570-890-4570-2160 0-1010 890-2540 2540-4570 2920-3940 4960-9400 5970-16260h1910l510 5340h85850l4440-4960 9020 9020c-5330 260-11300 4700-17910 13340z"/>
 </g>
 <path d="m2330345 1149931 161115 270369" marker-end="url(#b)" stroke="#000" stroke-width="5291.7"/>
 <path d="m2447090 2759485 232337 179785" marker-end="url(#a)" stroke="#000" stroke-width="5291.7"/>
</svg>
