<?xml version="1.0" encoding="UTF-8"?>
<svg xmlns="http://www.w3.org/2000/svg" xmlns:xlink="http://www.w3.org/1999/xlink" width="165pt" height="165pt" viewBox="0 0 165 165" version="1.1">
    <defs>
        <clipPath id="clip1">
            <path d="M 0 0 L 165 0 L 165 164.640625 L 0 164.640625 Z M 0 0 " />
        </clipPath>
        <clipPath id="clip2">
            <path d="M 77 79 L 88 79 L 88 164.640625 L 77 164.640625 Z M 77 79 " />
        </clipPath>
    </defs>
    <g id="surface28">
        <g clip-path="url(#clip1)" clip-rule="nonzero">
            <path style="fill:none;stroke-width:1.1;stroke-linecap:square;stroke-linejoin:miter;stroke:rgb(0%,0%,0%);stroke-opacity:1;stroke-miterlimit:3.25;" d="M 234.299219 87.867188 C 234.299219 66.863281 225.955469 46.71875 211.103906 31.863281 C 196.248438 17.011719 176.103906 8.667969 155.1 8.667969 C 134.096094 8.667969 113.951563 17.011719 99.096094 31.863281 C 84.244531 46.71875 75.900781 66.863281 75.900781 87.867188 C 75.900781 108.875 84.244531 129.019531 99.096094 143.871094 C 113.951563 158.722656 134.096094 167.066406 155.1 167.066406 C 176.103906 167.066406 196.248438 158.722656 211.103906 143.871094 C 225.955469 129.019531 234.299219 108.875 234.299219 87.867188 Z M 234.299219 87.867188 " transform="matrix(1,0,0,1,-72.6,-5.5)" />
        </g>
        <g clip-path="url(#clip2)" clip-rule="nonzero">
            <path style="fill:none;stroke-width:0.66;stroke-linecap:square;stroke-linejoin:miter;stroke:rgb(0%,0%,0%);stroke-opacity:1;stroke-miterlimit:3.25;" d="M 155.1 87.867188 L 155.13125 87.890625 L 155.1625 87.917969 L 155.225 87.964844 L 155.588281 88.257813 L 155.615625 88.28125 L 155.646875 88.304688 L 155.701563 88.355469 L 155.814844 88.449219 L 156.025781 88.644531 L 156.053125 88.667969 L 156.076563 88.695313 L 156.123438 88.742188 L 156.213281 88.839844 L 156.236719 88.863281 L 156.25625 88.886719 L 156.299219 88.9375 L 156.377344 89.035156 L 156.392969 89.058594 L 156.4125 89.082031 L 156.447656 89.132813 L 156.478906 89.179688 L 156.50625 89.226563 L 156.521875 89.253906 L 156.533594 89.277344 L 156.560938 89.324219 L 156.572656 89.351563 L 156.580469 89.375 L 156.603906 89.421875 L 156.611719 89.449219 L 156.623438 89.476563 L 156.63125 89.5 L 156.654688 89.582031 L 156.658594 89.605469 L 156.666406 89.632813 L 156.674219 89.6875 L 156.678125 89.710938 L 156.682031 89.738281 L 156.682031 89.792969 L 156.685938 89.816406 L 156.682031 89.84375 L 156.682031 89.898438 L 156.678125 89.921875 L 156.670313 89.976563 L 156.666406 90 L 156.6625 90.027344 L 156.654688 90.054688 L 156.650781 90.082031 L 156.642969 90.105469 L 156.627344 90.160156 L 156.615625 90.1875 L 156.607813 90.210938 L 156.572656 90.292969 L 156.533594 90.371094 L 156.517969 90.398438 L 156.502344 90.421875 L 156.471094 90.476563 L 156.451563 90.503906 L 156.435938 90.527344 L 156.396875 90.582031 L 156.314844 90.6875 L 156.295313 90.714844 L 156.271875 90.738281 L 156.225 90.792969 L 156.127344 90.898438 L 155.9125 91.109375 L 155.857813 91.15625 L 155.799219 91.207031 L 155.685938 91.304688 L 155.447656 91.5 L 154.947656 91.894531 L 154.916406 91.917969 L 154.889063 91.945313 L 154.826563 91.992188 L 154.701563 92.089844 L 154.467188 92.289063 L 154.439844 92.3125 L 154.408594 92.335938 L 154.353906 92.386719 L 154.244531 92.484375 L 154.045313 92.679688 L 154.021875 92.707031 L 154.002344 92.730469 L 153.959375 92.777344 L 153.877344 92.875 L 153.838281 92.921875 L 153.803125 92.972656 L 153.736719 93.066406 L 153.721094 93.089844 L 153.705469 93.117188 L 153.678125 93.164063 L 153.6625 93.1875 L 153.650781 93.210938 L 153.627344 93.261719 L 153.615625 93.285156 L 153.607813 93.308594 L 153.596094 93.332031 L 153.588281 93.355469 L 153.576563 93.378906 L 153.56875 93.40625 L 153.557031 93.453125 L 153.541406 93.5 L 153.5375 93.523438 L 153.533594 93.550781 L 153.517969 93.644531 L 153.517969 93.816406 L 153.5375 93.933594 L 153.541406 93.960938 L 153.549219 93.984375 L 153.553125 94.007813 L 153.576563 94.078125 L 153.596094 94.128906 L 153.607813 94.152344 L 153.615625 94.175781 L 153.639063 94.222656 L 153.650781 94.25 L 153.666406 94.277344 L 153.697656 94.328125 L 153.728906 94.382813 L 153.764063 94.433594 L 153.779688 94.460938 L 153.799219 94.484375 L 153.838281 94.539063 L 153.924219 94.644531 L 153.94375 94.667969 L 153.967188 94.695313 L 154.017969 94.746094 L 154.115625 94.851563 L 154.338281 95.0625 L 154.369531 95.085938 L 154.396875 95.113281 L 154.459375 95.164063 L 154.580469 95.269531 L 154.838281 95.480469 L 155.369531 95.898438 L 155.432031 95.945313 L 155.490625 95.996094 L 155.611719 96.09375 L 155.838281 96.289063 L 155.892969 96.335938 L 155.947656 96.386719 L 156.049219 96.484375 L 156.236719 96.679688 L 156.25625 96.703125 L 156.279688 96.726563 L 156.31875 96.777344 L 156.392969 96.875 L 156.4125 96.898438 L 156.428125 96.921875 L 156.463281 96.972656 L 156.521875 97.070313 L 156.545313 97.117188 L 156.572656 97.167969 L 156.584375 97.191406 L 156.592188 97.214844 L 156.611719 97.265625 L 156.623438 97.289063 L 156.639063 97.335938 L 156.646875 97.363281 L 156.650781 97.386719 L 156.658594 97.410156 L 156.6625 97.433594 L 156.666406 97.460938 L 156.670313 97.484375 L 156.682031 97.566406 L 156.682031 97.722656 L 156.666406 97.832031 L 156.658594 97.855469 L 156.654688 97.882813 L 156.639063 97.9375 L 156.63125 97.960938 L 156.623438 97.988281 L 156.6 98.042969 L 156.580469 98.09375 L 156.564844 98.121094 L 156.553125 98.148438 L 156.525781 98.199219 L 156.494531 98.253906 L 156.463281 98.304688 L 156.424219 98.359375 L 156.389063 98.410156 L 156.303125 98.519531 L 156.283594 98.542969 L 156.213281 98.625 L 156.111719 98.730469 L 156.00625 98.835938 L 155.892969 98.941406 L 155.650781 99.152344 L 155.619531 99.179688 L 155.588281 99.203125 L 155.521875 99.257813 L 155.392969 99.359375 L 155.13125 99.566406 L 155.1 99.59375 L 155.064844 99.621094 L 154.998438 99.671875 L 154.869531 99.777344 L 154.611719 99.984375 L 154.580469 100.007813 L 154.549219 100.035156 L 154.486719 100.085938 L 154.369531 100.191406 L 154.338281 100.21875 L 154.310938 100.242188 L 154.252344 100.296875 L 154.142969 100.398438 L 154.119531 100.425781 L 154.092188 100.449219 L 154.041406 100.503906 L 153.947656 100.605469 L 153.924219 100.632813 L 153.904688 100.660156 L 153.861719 100.710938 L 153.783594 100.8125 L 153.767969 100.839844 L 153.748438 100.863281 L 153.717188 100.910156 L 153.705469 100.933594 L 153.689844 100.960938 L 153.6625 101.007813 L 153.639063 101.054688 L 153.615625 101.105469 L 153.603906 101.128906 L 153.596094 101.152344 L 153.576563 101.203125 L 153.553125 101.273438 L 153.549219 101.296875 L 153.541406 101.324219 L 153.525781 101.417969 L 153.521875 101.445313 L 153.517969 101.46875 L 153.517969 101.613281 L 153.521875 101.636719 L 153.521875 101.660156 L 153.525781 101.6875 L 153.5375 101.757813 L 153.545313 101.78125 L 153.549219 101.808594 L 153.580469 101.902344 L 153.588281 101.929688 L 153.607813 101.976563 L 153.63125 102.023438 L 153.654688 102.074219 L 153.670313 102.097656 L 153.682031 102.121094 L 153.709375 102.171875 L 153.740625 102.21875 L 153.775781 102.265625 L 153.846094 102.363281 L 153.865625 102.390625 L 153.889063 102.417969 L 153.932031 102.46875 L 154.025781 102.574219 L 154.264063 102.8125 L 154.295313 102.835938 L 154.353906 102.890625 L 154.471094 102.996094 L 154.725 103.203125 L 154.760156 103.230469 L 154.791406 103.257813 L 154.857813 103.308594 L 155.25625 103.625 L 155.771875 104.046875 L 155.826563 104.09375 L 155.88125 104.144531 L 155.986719 104.242188 L 156.014063 104.265625 L 156.088281 104.339844 L 156.182031 104.4375 L 156.205469 104.460938 L 156.228906 104.488281 L 156.271875 104.535156 L 156.35 104.632813 L 156.369531 104.65625 L 156.389063 104.683594 L 156.424219 104.730469 L 156.486719 104.828125 L 156.502344 104.855469 L 156.517969 104.878906 L 156.545313 104.929688 L 156.56875 104.976563 L 156.592188 105.027344 L 156.6 105.050781 L 156.611719 105.074219 L 156.619531 105.097656 L 156.627344 105.125 L 156.642969 105.171875 L 156.650781 105.199219 L 156.654688 105.222656 L 156.6625 105.246094 L 156.666406 105.269531 L 156.670313 105.296875 L 156.678125 105.34375 L 156.682031 105.371094 L 156.682031 105.539063 L 156.678125 105.566406 L 156.666406 105.636719 L 156.6625 105.664063 L 156.658594 105.6875 L 156.642969 105.734375 L 156.639063 105.757813 L 156.619531 105.804688 L 156.611719 105.832031 L 156.603906 105.855469 L 156.584375 105.902344 L 156.560938 105.949219 L 156.533594 106 L 156.510156 106.046875 L 156.478906 106.09375 L 156.416406 106.191406 L 156.396875 106.214844 L 156.38125 106.238281 L 156.342188 106.289063 L 156.264063 106.382813 L 156.240625 106.40625 L 156.221094 106.429688 L 156.178125 106.480469 L 156.084375 106.574219 L 155.88125 106.769531 L 155.771875 106.863281 L 155.658594 106.960938 L 155.424219 107.152344 L 155.392969 107.179688 L 155.361719 107.203125 L 155.295313 107.257813 L 155.1625 107.359375 L 154.896875 107.570313 L 154.865625 107.597656 L 154.830469 107.621094 L 154.764063 107.675781 L 154.639063 107.777344 L 154.389063 107.988281 L 154.361719 108.011719 L 154.330469 108.039063 L 154.275781 108.089844 L 154.166406 108.195313 L 154.139063 108.222656 L 154.111719 108.246094 L 154.060938 108.300781 L 153.963281 108.40625 L 153.939844 108.429688 L 153.920313 108.457031 L 153.877344 108.507813 L 153.853906 108.535156 L 153.834375 108.5625 L 153.795313 108.613281 L 153.775781 108.640625 L 153.760156 108.664063 L 153.725 108.71875 L 153.6625 108.820313 L 153.650781 108.847656 L 153.615625 108.917969 L 153.603906 108.945313 L 153.596094 108.96875 L 153.576563 109.015625 L 153.56875 109.039063 L 153.560938 109.066406 L 153.553125 109.089844 L 153.549219 109.113281 L 153.541406 109.136719 L 153.5375 109.164063 L 153.521875 109.257813 L 153.517969 109.285156 L 153.517969 109.429688 L 153.521875 109.453125 L 153.521875 109.480469 L 153.5375 109.574219 L 153.545313 109.601563 L 153.549219 109.625 L 153.564844 109.671875 L 153.572656 109.699219 L 153.580469 109.722656 L 153.592188 109.746094 L 153.611719 109.796875 L 153.619531 109.820313 L 153.63125 109.84375 L 153.658594 109.890625 L 153.713281 109.988281 L 153.728906 110.015625 L 153.775781 110.085938 L 153.85 110.183594 L 153.865625 110.207031 L 153.885156 110.234375 L 153.928125 110.28125 L 154.014063 110.378906 L 154.0375 110.40625 L 154.115625 110.484375 L 154.225 110.589844 L 154.459375 110.800781 L 154.978906 111.222656 L 155.014063 111.25 L 155.045313 111.277344 L 155.111719 111.328125 L 155.248438 111.433594 L 155.510156 111.644531 L 155.545313 111.671875 L 155.576563 111.699219 L 155.639063 111.75 L 155.764063 111.855469 L 155.998438 112.066406 L 156.103906 112.171875 L 156.201563 112.273438 L 156.225 112.300781 L 156.248438 112.324219 L 156.291406 112.378906 L 156.373438 112.480469 L 156.4125 112.535156 L 156.447656 112.585938 L 156.467188 112.609375 L 156.482813 112.636719 L 156.514063 112.6875 L 156.525781 112.714844 L 156.541406 112.742188 L 156.56875 112.792969 L 156.580469 112.816406 L 156.592188 112.84375 L 156.611719 112.894531 L 156.623438 112.921875 L 156.63125 112.949219 L 156.639063 112.972656 L 156.646875 113 L 156.654688 113.023438 L 156.658594 113.050781 L 156.666406 113.078125 L 156.670313 113.101563 L 156.678125 113.15625 L 156.678125 113.179688 L 156.682031 113.207031 L 156.682031 113.335938 L 156.678125 113.363281 L 156.678125 113.386719 L 156.670313 113.441406 L 156.666406 113.464844 L 156.658594 113.492188 L 156.654688 113.515625 L 156.639063 113.570313 L 156.63125 113.59375 L 156.623438 113.621094 L 156.611719 113.648438 L 156.603906 113.671875 L 156.580469 113.722656 L 156.56875 113.75 L 156.533594 113.820313 L 156.517969 113.84375 L 156.50625 113.871094 L 156.44375 113.964844 L 156.4125 114.015625 L 156.338281 114.109375 L 156.31875 114.136719 L 156.299219 114.160156 L 156.25625 114.207031 L 156.170313 114.304688 L 155.975 114.496094 L 155.924219 114.546875 L 155.869531 114.59375 L 155.760156 114.691406 L 155.529688 114.882813 L 155.045313 115.269531 L 155.010156 115.296875 L 154.978906 115.324219 L 154.9125 115.375 L 154.779688 115.480469 L 154.525781 115.6875 L 154.463281 115.742188 L 154.400781 115.792969 L 154.283594 115.898438 L 154.06875 116.109375 L 154.017969 116.160156 L 153.971094 116.214844 L 153.88125 116.316406 L 153.842188 116.371094 L 153.799219 116.421875 L 153.728906 116.527344 L 153.713281 116.554688 L 153.697656 116.578125 L 153.666406 116.632813 L 153.654688 116.660156 L 153.639063 116.683594 L 153.615625 116.738281 L 153.603906 116.761719 L 153.592188 116.789063 L 153.584375 116.816406 L 153.572656 116.839844 L 153.549219 116.921875 L 153.545313 116.945313 L 153.5375 116.972656 L 153.525781 117.042969 L 153.521875 117.070313 L 153.521875 117.09375 L 153.517969 117.117188 L 153.517969 117.265625 L 153.529688 117.335938 L 153.533594 117.363281 L 153.541406 117.410156 L 153.549219 117.433594 L 153.557031 117.460938 L 153.580469 117.53125 L 153.588281 117.558594 L 153.596094 117.582031 L 153.619531 117.632813 L 153.642969 117.679688 L 153.666406 117.730469 L 153.682031 117.753906 L 153.69375 117.777344 L 153.725 117.828125 L 153.791406 117.925781 L 153.807031 117.949219 L 153.826563 117.972656 L 153.865625 118.023438 L 153.947656 118.121094 L 153.967188 118.144531 L 153.990625 118.167969 L 154.033594 118.21875 L 154.13125 118.316406 L 154.338281 118.511719 L 154.369531 118.539063 L 154.396875 118.5625 L 154.459375 118.617188 L 154.584375 118.722656 L 154.846094 118.933594 L 155.385156 119.359375 L 155.416406 119.386719 L 155.447656 119.410156 L 155.514063 119.464844 L 155.642969 119.570313 L 155.889063 119.78125 L 155.916406 119.808594 L 155.947656 119.835938 L 156.002344 119.886719 L 156.107813 119.996094 L 156.135156 120.019531 L 156.158594 120.046875 L 156.209375 120.101563 L 156.303125 120.207031 L 156.322656 120.234375 L 156.342188 120.257813 L 156.385156 120.308594 L 156.404688 120.335938 L 156.420313 120.363281 L 156.455469 120.414063 L 156.475 120.441406 L 156.490625 120.464844 L 156.521875 120.519531 L 156.533594 120.542969 L 156.549219 120.570313 L 156.572656 120.621094 L 156.596094 120.675781 L 156.607813 120.699219 L 156.615625 120.726563 L 156.627344 120.753906 L 156.635156 120.777344 L 156.650781 120.832031 L 156.654688 120.855469 L 156.6625 120.882813 L 156.666406 120.910156 L 156.670313 120.933594 L 156.678125 120.988281 L 156.682031 121.011719 L 156.682031 121.066406 L 156.685938 121.089844 L 156.682031 121.117188 L 156.682031 121.167969 L 156.674219 121.222656 L 156.670313 121.246094 L 156.6625 121.300781 L 156.654688 121.324219 L 156.650781 121.351563 L 156.642969 121.375 L 156.635156 121.402344 L 156.615625 121.453125 L 156.607813 121.480469 L 156.596094 121.507813 L 156.572656 121.558594 L 156.560938 121.585938 L 156.545313 121.609375 L 156.517969 121.664063 L 156.502344 121.6875 L 156.486719 121.714844 L 156.455469 121.765625 L 156.38125 121.871094 L 156.342188 121.917969 L 156.303125 121.96875 L 156.221094 122.066406 L 156.033594 122.257813 L 156.010156 122.285156 L 155.982813 122.308594 L 155.932031 122.355469 L 155.822656 122.453125 L 155.596094 122.648438 L 155.564844 122.671875 L 155.5375 122.695313 L 155.475 122.746094 L 155.353906 122.839844 L 155.107813 123.035156 L 154.623438 123.425781 L 154.592188 123.449219 L 154.560938 123.476563 L 154.498438 123.527344 L 154.377344 123.632813 L 154.314844 123.6875 L 154.260156 123.738281 L 154.146875 123.84375 L 154.123438 123.871094 L 154.045313 123.949219 L 153.947656 124.054688 L 153.928125 124.082031 L 153.904688 124.109375 L 153.861719 124.160156 L 153.783594 124.265625 L 153.764063 124.292969 L 153.744531 124.316406 L 153.697656 124.398438 L 153.682031 124.421875 L 153.654688 124.476563 L 153.639063 124.503906 L 153.627344 124.527344 L 153.592188 124.609375 L 153.584375 124.632813 L 153.564844 124.6875 L 153.557031 124.714844 L 153.549219 124.738281 L 153.545313 124.765625 L 153.5375 124.792969 L 153.533594 124.816406 L 153.521875 124.898438 L 153.517969 124.921875 L 153.517969 124.976563 L 153.514063 125.003906 L 153.517969 125.027344 L 153.517969 125.082031 L 153.521875 125.109375 L 153.533594 125.179688 L 153.5375 125.207031 L 153.545313 125.230469 L 153.549219 125.253906 L 153.557031 125.28125 L 153.580469 125.351563 L 153.6 125.402344 L 153.607813 125.425781 L 153.619531 125.453125 L 153.654688 125.523438 L 153.670313 125.550781 L 153.697656 125.597656 L 153.713281 125.625 L 153.760156 125.695313 L 153.775781 125.722656 L 153.795313 125.746094 L 153.830469 125.796875 L 153.908594 125.894531 L 153.932031 125.917969 L 153.951563 125.941406 L 153.994531 125.992188 L 154.088281 126.089844 L 154.291406 126.285156 L 154.31875 126.3125 L 154.346094 126.335938 L 154.404688 126.382813 L 154.517969 126.484375 L 154.75625 126.679688 L 154.7875 126.703125 L 154.814844 126.726563 L 154.877344 126.777344 L 154.998438 126.871094 L 155.244531 127.066406 L 155.275781 127.089844 L 155.303125 127.113281 L 155.365625 127.160156 L 155.486719 127.257813 L 155.717188 127.449219 L 155.744531 127.472656 L 155.771875 127.5 L 155.830469 127.546875 L 155.935938 127.644531 L 155.959375 127.667969 L 155.986719 127.691406 L 156.0375 127.738281 L 156.13125 127.835938 L 156.178125 127.882813 L 156.221094 127.929688 L 156.307031 128.027344 L 156.346094 128.074219 L 156.38125 128.125 L 156.451563 128.21875 L 156.482813 128.273438 L 156.514063 128.324219 L 156.529688 128.351563 L 156.541406 128.378906 L 156.56875 128.429688 L 156.580469 128.457031 L 156.592188 128.480469 L 156.615625 128.535156 L 156.623438 128.558594 L 156.639063 128.613281 L 156.646875 128.636719 L 156.654688 128.664063 L 156.658594 128.691406 L 156.666406 128.71875 L 156.670313 128.742188 L 156.678125 128.796875 L 156.682031 128.820313 L 156.682031 128.976563 L 156.674219 129.03125 L 156.674219 129.054688 L 156.666406 129.082031 L 156.658594 129.136719 L 156.650781 129.160156 L 156.635156 129.214844 L 156.619531 129.265625 L 156.607813 129.292969 L 156.596094 129.316406 L 156.576563 129.371094 L 156.560938 129.394531 L 156.549219 129.421875 L 156.521875 129.472656 L 156.490625 129.527344 L 156.459375 129.578125 L 156.385156 129.683594 L 156.365625 129.710938 L 156.346094 129.734375 L 156.303125 129.789063 L 156.213281 129.890625 L 156.189844 129.917969 L 156.021875 130.085938 L 155.810938 130.28125 L 155.338281 130.671875 L 155.307031 130.695313 L 155.275781 130.722656 L 155.213281 130.769531 L 155.092188 130.867188 L 154.842188 131.0625 L 154.373438 131.453125 L 154.342188 131.480469 L 154.314844 131.503906 L 154.25625 131.558594 L 154.146875 131.664063 L 154.119531 131.691406 L 154.092188 131.714844 L 154.041406 131.769531 L 153.947656 131.875 L 153.900781 131.929688 L 153.857813 131.980469 L 153.81875 132.035156 L 153.779688 132.085938 L 153.760156 132.113281 L 153.744531 132.140625 L 153.709375 132.191406 L 153.678125 132.246094 L 153.650781 132.296875 L 153.639063 132.324219 L 153.623438 132.351563 L 153.611719 132.378906 L 153.6 132.402344 L 153.592188 132.429688 L 153.580469 132.457031 L 153.564844 132.507813 L 153.541406 132.589844 L 153.5375 132.613281 L 153.529688 132.640625 L 153.521875 132.695313 L 153.521875 132.722656 L 153.517969 132.746094 L 153.517969 132.878906 L 153.521875 132.90625 L 153.521875 132.933594 L 153.525781 132.957031 L 153.529688 132.984375 L 153.5375 133.011719 L 153.541406 133.039063 L 153.549219 133.0625 L 153.553125 133.089844 L 153.560938 133.117188 L 153.572656 133.144531 L 153.580469 133.167969 L 153.588281 133.195313 L 153.611719 133.246094 L 153.635156 133.300781 L 153.6625 133.351563 L 153.674219 133.375 L 153.689844 133.402344 L 153.721094 133.453125 L 153.791406 133.558594 L 153.810938 133.585938 L 153.830469 133.609375 L 153.869531 133.664063 L 153.955469 133.765625 L 154.154688 133.972656 L 154.182031 134 L 154.209375 134.023438 L 154.264063 134.078125 L 154.38125 134.179688 L 154.623438 134.386719 L 155.142969 134.804688 L 155.267969 134.898438 L 155.389063 134.996094 L 155.627344 135.191406 L 155.654688 135.214844 L 155.685938 135.238281 L 155.740625 135.289063 L 155.853906 135.382813 L 156.060938 135.578125 L 156.107813 135.625 L 156.154688 135.675781 L 156.244531 135.769531 L 156.264063 135.796875 L 156.283594 135.820313 L 156.326563 135.867188 L 156.400781 135.964844 L 156.432031 136.011719 L 156.467188 136.0625 L 156.482813 136.085938 L 156.494531 136.109375 L 156.525781 136.160156 L 156.572656 136.253906 L 156.584375 136.28125 L 156.596094 136.304688 L 156.615625 136.351563 L 156.63125 136.40625 L 156.639063 136.429688 L 156.654688 136.484375 L 156.6625 136.507813 L 156.674219 136.589844 L 156.678125 136.613281 L 156.682031 136.640625 L 156.682031 136.691406 L 156.685938 136.71875 L 156.682031 136.746094 L 156.682031 136.796875 L 156.674219 136.851563 L 156.670313 136.875 L 156.6625 136.929688 L 156.654688 136.957031 L 156.650781 136.980469 L 156.635156 137.035156 L 156.627344 137.058594 L 156.615625 137.085938 L 156.607813 137.113281 L 156.596094 137.140625 L 156.572656 137.191406 L 156.560938 137.21875 L 156.545313 137.242188 L 156.517969 137.296875 L 156.502344 137.324219 L 156.486719 137.347656 L 156.455469 137.402344 L 156.435938 137.425781 L 156.416406 137.453125 L 156.38125 137.507813 L 156.295313 137.609375 L 156.275781 137.636719 L 156.252344 137.664063 L 156.205469 137.714844 L 156.103906 137.820313 L 155.885156 138.03125 L 155.830469 138.078125 L 155.775781 138.128906 L 155.658594 138.226563 L 155.420313 138.421875 L 154.924219 138.816406 L 154.861719 138.863281 L 154.803125 138.914063 L 154.678125 139.011719 L 154.44375 139.207031 L 154.389063 139.253906 L 154.334375 139.304688 L 154.228906 139.402344 L 154.029688 139.597656 L 154.010156 139.621094 L 153.986719 139.644531 L 153.94375 139.695313 L 153.865625 139.789063 L 153.846094 139.816406 L 153.826563 139.839844 L 153.791406 139.886719 L 153.725 139.984375 L 153.709375 140.007813 L 153.697656 140.03125 L 153.670313 140.078125 L 153.658594 140.101563 L 153.642969 140.125 L 153.619531 140.175781 L 153.611719 140.199219 L 153.6 140.222656 L 153.592188 140.246094 L 153.580469 140.269531 L 153.572656 140.292969 L 153.564844 140.320313 L 153.557031 140.34375 L 153.553125 140.367188 L 153.545313 140.390625 L 153.541406 140.414063 L 153.533594 140.4375 L 153.529688 140.460938 L 153.525781 140.488281 L 153.521875 140.511719 L 153.521875 140.535156 L 153.517969 140.558594 L 153.517969 140.605469 L 153.514063 140.628906 L 153.517969 140.65625 L 153.517969 140.703125 L 153.521875 140.726563 L 153.521875 140.75 L 153.525781 140.773438 L 153.529688 140.800781 L 153.533594 140.824219 L 153.541406 140.847656 L 153.545313 140.871094 L 153.553125 140.894531 L 153.557031 140.917969 L 153.564844 140.941406 L 153.572656 140.96875 L 153.580469 140.992188 L 153.6 141.039063 L 153.611719 141.0625 L 153.619531 141.085938 L 153.642969 141.136719 L 153.658594 141.160156 L 153.670313 141.1875 L 153.701563 141.238281 L 153.732813 141.292969 L 153.767969 141.34375 L 153.7875 141.371094 L 153.807031 141.394531 L 153.846094 141.449219 L 153.932031 141.550781 L 153.951563 141.578125 L 153.975 141.605469 L 154.025781 141.65625 L 154.123438 141.761719 L 154.346094 141.96875 L 154.377344 141.996094 L 154.404688 142.019531 L 154.467188 142.074219 L 154.588281 142.175781 L 154.846094 142.386719 L 155.373438 142.800781 L 155.404688 142.828125 L 155.435938 142.851563 L 155.494531 142.898438 L 155.615625 142.996094 L 155.842188 143.191406 L 155.896875 143.238281 L 155.947656 143.289063 L 156.049219 143.386719 L 156.236719 143.582031 L 156.25625 143.605469 L 156.279688 143.628906 L 156.31875 143.675781 L 156.392969 143.773438 L 156.4125 143.800781 L 156.428125 143.824219 L 156.463281 143.871094 L 156.521875 143.96875 L 156.533594 143.992188 L 156.545313 144.019531 L 156.572656 144.066406 L 156.580469 144.089844 L 156.592188 144.113281 L 156.611719 144.164063 L 156.619531 144.1875 L 156.63125 144.210938 L 156.639063 144.238281 L 156.642969 144.261719 L 156.658594 144.308594 L 156.6625 144.332031 L 156.666406 144.359375 L 156.670313 144.382813 L 156.682031 144.464844 L 156.682031 144.515625 L 156.685938 144.542969 L 156.682031 144.570313 L 156.682031 144.621094 L 156.674219 144.675781 L 156.670313 144.699219 L 156.6625 144.753906 L 156.654688 144.78125 L 156.646875 144.804688 L 156.623438 144.886719 L 156.615625 144.910156 L 156.580469 144.992188 L 156.56875 145.015625 L 156.557031 145.042969 L 156.529688 145.097656 L 156.514063 145.121094 L 156.498438 145.148438 L 156.463281 145.203125 L 156.447656 145.226563 L 156.428125 145.253906 L 156.392969 145.304688 L 156.310938 145.410156 L 156.264063 145.464844 L 156.217188 145.515625 L 156.119531 145.621094 L 156.096094 145.648438 L 156.06875 145.675781 L 156.014063 145.726563 L 155.900781 145.832031 L 155.658594 146.042969 L 155.63125 146.070313 L 155.6 146.09375 L 155.541406 146.144531 L 155.420313 146.242188 L 155.170313 146.4375 L 155.139063 146.460938 L 155.107813 146.488281 L 155.045313 146.535156 L 154.920313 146.636719 L 154.674219 146.832031 L 154.642969 146.855469 L 154.615625 146.882813 L 154.557031 146.929688 L 154.439844 147.027344 L 154.4125 147.054688 L 154.38125 147.078125 L 154.326563 147.128906 L 154.221094 147.226563 L 154.19375 147.25 L 154.119531 147.324219 L 154.025781 147.421875 L 154.002344 147.445313 L 153.978906 147.472656 L 153.935938 147.519531 L 153.853906 147.621094 L 153.834375 147.644531 L 153.81875 147.667969 L 153.783594 147.714844 L 153.764063 147.738281 L 153.748438 147.765625 L 153.701563 147.835938 L 153.689844 147.859375 L 153.6625 147.910156 L 153.603906 148.027344 L 153.596094 148.054688 L 153.584375 148.078125 L 153.560938 148.148438 L 153.553125 148.175781 L 153.549219 148.199219 L 153.541406 148.222656 L 153.529688 148.292969 L 153.525781 148.320313 L 153.517969 148.367188 L 153.517969 148.511719 L 153.521875 148.535156 L 153.521875 148.558594 L 153.525781 148.585938 L 153.5375 148.65625 L 153.545313 148.679688 L 153.549219 148.703125 L 153.557031 148.730469 L 153.588281 148.824219 L 153.607813 148.875 L 153.654688 148.96875 L 153.666406 148.996094 L 153.678125 149.019531 L 153.709375 149.066406 L 153.771875 149.164063 L 153.7875 149.1875 L 153.846094 149.269531 L 153.932031 149.371094 L 153.978906 149.425781 L 154.029688 149.476563 L 154.13125 149.582031 L 154.154688 149.609375 L 154.182031 149.632813 L 154.236719 149.6875 L 154.353906 149.789063 L 154.596094 150 L 154.63125 150.027344 L 154.6625 150.050781 L 154.725 150.105469 L 154.857813 150.210938 L 155.123438 150.417969 L 155.642969 150.835938 L 155.674219 150.863281 L 155.701563 150.886719 L 155.760156 150.933594 L 155.869531 151.03125 L 155.896875 151.058594 L 155.924219 151.082031 L 155.975 151.128906 L 156.076563 151.226563 L 156.1 151.253906 L 156.170313 151.324219 L 156.260156 151.421875 L 156.279688 151.449219 L 156.299219 151.472656 L 156.342188 151.519531 L 156.4125 151.617188 L 156.432031 151.644531 L 156.447656 151.667969 L 156.478906 151.71875 L 156.510156 151.765625 L 156.5375 151.816406 L 156.560938 151.863281 L 156.584375 151.914063 L 156.596094 151.9375 L 156.603906 151.960938 L 156.623438 152.011719 L 156.646875 152.082031 L 156.650781 152.109375 L 156.658594 152.132813 L 156.666406 152.179688 L 156.674219 152.207031 L 156.674219 152.230469 L 156.682031 152.277344 L 156.682031 152.328125 L 156.685938 152.351563 L 156.682031 152.375 L 156.682031 152.425781 L 156.674219 152.480469 L 156.674219 152.507813 L 156.666406 152.53125 L 156.658594 152.585938 L 156.642969 152.640625 L 156.635156 152.664063 L 156.627344 152.691406 L 156.615625 152.71875 L 156.607813 152.746094 L 156.596094 152.769531 L 156.560938 152.851563 L 156.545313 152.875 L 156.517969 152.929688 L 156.486719 152.984375 L 156.451563 153.035156 L 156.435938 153.0625 L 156.416406 153.089844 L 156.377344 153.140625 L 156.295313 153.246094 L 156.248438 153.300781 L 156.201563 153.351563 L 156.1 153.460938 L 155.877344 153.671875 L 155.85 153.699219 L 155.81875 153.722656 L 155.760156 153.777344 L 155.635156 153.882813 L 155.373438 154.09375 L 155.342188 154.121094 L 155.307031 154.144531 L 155.240625 154.199219 L 155.111719 154.300781 L 154.846094 154.511719 L 154.814844 154.535156 L 154.779688 154.5625 L 154.717188 154.613281 L 154.588281 154.71875 L 154.346094 154.925781 L 154.31875 154.953125 L 154.291406 154.976563 L 154.232813 155.03125 L 154.127344 155.132813 L 154.076563 155.183594 L 154.025781 155.238281 L 153.932031 155.339844 L 153.908594 155.367188 L 153.889063 155.394531 L 153.846094 155.445313 L 153.826563 155.472656 L 153.807031 155.496094 L 153.771875 155.550781 L 153.752344 155.574219 L 153.736719 155.601563 L 153.701563 155.652344 L 153.689844 155.679688 L 153.674219 155.707031 L 153.646875 155.757813 L 153.611719 155.828125 L 153.6 155.855469 L 153.584375 155.902344 L 153.564844 155.949219 L 153.557031 155.976563 L 153.553125 156 L 153.545313 156.023438 L 153.541406 156.046875 L 153.533594 156.070313 L 153.529688 156.097656 L 153.521875 156.144531 L 153.521875 156.167969 L 153.517969 156.195313 L 153.517969 156.242188 L 153.514063 156.265625 L 153.517969 156.289063 L 153.517969 156.339844 L 153.521875 156.363281 L 153.521875 156.386719 L 153.525781 156.410156 L 153.529688 156.4375 L 153.533594 156.460938 L 153.541406 156.484375 L 153.545313 156.507813 L 153.553125 156.53125 L 153.560938 156.558594 L 153.592188 156.652344 L 153.603906 156.679688 L 153.623438 156.726563 L 153.646875 156.773438 L 153.674219 156.824219 L 153.732813 156.921875 L 153.764063 156.96875 L 153.799219 157.015625 L 153.873438 157.113281 L 153.892969 157.136719 L 153.9125 157.164063 L 153.951563 157.210938 L 154.041406 157.308594 L 154.146875 157.414063 L 154.25625 157.519531 L 154.490625 157.730469 L 155.010156 158.148438 L 155.080469 158.203125 L 155.146875 158.253906 L 155.279688 158.359375 L 155.541406 158.570313 L 155.572656 158.597656 L 155.603906 158.621094 L 155.666406 158.675781 L 155.791406 158.78125 L 156.021875 158.988281 L 156.045313 159.015625 L 156.072656 159.039063 L 156.119531 159.089844 L 156.213281 159.1875 L 156.232813 159.210938 L 156.25625 159.234375 L 156.295313 159.285156 L 156.373438 159.382813 L 156.392969 159.40625 L 156.4125 159.433594 L 156.44375 159.480469 L 156.463281 159.503906 L 156.478906 159.53125 L 156.50625 159.578125 L 156.521875 159.605469 L 156.533594 159.628906 L 156.560938 159.675781 L 156.572656 159.703125 L 156.584375 159.726563 L 156.603906 159.773438 L 156.611719 159.800781 L 156.623438 159.824219 L 156.63125 159.847656 L 156.639063 159.875 L 156.646875 159.898438 L 156.650781 159.921875 L 156.658594 159.945313 L 156.6625 159.972656 L 156.670313 160.019531 L 156.674219 160.046875 L 156.682031 160.09375 L 156.682031 160.144531 L 156.685938 160.167969 L 156.682031 160.191406 L 156.682031 160.242188 L 156.678125 160.265625 L 156.678125 160.289063 L 156.674219 160.316406 L 156.666406 160.363281 L 156.658594 160.386719 L 156.654688 160.414063 L 156.646875 160.4375 L 156.642969 160.460938 L 156.635156 160.488281 L 156.627344 160.511719 L 156.607813 160.558594 L 156.596094 160.585938 L 156.588281 160.609375 L 156.541406 160.703125 L 156.514063 160.753906 L 156.502344 160.777344 L 156.455469 160.847656 L 156.389063 160.945313 L 156.35 160.992188 L 156.314844 161.042969 L 156.232813 161.136719 L 156.045313 161.332031 L 155.998438 161.378906 L 155.94375 161.425781 L 155.838281 161.523438 L 155.615625 161.714844 L 155.135156 162.101563 L 155.1 162.125 L 155.06875 162.152344 L 155.002344 162.203125 L 154.869531 162.308594 L 154.611719 162.515625 L 154.549219 162.570313 L 154.486719 162.621094 L 154.365625 162.726563 L 154.142969 162.933594 L 154.088281 162.988281 L 154.041406 163.039063 L 153.94375 163.144531 L 153.924219 163.167969 L 153.900781 163.195313 L 153.857813 163.246094 L 153.779688 163.351563 L 153.760156 163.378906 L 153.744531 163.40625 L 153.709375 163.457031 L 153.69375 163.484375 L 153.682031 163.507813 L 153.650781 163.5625 L 153.639063 163.585938 L 153.615625 163.640625 L 153.603906 163.664063 L 153.592188 163.691406 L 153.584375 163.71875 L 153.564844 163.769531 L 153.557031 163.792969 L 153.549219 163.820313 L 153.545313 163.84375 L 153.5375 163.867188 L 153.529688 163.914063 L 153.525781 163.941406 L 153.521875 163.964844 L 153.521875 163.988281 L 153.517969 164.011719 L 153.517969 164.0625 L 153.514063 164.085938 L 153.517969 164.109375 L 153.517969 164.160156 L 153.525781 164.207031 L 153.525781 164.234375 L 153.533594 164.257813 L 153.541406 164.304688 L 153.549219 164.328125 L 153.553125 164.355469 L 153.576563 164.425781 L 153.584375 164.453125 L 153.596094 164.476563 L 153.603906 164.5 L 153.627344 164.550781 L 153.650781 164.597656 L 153.678125 164.648438 L 153.689844 164.671875 L 153.736719 164.742188 L 153.752344 164.769531 L 153.767969 164.792969 L 153.803125 164.839844 L 153.877344 164.9375 L 153.896875 164.964844 L 153.916406 164.988281 L 153.959375 165.035156 L 154.049219 165.132813 L 154.248438 165.328125 L 154.275781 165.355469 L 154.307031 165.382813 L 154.365625 165.4375 L 154.494531 165.546875 L 154.75625 165.761719 L 155.307031 166.199219 L 155.342188 166.226563 L 155.373438 166.253906 L 155.44375 166.308594 L 155.576563 166.414063 L 155.830469 166.632813 L 155.892969 166.6875 L 155.951563 166.742188 L 156.064844 166.851563 L 156.119531 166.90625 L 156.170313 166.960938 L 156.221094 167.011719 L 156.267969 167.066406 " transform="matrix(1,0,0,1,-72.6,-5.5)" />
        </g>
    </g>
</svg>