<?xml version="1.0" encoding="UTF-8"?>
<svg width="600" height="600" clip-rule="evenodd" fill-rule="evenodd" overflow="hidden" viewBox="0 0 1e6 1e6" xmlns="http://www.w3.org/2000/svg">
 <g fill="none" stroke="#000" stroke-linejoin="bevel" stroke-miterlimit="22.926">
  <line x1="456780" x2="625418" y1="565018" y2="416855" stroke-width="762"/>
  <line x1="288725" x2="962109" y1="33639" y2="800070" stroke-dasharray="10000 15000" stroke-width="1e3"/>
 </g>
 <g fill="none" stroke="#000" stroke-linejoin="bevel" stroke-miterlimit="22.926" stroke-width="3e3">
  <line x1="480415" x2="433145" y1="899604" y2="230433"/>
  <path d="m772712 778779c96066-141984 85615-330614-25550-461116s-295733-170814-451186-98546c-155454 72268-243601 239363-215481 408471 28119 169109 165599 298686 336073 316758"/>
  <path d="m593824 395479c-7637 11287-8672 25790-2716 38048 5956 12257 18000 20406 31593 21376 13594 971 26673-5385 34309-16672"/>
  <path d="m416570 944346c1277 135 2562 203 3847 201 1297 0 2595-69 3885-205 1316-138 2625-344 3921-612 1333-276 2650-619 3951-1020 1346-414 2673-892 3977-1424 1359-554 2692-1166 4e3 -1829 1367-691 2707-1438 4018-2230 1374-829 2716-1708 4031-2630 1378-965 2724-1976 4040-3026 1381-1101 2728-2243 4046-3420 1381-1234 2728-2506 4044-3809 1381-1366 2727-2767 4043-4196 1377-1496 2721-3024 4033-4576 1373-1624 2713-3278 4021-4954 1368-1750 2701-3525 4006-5323 1359-1874 2686-3772 3982-5689"/>
  <path d="m772712 778779c-3657 5405-7521 10674-11578 15790-4064 5124-8320 10094-12758 14898-4453 4821-9088 9475-13890 13950-4826 4498-9821 8817-14968 12947-5182 4157-10516 8124-15988 11893-5516 3800-11170 7400-16945 10795-5829 3426-11781 6645-17837 9652-6120 3040-12346 5864-18660 8475-6386 2639-12862 5059-19410 7263-6627 2229-13327 4235-20086 6022-6841 1810-13741 3395-20682 4760-7029 1382-14100 2540-21200 3478-7186 951-14403 1676-21634 2183-7316 514-14649 805-21983 880-7419 75-14839-69-22249-428-7491-362-14972-942-22429-1733"/>
  <path d="m433145 230433c8104 859 16185 1967 24223 3314 8119 1359 16197 2962 24221 4800 8095 1853 16135 3946 24108 6266 8035 2339 16002 4910 23890 7704 7938 2813 15795 5851 23561 9108 7806 3273 15520 6766 23131 10469 7638 3718 15173 7649 22592 11785 7437 4145 14758 8497 21956 13047 14395 9102 28294 19003 41605 29641 13255 10594 25925 21922 37916 33920 5957 5960 11748 12087 17358 18376 5578 6248 10977 12654 16188 19212 5172 6508 10157 13164 14943 19961 4745 6739 9293 13615 13632 20622 4297 6938 8388 14004 12260 21188 3830 7108 7445 14332 10831 21661 3347 7246 6471 14595 9356 22037 2850 7350 5468 14792 7837 22311 2341 7425 4440 14925 6284 22489 1820 7464 3393 14990 4703 22563 1293 7473 2330 14990 3099 22535 760 7449 1259 14925 1484 22409 222 7392 179 14792-141 22181-315 7302-900 14594-1763 21852-852 7182-1976 14331-3378 21427-1387 7029-3045 14005-4977 20905-1916 6845-4101 13615-6554 20288-2439 6631-5141 13167-8103 19581-2949 6389-6156 12658-9613 18787-3450 6116-7149 12093-11082 17907"/>
  <path d="m623053 383396c1629 173 3248 446 4845 811 1625 373 3228 841 4799 1398 1593 563 3152 1219 4670 1958 1529 744 3017 1573 4454 2482 1441 911 2830 1901 4161 2965 1326 1059 2592 2191 3791 3391 1189 1189 2309 2444 3356 3760 1029 1295 1985 2650 2857 4058 854 1380 1628 2811 2309 4284 665 1441 1243 2922 1719 4435 465 1475 836 2981 1099 4505 129 748 232 1499 310 2254 76 745 125 1492 148 2241 45 1469-16 2942-191 4403-169 1431-447 2848-834 4233-192 685-410 1362-656 2030-244 662-515 1316-811 1957-294 639-615 1266-961 1879-344 612-715 1210-1108 1791"/>
  <path d="m623053 383396c-1482-157-2975-231-4467-216-1458 15-2916 115-4362 306-1411 187-2811 460-4188 824-1343 356-2665 797-3950 1329-1256 519-2478 1124-3649 1812-1150 677-2253 1434-3294 2270-1027 823-1992 1722-2885 2689-888 960-1702 1987-2434 3069"/>
  <path d="m433145 230433c-1693 2503-3336 5039-4935 7604-1677 2688-3305 5407-4889 8151-1657 2869-3266 5766-4833 8684-1633 3045-3221 6114-4768 9204-1608 3214-3172 6450-4696 9706-1581 3378-3118 6778-4616 10194-1551 3536-3059 7091-4529 10663-1518 3688-2995 7394-4433 11116-3009 7778-5852 15621-8554 23512-2845 8312-5533 16680-8085 25088-2666 8790-5182 17626-7563 26497-2471 9207-4798 18452-6992 27728-2262 9562-4383 19155-6373 28775-2039 9849-3940 19727-5713 29628-1802 10073-3471 20168-5012 30284-1557 10227-2983 20473-4279 30736-1303 10313-2476 20643-3518 30985-1041 10329-1953 20671-2733 31025-774 10276-1418 20563-1928 30857-505 10156-878 20318-1113 30484-232 9967-331 19936-290 29907 41 9711 215 19422 536 29129 311 9391 758 18779 1359 28157 576 9010 1294 18011 2171 26997 837 8569 1819 17124 2971 25657 553 4096 1144 8186 1778 12270 616 3965 1272 7923 1970 11873 678 3826 1395 7645 2159 11455 738 3681 1517 7354 2344 11016 796 3531 1637 7052 2524 10560 854 3375 1753 6737 2701 10086 910 3213 1866 6413 2875 9596 964 3045 1975 6076 3040 9088 1017 2875 2082 5732 3203 8567 1068 2699 2185 5377 3360 8031 1116 2518 2284 5014 3512 7480 1162 2336 2378 4645 3657 6919 1207 2149 2470 4266 3796 6345 1250 1959 2557 3883 3929 5760 1292 1768 2642 3494 4055 5166 1333 1575 2723 3100 4175 4563 1372 1380 2799 2703 4288 3953 715 600 1443 1183 2186 1746 722 549 1458 1080 2208 1591 1446 985 2945 1895 4492 2714 1485 785 3014 1486 4582 2086 1523 584 3081 1072 4665 1456 1560 379 3146 655 4741 824"/>
 </g>
</svg>
