<?xml version="1.0" encoding="UTF-8"?>
<svg enable-background="new 0 0 649.1 192.7" version="1.1" viewBox="0 0 649.1 192.7" xml:space="preserve" xmlns="http://www.w3.org/2000/svg">
    <style type="text/css">
        .svgst01 {
            fill-rule: evenodd;
            clip-rule: evenodd;
            fill: none;
            stroke: #030000;
            stroke-width: 1.5;
            stroke-linejoin: bevel;
            stroke-miterlimit: 22.9256;
        }

        .svgst02 {
            fill-rule: evenodd;
            clip-rule: evenodd;
            fill: none;
            stroke: #030000;
            stroke-width: 2;
            stroke-linejoin: bevel;
            stroke-miterlimit: 22.9256;
        }

        .svgst03 {
            fill-rule: evenodd;
            clip-rule: evenodd;
            fill: none;
            stroke: #030000;
            stroke-width: 0.4;
            stroke-linejoin: bevel;
            stroke-miterlimit: 22.9256;
        }

        .svgst04 {
            fill-rule: evenodd;
            clip-rule: evenodd;
            fill: none;
        }

        .svgst05 {
            fill: #030000;
        }


        .svgst06 {
            fill-rule: evenodd;
            clip-rule: evenodd;
            fill: #030000;
        }

        .svgst07 {
            font-size: 13.7795px;
        }

        .svgst020 {
            font-size: 14px;
        }

        .svgst021 {
            fill-rule: evenodd;
            clip-rule: evenodd;
            fill: #F8BD7D;
            stroke: #030000;
            stroke-width: 0.4;
            stroke-linejoin: bevel;
            stroke-miterlimit: 22.9256;
        }
    </style>
    <circle class="svgst01" cx="59" cy="61.6" r="10.6"/>
    <circle class="svgst01" cx="165.3" cy="61.6" r="10.6"/>
    <circle class="svgst01" cx="271.6" cy="61.6" r="10.6"/>
    <circle class="svgst01" cx="377.9" cy="61.6" r="10.6"/>
    <circle class="svgst01" cx="484.2" cy="61.6" r="10.6"/>
    <circle class="svgst01" cx="590.5" cy="61.6" r="10.6"/>
    <circle class="svgst02" cx="201.5" cy="61.6" r="1.1"/>
    <line class="svgst03" x1="324.8" x2="324.8" y1="114.7" y2="8.4"/>
    <line class="svgst03" x1="431.1" x2="431.1" y1="114.7" y2="8.4"/>
    <line class="svgst03" x1="537.4" x2="537.4" y1="114.7" y2="8.4"/>
    <line class="svgst03" x1="643.7" x2="643.7" y1="114.7" y2="8.4"/>
    <line class="svgst03" x1="112.2" x2="112.2" y1="114.7" y2="8.4"/>
    <line class="svgst03" x1="5.9" x2="5.9" y1="114.7" y2="8.4"/>
    <line class="svgst03" x1="112.2" x2="5.9" y1="8.4" y2="8.4"/>
    <line class="svgst03" x1="643.7" x2="5.9" y1="8.4" y2="8.4"/>
    <line class="svgst03" x1="643.7" x2="5.9" y1="114.7" y2="114.7"/>
    <rect class="svgst04" x="193.8" y="21" width="22.3" height="26.4"/><text class="svgst05  " x="193.8318" y="37.910301" font-family="Arial" font-size="20px">B</text>
    <rect class="svgst04" x="264.1" y="21" width="22.3" height="26.4"/><text class="svgst05  " x="264.0657" y="37.910301" font-family="Arial" font-size="20px">A<tspan baseline-shift="sub" font-size="65%">1</tspan></text>
    <rect class="svgst04" x="370.7" y="21" width="22.3" height="26.4"/><text class="svgst05  " x="370.71561" y="37.910301" font-family="Arial" font-size="20px">A<tspan baseline-shift="sub" font-size="65%">2</tspan></text>
    <rect class="svgst04" x="477.6" y="21" width="22.3" height="26.4"/><text class="svgst05  " x="477.5506" y="37.910301" font-family="Arial" font-size="20px">A<tspan baseline-shift="sub" font-size="65%">3</tspan></text>
    <rect class="svgst04" x="582.9" y="21" width="22.3" height="26.4"/><text class="svgst05  " x="582.85632" y="37.910301" font-family="Arial" font-size="20px">A<tspan baseline-shift="sub" font-size="65%">4</tspan></text>
    <rect class="svgst04" x="47.7" y="21" width="28.1" height="26.4"/><text class="svgst05  " x="47.680901" y="37.910301" font-family="Arial" font-size="20px">A<tspan baseline-shift="sub" font-size="65%">-2</tspan></text>
    <rect class="svgst04" x="152.1" y="21" width="31.8" height="29.2"/><text class="svgst05  " x="152.0672" y="37.909801" font-family="Arial" font-size="20px">A<tspan baseline-shift="sub" font-size="65%">-1</tspan></text>
    <line class="svgst03" x1="165.3" x2="165.3" y1="61.6" y2="103.7"/>
    <line class="svgst03" x1="201.4" x2="201.4" y1="61.6" y2="103.7"/>
    <line class="svgst03" x1="158.2" x2="151.1" y1="98" y2="98"/>
    <line class="svgst03" x1="208.5" x2="215.6" y1="98" y2="98"/>
    <line class="svgst03" x1="165.3" x2="201.4" y1="98" y2="98"/>
    <path class="svgst06" d="m158.2 96.8 7.1 1.2zm7.1 1.2-7.1 1.2v-2.4z"/>

    <path class="svgst06" d="m208.5 96.8-7.1 1.2zm-7.1 1.2 7.1 1.2v-2.4z"/>
    <rect class="svgst04" x="169" y="85.5" width="29.7" height="20.7"/><text x="170.44749" y="95.360001" font-family="Arial" font-size="14px">
        <tspan class="svgst05  svgst07" x="170.44749" y="95.360001" font-family="Arial" font-size="14px">L-Lx</tspan>
    </text>
    <line class="svgst03" x1="201.4" x2="201.4" y1="61.6" y2="86"/>
    <line class="svgst03" x1="271.6" x2="271.6" y1="61.6" y2="86"/>
    <line class="svgst03" x1="208.5" x2="264.5" y1="80.4" y2="80.4"/>
    <path class="svgst06" d="m208.5 79.2-7.1 1.2zm-7.1 1.2 7.1 1.2v-2.4z"/>

    <path class="svgst06" d="m264.5 79.2 7.1 1.2zm7.1 1.2-7.1 1.2v-2.4z"/>
    <rect class="svgst04" x="228" y="66.9" width="17" height="20.7"/><text x="229.25169" y="76.749199" font-family="Arial" font-size="14px">
        <tspan class="svgst05  svgst07" x="229.25169" y="76.749199" font-family="Arial" font-size="14px">Lx</tspan>
    </text>
    <line class="svgst03" x1="201.4" x2="201.4" y1="61.6" y2="139.7"/>
    <line class="svgst03" x1="377.9" x2="377.9" y1="61.6" y2="139.7"/>
    <line class="svgst03" x1="208.5" x2="370.8" y1="134.1" y2="134.1"/>
    <path class="svgst06" d="m208.5 132.9-7.1 1.2zm-7.1 1.2 7.1 1.2v-2.4z"/>

    <path class="svgst06" d="m370.8 132.9 7.1 1.2zm7.1 1.2-7.1 1.2v-2.4z"/>
    <rect class="svgst04" x="273.8" y="120.7" width="38.8" height="20.7"/><text x="278.08871" y="130.6037" font-family="Arial" font-size="14px">
        <tspan class="svgst05  svgst07" x="278.08871" y="130.6037" font-family="Arial" font-size="14px">L+Lx</tspan>
    </text>
    <line class="svgst03" x1="201.4" x2="201.4" y1="100.7" y2="162"/>
    <line class="svgst03" x1="484.2" x2="484.2" y1="61.6" y2="162"/>
    <line class="svgst03" x1="208.5" x2="477.1" y1="156.3" y2="156.3"/>
    <path class="svgst06" d="m208.5 155.1-7.1 1.2zm-7.1 1.2 7.1 1.2v-2.4z"/>

    <path class="svgst06" d="m477.1 155.1 7.1 1.2zm7.1 1.2-7.1 1.2v-2.4z"/>
    <rect class="svgst04" x="313.2" y="143.5" width="52.2" height="20.7"/><text x="317.6394" y="153.3732" font-family="Arial" font-size="14px">
        <tspan class="svgst05  svgst07" x="317.6394" y="153.3732" font-family="Arial" font-size="14px">2 L+Lx</tspan>
    </text>
    <line class="svgst03" x1="201.4" x2="201.4" y1="74.2" y2="186.6"/>
    <line class="svgst03" x1="590.5" x2="590.5" y1="61.6" y2="186.6"/>
    <line class="svgst03" x1="208.5" x2="583.4" y1="180.9" y2="180.9"/>
    <path class="svgst06" d="m208.5 179.8-7.1 1.2zm-7.1 1.1 7.1 1.2v-2.4z"/>

    <path class="svgst06" d="m583.4 179.8 7.1 1.2zm7.1 1.1-7.1 1.2v-2.4z"/>
    <rect class="svgst04" x="370.7" y="167.5" width="49.8" height="20.7"/><text x="373.98611" y="177.32339" font-family="Arial" font-size="14px">
        <tspan class="svgst05  svgst07" x="373.98611" y="177.32339" font-family="Arial" font-size="14px">3 L+Lx</tspan>
    </text>
    <line class="svgst03" x1="165.3" x2="165.3" y1="81.1" y2="144.6"/>
    <line class="svgst03" x1="59" x2="59" y1="61.6" y2="144.6"/>
    <line class="svgst03" x1="158.2" x2="66.1" y1="138.9" y2="138.9"/>
    <path class="svgst06" d="m158.2 137.7 7.1 1.2zm7.1 1.2-7.1 1.2v-2.4z"/>

    <path class="svgst06" d="m66.1 137.7-7.1 1.2zm-7.1 1.2 7.1 1.2v-2.4z"/>
    <rect class="svgst04" x="81" y="123.9" width="62.4" height="21"/><text x="85.912903" y="133.9269" font-family="Arial">
        <tspan class="svgst05  svgst020" x="85.912903" y="133.9269">L</tspan>
        <tspan class="svgst05  svgst020" x="93.712898" y="133.9269">+(L-Lx)</tspan>
    </text>
    <line class="svgst03" x1="165.3" x2="271.6" y1="61.6" y2="61.6"/>
    <path class="svgst021" d="m201.5 61.6s-0.1 0 0 0c-0.1 0-0.1 0 0 0-0.1 0-0.1 0 0 0-0.1 0 0 0 0 0z"/>
</svg>
