<?xml version="1.0" encoding="UTF-8"?>
<svg xmlns="http://www.w3.org/2000/svg" xmlns:xlink="http://www.w3.org/1999/xlink" width="149pt" height="149pt" viewBox="0 0 149 149" version="1.1">
    <g id="surface23">
        <path style="fill:none;stroke-width:0.594;stroke-linecap:square;stroke-linejoin:miter;stroke:rgb(0%,0%,0%);stroke-opacity:1;stroke-miterlimit:3.25;" d="M 212.424219 79.75 L 212.713281 79.34375 L 212.85 79.140625 L 212.982813 78.9375 L 213.103906 78.734375 L 213.221094 78.527344 L 213.326563 78.320313 L 213.420313 78.117188 L 213.498438 77.910156 L 213.564844 77.703125 L 213.615625 77.496094 L 213.650781 77.289063 L 213.670313 77.082031 L 213.674219 76.878906 L 213.6625 76.671875 L 213.63125 76.46875 L 213.584375 76.265625 L 213.521875 76.066406 L 213.447656 75.863281 L 213.353906 75.664063 L 213.248438 75.46875 L 213.13125 75.269531 L 213.002344 75.074219 L 212.865625 74.882813 L 212.721094 74.6875 L 212.56875 74.496094 L 212.248438 74.121094 L 211.611719 73.375 L 211.463281 73.1875 L 211.31875 73.003906 L 211.185938 72.816406 L 211.060938 72.632813 L 210.947656 72.445313 L 210.85 72.257813 L 210.760156 72.066406 L 210.685938 71.878906 L 210.627344 71.6875 L 210.584375 71.492188 L 210.557031 71.300781 L 210.545313 71.101563 L 210.545313 70.902344 L 210.560938 70.699219 L 210.592188 70.496094 L 210.635156 70.289063 L 210.69375 70.082031 L 210.760156 69.871094 L 210.838281 69.660156 L 210.924219 69.441406 L 211.021875 69.226563 L 211.119531 69.007813 L 211.330469 68.566406 L 211.439844 68.339844 L 211.650781 67.894531 L 211.748438 67.671875 L 211.842188 67.445313 L 211.932031 67.222656 L 212.00625 67 L 212.072656 66.78125 L 212.13125 66.542969 L 212.178125 66.308594 L 212.201563 66.074219 L 212.213281 65.847656 L 212.205469 65.621094 L 212.178125 65.398438 L 212.13125 65.183594 L 212.064844 64.96875 L 211.978906 64.761719 L 211.877344 64.554688 L 211.75625 64.355469 L 211.619531 64.160156 L 211.471094 63.96875 L 211.303125 63.78125 L 211.127344 63.597656 L 210.939844 63.417969 L 210.744531 63.242188 L 210.541406 63.070313 L 210.13125 62.726563 L 209.920313 62.558594 L 209.717188 62.390625 L 209.322656 62.050781 L 209.135156 61.878906 L 208.959375 61.707031 L 208.795313 61.53125 L 208.646875 61.351563 L 208.510156 61.167969 L 208.389063 60.980469 L 208.2875 60.789063 L 208.197656 60.589844 L 208.127344 60.390625 L 208.076563 60.183594 L 208.041406 59.96875 L 208.021875 59.75 L 208.017969 59.527344 L 208.029688 59.296875 L 208.053125 59.0625 L 208.092188 58.820313 L 208.139063 58.578125 L 208.197656 58.328125 L 208.260156 58.078125 L 208.330469 57.824219 L 208.400781 57.566406 L 208.475 57.308594 L 208.615625 56.789063 L 208.678125 56.53125 L 208.736719 56.277344 L 208.783594 56.023438 L 208.81875 55.773438 L 208.842188 55.527344 L 208.85 55.285156 L 208.846094 55.046875 L 208.822656 54.816406 L 208.783594 54.59375 L 208.725 54.378906 L 208.650781 54.167969 L 208.557031 53.964844 L 208.447656 53.769531 L 208.31875 53.582031 L 208.174219 53.40625 L 208.014063 53.230469 L 207.85 53.078125 L 207.674219 52.929688 L 207.490625 52.785156 L 207.295313 52.648438 L 207.092188 52.511719 L 206.88125 52.382813 L 206.451563 52.132813 L 206.232813 52.007813 L 206.014063 51.886719 L 205.584375 51.640625 L 205.377344 51.519531 L 205.174219 51.390625 L 204.978906 51.261719 L 204.795313 51.128906 L 204.619531 50.992188 L 204.459375 50.851563 L 204.307031 50.703125 L 204.170313 50.546875 L 204.045313 50.386719 L 203.935938 50.21875 L 203.838281 50.046875 L 203.75625 49.863281 L 203.685938 49.675781 L 203.63125 49.476563 L 203.588281 49.273438 L 203.557031 49.0625 L 203.5375 48.847656 L 203.529688 48.621094 L 203.529688 48.394531 L 203.5375 48.160156 L 203.549219 47.917969 L 203.56875 47.675781 L 203.592188 47.429688 L 203.619531 47.183594 L 203.689844 46.433594 L 203.705469 46.1875 L 203.717188 45.941406 L 203.721094 45.699219 L 203.717188 45.460938 L 203.701563 45.230469 L 203.678125 45.003906 L 203.639063 44.78125 L 203.592188 44.570313 L 203.529688 44.363281 L 203.451563 44.167969 L 203.361719 43.980469 L 203.25625 43.800781 L 203.135156 43.628906 L 203.002344 43.46875 L 202.853906 43.316406 L 202.69375 43.175781 L 202.521875 43.042969 L 202.334375 42.917969 L 202.139063 42.800781 L 201.932031 42.6875 L 201.717188 42.585938 L 201.494531 42.488281 L 201.267969 42.394531 L 200.803125 42.21875 L 200.56875 42.136719 L 200.338281 42.058594 L 199.88125 41.894531 L 199.654688 41.8125 L 199.435938 41.726563 L 199.225 41.636719 L 199.021875 41.539063 L 198.826563 41.441406 L 198.639063 41.332031 L 198.463281 41.21875 L 198.299219 41.097656 L 198.146875 40.96875 L 198.00625 40.828125 L 197.877344 40.683594 L 197.760156 40.523438 L 197.654688 40.359375 L 197.560938 40.183594 L 197.478906 40 L 197.404688 39.808594 L 197.346094 39.605469 L 197.291406 39.394531 L 197.248438 39.179688 L 197.209375 38.957031 L 197.182031 38.726563 L 197.154688 38.492188 L 197.135156 38.253906 L 197.115625 38.011719 L 197.076563 37.519531 L 197.057031 37.277344 L 197.0375 37.03125 L 197.010156 36.789063 L 196.978906 36.550781 L 196.939844 36.320313 L 196.896875 36.089844 L 196.842188 35.867188 L 196.779688 35.65625 L 196.705469 35.449219 L 196.619531 35.25 L 196.525781 35.0625 L 196.416406 34.886719 L 196.299219 34.71875 L 196.166406 34.566406 L 196.025781 34.417969 L 195.869531 34.285156 L 195.701563 34.164063 L 195.525781 34.050781 L 195.334375 33.949219 L 195.135156 33.859375 L 194.928125 33.777344 L 194.713281 33.703125 L 194.490625 33.636719 L 194.260156 33.578125 L 194.025781 33.527344 L 193.7875 33.480469 L 193.549219 33.4375 L 193.307031 33.394531 L 192.580469 33.277344 L 192.346094 33.234375 L 192.111719 33.1875 L 191.889063 33.136719 L 191.650781 33.078125 L 191.420313 33.007813 L 191.201563 32.929688 L 190.990625 32.84375 L 190.791406 32.742188 L 190.603906 32.632813 L 190.432031 32.507813 L 190.267969 32.371094 L 190.119531 32.222656 L 189.978906 32.058594 L 189.85 31.882813 L 189.736719 31.695313 L 189.627344 31.492188 L 189.529688 31.28125 L 189.44375 31.058594 L 189.361719 30.828125 L 189.2875 30.585938 L 189.213281 30.339844 L 189.080469 29.832031 L 189.017969 29.574219 L 188.951563 29.316406 L 188.810938 28.804688 L 188.732813 28.554688 L 188.650781 28.3125 L 188.557031 28.074219 L 188.459375 27.847656 L 188.35 27.632813 L 188.232813 27.429688 L 188.103906 27.234375 L 187.963281 27.058594 L 187.810938 26.894531 L 187.642969 26.746094 L 187.467188 26.613281 L 187.279688 26.492188 L 187.084375 26.390625 L 186.873438 26.300781 L 186.654688 26.230469 L 186.424219 26.167969 L 186.185938 26.121094 L 185.939844 26.085938 L 185.689844 26.058594 L 185.432031 26.042969 L 185.170313 26.035156 L 184.904688 26.03125 L 184.639063 26.03125 L 184.373438 26.035156 L 184.103906 26.039063 L 183.580469 26.039063 L 183.326563 26.035156 L 183.076563 26.023438 L 182.830469 26.003906 L 182.592188 25.972656 L 182.365625 25.933594 L 182.142969 25.882813 L 181.932031 25.816406 L 181.732813 25.738281 L 181.5375 25.644531 L 181.357813 25.535156 L 181.182031 25.410156 L 181.021875 25.273438 L 180.865625 25.121094 L 180.728906 24.964844 L 180.6 24.796875 L 180.475 24.617188 L 180.357813 24.429688 L 180.244531 24.230469 L 180.135156 24.023438 L 179.924219 23.59375 L 179.822656 23.371094 L 179.721094 23.144531 L 179.514063 22.691406 L 179.408594 22.464844 L 179.303125 22.246094 L 179.072656 21.820313 L 178.951563 21.617188 L 178.822656 21.425781 L 178.689844 21.242188 L 178.549219 21.070313 L 178.400781 20.914063 L 178.244531 20.769531 L 178.080469 20.636719 L 177.908594 20.519531 L 177.728906 20.417969 L 177.541406 20.332031 L 177.35 20.257813 L 177.146875 20.199219 L 176.939844 20.15625 L 176.725 20.125 L 176.502344 20.109375 L 176.275781 20.105469 L 176.045313 20.113281 L 175.807031 20.128906 L 175.56875 20.152344 L 175.326563 20.183594 L 175.084375 20.222656 L 174.842188 20.265625 L 174.35 20.359375 L 174.107813 20.40625 L 173.865625 20.449219 L 173.627344 20.488281 L 173.392969 20.523438 L 173.1625 20.554688 L 172.935938 20.574219 L 172.713281 20.585938 L 172.494531 20.585938 L 172.283594 20.574219 L 172.076563 20.550781 L 171.877344 20.515625 L 171.685938 20.464844 L 171.498438 20.398438 L 171.314844 20.320313 L 171.139063 20.226563 L 170.967188 20.121094 L 170.803125 20 L 170.642969 19.863281 L 170.486719 19.71875 L 170.338281 19.558594 L 170.189844 19.390625 L 170.045313 19.210938 L 169.760156 18.828125 L 169.607813 18.613281 L 169.459375 18.394531 L 169.154688 17.949219 L 168.998438 17.726563 L 168.842188 17.511719 L 168.517969 17.097656 L 168.35 16.90625 L 168.178125 16.726563 L 167.998438 16.5625 L 167.814844 16.410156 L 167.623438 16.273438 L 167.428125 16.15625 L 167.225 16.058594 L 167.017969 15.976563 L 166.803125 15.914063 L 166.580469 15.871094 L 166.357813 15.84375 L 166.127344 15.835938 L 165.889063 15.847656 L 165.650781 15.871094 L 165.408594 15.914063 L 165.1625 15.96875 L 164.9125 16.035156 L 164.6625 16.109375 L 164.408594 16.195313 L 164.154688 16.285156 L 163.904688 16.378906 L 163.650781 16.472656 L 163.150781 16.660156 L 162.904688 16.75 L 162.658594 16.828125 L 162.420313 16.902344 L 162.182031 16.960938 L 161.947656 17.011719 L 161.717188 17.046875 L 161.490625 17.066406 L 161.271875 17.070313 L 161.053125 17.054688 L 160.842188 17.027344 L 160.63125 16.976563 L 160.428125 16.910156 L 160.225 16.828125 L 160.025781 16.726563 L 159.830469 16.609375 L 159.639063 16.476563 L 159.447656 16.332031 L 159.25625 16.171875 L 158.88125 15.824219 L 158.697656 15.640625 L 158.135156 15.066406 L 157.94375 14.875 L 157.752344 14.6875 L 157.560938 14.503906 L 157.361719 14.332031 L 157.166406 14.167969 L 156.963281 14.019531 L 156.760156 13.882813 L 156.553125 13.761719 L 156.346094 13.660156 L 156.139063 13.574219 L 155.924219 13.503906 L 155.709375 13.457031 L 155.494531 13.425781 L 155.275781 13.414063 L 155.053125 13.421875 L 154.830469 13.445313 L 154.603906 13.488281 L 154.377344 13.546875 L 154.150781 13.621094 L 153.920313 13.707031 L 153.689844 13.808594 L 153.459375 13.921875 L 153.002344 14.167969 L 152.771875 14.300781 L 152.545313 14.4375 L 152.092188 14.707031 L 151.869531 14.835938 L 151.642969 14.960938 L 151.424219 15.078125 L 151.201563 15.183594 L 150.982813 15.28125 L 150.767969 15.363281 L 150.549219 15.433594 L 150.334375 15.488281 L 150.123438 15.523438 L 149.9125 15.546875 L 149.701563 15.546875 L 149.490625 15.535156 L 149.279688 15.503906 L 149.072656 15.453125 L 148.861719 15.390625 L 148.654688 15.308594 L 148.44375 15.210938 L 148.232813 15.101563 L 148.025781 14.980469 L 147.814844 14.847656 L 147.603906 14.710938 L 147.389063 14.5625 L 146.963281 14.257813 L 146.748438 14.101563 L 146.533594 13.949219 L 146.1 13.65625 L 145.88125 13.519531 L 145.658594 13.394531 L 145.439844 13.28125 L 145.221094 13.183594 L 144.998438 13.097656 L 144.779688 13.027344 L 144.557031 12.976563 L 144.338281 12.941406 L 144.115625 12.925781 L 143.896875 12.929688 L 143.678125 12.949219 L 143.463281 12.992188 L 143.244531 13.050781 L 143.029688 13.128906 L 142.81875 13.222656 L 142.603906 13.328125 L 142.408594 13.445313 L 142.213281 13.570313 L 141.826563 13.851563 L 141.639063 14 L 141.447656 14.15625 L 141.072656 14.476563 L 140.885156 14.640625 L 140.701563 14.796875 L 140.330469 15.105469 L 140.142969 15.25 L 139.959375 15.382813 L 139.775781 15.511719 L 139.588281 15.625 L 139.400781 15.730469 L 139.213281 15.820313 L 139.025781 15.894531 L 138.834375 15.957031 L 138.642969 16.003906 L 138.447656 16.039063 L 138.252344 16.054688 L 138.053125 16.054688 L 137.853906 16.042969 L 137.650781 16.015625 L 137.447656 15.976563 L 137.240625 15.921875 L 137.029688 15.859375 L 136.81875 15.785156 L 136.603906 15.699219 L 136.389063 15.605469 L 136.170313 15.507813 L 135.951563 15.40625 L 135.50625 15.191406 L 135.060938 14.980469 L 134.615625 14.785156 L 134.392969 14.695313 L 134.170313 14.617188 L 133.947656 14.546875 L 133.728906 14.488281 L 133.514063 14.441406 L 133.299219 14.410156 L 133.084375 14.390625 L 132.877344 14.386719 L 132.670313 14.402344 L 132.467188 14.429688 L 132.267969 14.472656 L 132.072656 14.535156 L 131.88125 14.613281 L 131.689844 14.703125 L 131.50625 14.8125 L 131.326563 14.933594 L 131.146875 15.066406 L 130.975 15.210938 L 130.803125 15.371094 L 130.639063 15.535156 L 130.471094 15.710938 L 130.310938 15.890625 L 129.994531 16.269531 L 129.822656 16.476563 L 129.654688 16.683594 L 129.31875 17.085938 L 129.146875 17.28125 L 128.978906 17.464844 L 128.803125 17.640625 L 128.627344 17.804688 L 128.451563 17.953125 L 128.267969 18.089844 L 128.080469 18.210938 L 127.889063 18.3125 L 127.69375 18.402344 L 127.490625 18.46875 L 127.2875 18.523438 L 127.072656 18.558594 L 126.853906 18.578125 L 126.63125 18.582031 L 126.404688 18.570313 L 126.170313 18.546875 L 125.928125 18.507813 L 125.685938 18.460938 L 125.439844 18.40625 L 125.189844 18.34375 L 124.935938 18.273438 L 124.678125 18.203125 L 124.1625 18.054688 L 123.904688 17.988281 L 123.646875 17.925781 L 123.392969 17.867188 L 123.139063 17.820313 L 122.889063 17.785156 L 122.642969 17.761719 L 122.400781 17.75 L 122.166406 17.753906 L 121.935938 17.773438 L 121.713281 17.8125 L 121.494531 17.867188 L 121.283594 17.941406 L 121.084375 18.03125 L 120.889063 18.140625 L 120.701563 18.269531 L 120.521875 18.410156 L 120.35 18.570313 L 120.182031 18.742188 L 120.025781 18.929688 L 119.873438 19.128906 L 119.725 19.339844 L 119.584375 19.558594 L 119.310938 20.011719 L 119.045313 20.480469 L 118.7875 20.941406 L 118.654688 21.164063 L 118.521875 21.382813 L 118.38125 21.589844 L 118.240625 21.789063 L 118.096094 21.976563 L 117.94375 22.152344 L 117.783594 22.308594 L 117.619531 22.457031 L 117.455469 22.578125 L 117.2875 22.683594 L 117.111719 22.777344 L 116.932031 22.859375 L 116.740625 22.925781 L 116.545313 22.976563 L 116.338281 23.019531 L 116.127344 23.046875 L 115.908594 23.066406 L 115.685938 23.070313 L 115.455469 23.070313 L 115.221094 23.0625 L 114.982813 23.046875 L 114.740625 23.027344 L 114.494531 23.003906 L 114.248438 22.976563 L 113.748438 22.929688 L 113.502344 22.910156 L 113.252344 22.890625 L 113.010156 22.882813 L 112.767969 22.878906 L 112.533594 22.882813 L 112.303125 22.898438 L 112.076563 22.925781 L 111.857813 22.964844 L 111.646875 23.015625 L 111.44375 23.078125 L 111.248438 23.15625 L 111.060938 23.25 L 110.88125 23.355469 L 110.713281 23.476563 L 110.557031 23.613281 L 110.404688 23.761719 L 110.264063 23.921875 L 110.13125 24.097656 L 110.00625 24.28125 L 109.889063 24.476563 L 109.779688 24.683594 L 109.678125 24.898438 L 109.580469 25.121094 L 109.486719 25.347656 L 109.314844 25.8125 L 108.982813 26.75 L 108.900781 26.976563 L 108.810938 27.199219 L 108.717188 27.414063 L 108.619531 27.621094 L 108.517969 27.816406 L 108.408594 28.003906 L 108.2875 28.179688 L 108.1625 28.34375 L 108.029688 28.496094 L 107.885156 28.636719 L 107.732813 28.761719 L 107.56875 28.878906 L 107.396875 28.980469 L 107.217188 29.070313 L 107.025781 29.152344 L 106.826563 29.21875 L 106.623438 29.277344 L 106.408594 29.328125 L 106.189844 29.367188 L 105.967188 29.402344 L 105.732813 29.429688 L 105.498438 29.453125 L 105.260156 29.472656 L 105.017969 29.492188 L 104.771875 29.511719 L 104.529688 29.527344 L 104.283594 29.550781 L 104.041406 29.574219 L 103.803125 29.601563 L 103.564844 29.632813 L 103.334375 29.675781 L 103.111719 29.722656 L 102.892969 29.78125 L 102.682031 29.847656 L 102.478906 29.925781 L 102.283594 30.011719 L 102.1 30.109375 L 101.928125 30.222656 L 101.767969 30.34375 L 101.615625 30.480469 L 101.475 30.628906 L 101.346094 30.785156 L 101.225 30.957031 L 101.119531 31.136719 L 101.017969 31.328125 L 100.932031 31.527344 L 100.853906 31.738281 L 100.783594 31.957031 L 100.721094 32.179688 L 100.6625 32.410156 L 100.611719 32.644531 L 100.564844 32.882813 L 100.525781 33.125 L 100.482813 33.367188 L 100.404688 33.847656 L 100.365625 34.085938 L 100.322656 34.320313 L 100.275781 34.550781 L 100.225 34.773438 L 100.166406 34.992188 L 100.1 35.203125 L 100.029688 35.402344 L 99.947656 35.597656 L 99.857813 35.78125 L 99.760156 35.953125 L 99.646875 36.117188 L 99.525781 36.269531 L 99.392969 36.414063 L 99.248438 36.546875 L 99.096094 36.667969 L 98.928125 36.785156 L 98.752344 36.886719 L 98.56875 36.984375 L 98.373438 37.074219 L 98.166406 37.152344 L 97.955469 37.230469 L 97.736719 37.300781 L 97.510156 37.367188 L 97.279688 37.429688 L 97.025781 37.496094 L 96.767969 37.558594 L 96.252344 37.691406 L 95.998438 37.761719 L 95.748438 37.839844 L 95.502344 37.917969 L 95.264063 38.007813 L 95.033594 38.101563 L 94.814844 38.207031 L 94.607813 38.320313 L 94.408594 38.445313 L 94.225 38.582031 L 94.057031 38.730469 L 93.904688 38.886719 L 93.764063 39.058594 L 93.639063 39.242188 L 93.529688 39.433594 L 93.435938 39.640625 L 93.357813 39.855469 L 93.291406 40.078125 L 93.240625 40.3125 L 93.197656 40.554688 L 93.170313 40.804688 L 93.150781 41.058594 L 93.139063 41.316406 L 93.13125 41.582031 L 93.13125 41.847656 L 93.139063 42.378906 L 93.139063 42.640625 L 93.142969 42.902344 L 93.139063 43.160156 L 93.13125 43.414063 L 93.115625 43.660156 L 93.088281 43.898438 L 93.053125 44.132813 L 93.00625 44.355469 L 92.947656 44.570313 L 92.877344 44.777344 L 92.791406 44.972656 L 92.689844 45.160156 L 92.572656 45.335938 L 92.44375 45.503906 L 92.295313 45.660156 L 92.135156 45.8125 L 91.963281 45.953125 L 91.775781 46.085938 L 91.576563 46.214844 L 91.365625 46.335938 L 90.920313 46.570313 L 90.685938 46.679688 L 90.447656 46.789063 L 89.721094 47.117188 L 89.482813 47.230469 L 89.248438 47.347656 L 89.017969 47.46875 L 88.799219 47.597656 L 88.592188 47.730469 L 88.392969 47.875 L 88.205469 48.023438 L 88.045313 48.167969 L 87.896875 48.320313 L 87.764063 48.484375 L 87.642969 48.652344 L 87.541406 48.828125 L 87.447656 49.015625 L 87.373438 49.207031 L 87.310938 49.40625 L 87.264063 49.613281 L 87.232813 49.824219 L 87.213281 50.042969 L 87.205469 50.269531 L 87.209375 50.5 L 87.225 50.730469 L 87.248438 50.96875 L 87.275781 51.210938 L 87.353906 51.695313 L 87.447656 52.183594 L 87.494531 52.425781 L 87.5375 52.667969 L 87.580469 52.90625 L 87.615625 53.140625 L 87.646875 53.375 L 87.670313 53.601563 L 87.682031 53.824219 L 87.685938 54.042969 L 87.678125 54.253906 L 87.658594 54.460938 L 87.627344 54.664063 L 87.580469 54.859375 L 87.521875 55.046875 L 87.447656 55.230469 L 87.357813 55.40625 L 87.25625 55.578125 L 87.139063 55.746094 L 87.010156 55.90625 L 86.865625 56.0625 L 86.713281 56.214844 L 86.545313 56.363281 L 86.369531 56.507813 L 85.994531 56.792969 L 85.189844 57.351563 L 84.982813 57.492188 L 84.779688 57.632813 L 84.584375 57.777344 L 84.389063 57.925781 L 84.205469 58.074219 L 84.025781 58.230469 L 83.861719 58.390625 L 83.705469 58.550781 L 83.560938 58.71875 L 83.432031 58.894531 L 83.314844 59.070313 L 83.213281 59.253906 L 83.127344 59.441406 L 83.060938 59.636719 L 83.00625 59.835938 L 82.967188 60.039063 L 82.94375 60.265625 L 82.939844 60.496094 L 82.947656 60.730469 L 82.975 60.96875 L 83.017969 61.210938 L 83.072656 61.457031 L 83.139063 61.707031 L 83.217188 61.957031 L 83.299219 62.207031 L 83.392969 62.460938 L 83.580469 62.964844 L 83.767969 63.464844 L 83.853906 63.707031 L 83.935938 63.953125 L 84.00625 64.191406 L 84.064844 64.429688 L 84.115625 64.660156 L 84.146875 64.890625 L 84.166406 65.117188 L 84.170313 65.335938 L 84.154688 65.554688 L 84.123438 65.765625 L 84.076563 65.972656 L 84.010156 66.179688 L 83.924219 66.378906 L 83.826563 66.578125 L 83.709375 66.773438 L 83.576563 66.964844 L 83.432031 67.15625 L 83.271875 67.34375 L 83.103906 67.53125 L 82.924219 67.71875 L 82.553125 68.089844 L 82.357813 68.277344 L 82.166406 68.464844 L 81.7875 68.84375 L 81.607813 69.039063 L 81.435938 69.234375 L 81.271875 69.429688 L 81.123438 69.632813 L 80.986719 69.835938 L 80.865625 70.039063 L 80.760156 70.25 L 80.674219 70.460938 L 80.603906 70.679688 L 80.553125 70.894531 L 80.525781 71.117188 L 80.514063 71.339844 L 80.521875 71.566406 L 80.549219 71.792969 L 80.592188 72.023438 L 80.654688 72.253906 L 80.732813 72.484375 L 80.826563 72.714844 L 80.928125 72.949219 L 81.045313 73.183594 L 81.166406 73.417969 L 81.299219 73.648438 L 81.572656 74.113281 L 81.705469 74.339844 L 81.838281 74.5625 L 81.967188 74.789063 L 82.088281 75.007813 L 82.205469 75.230469 L 82.307031 75.449219 L 82.400781 75.667969 L 82.482813 75.882813 L 82.549219 76.097656 L 82.596094 76.3125 L 82.63125 76.523438 L 82.646875 76.734375 L 82.646875 76.945313 L 82.63125 77.15625 L 82.596094 77.363281 L 82.541406 77.574219 L 82.475 77.78125 L 82.389063 77.988281 L 82.291406 78.199219 L 82.178125 78.40625 L 82.057031 78.617188 L 81.924219 78.828125 L 81.635156 79.25 L 81.482813 79.460938 L 81.326563 79.675781 L 81.021875 80.105469 L 80.873438 80.320313 L 80.732813 80.539063 L 80.6 80.757813 L 80.475 80.976563 L 80.365625 81.195313 L 80.267969 81.417969 L 80.185938 81.636719 L 80.119531 81.855469 L 80.06875 82.078125 L 80.0375 82.296875 L 80.025781 82.515625 L 80.029688 82.734375 L 80.057031 82.953125 L 80.1 83.167969 L 80.1625 83.382813 L 80.240625 83.597656 L 80.334375 83.8125 L 80.447656 84.023438 L 80.572656 84.230469 L 80.709375 84.441406 L 80.857813 84.648438 L 81.014063 84.851563 L 81.346094 85.257813 L 81.689844 85.65625 L 82.029688 86.054688 L 82.189844 86.25 L 82.346094 86.449219 L 82.490625 86.648438 L 82.623438 86.84375 L 82.744531 87.042969 L 82.853906 87.242188 L 82.94375 87.445313 L 83.021875 87.648438 L 83.076563 87.839844 L 83.119531 88.03125 L 83.146875 88.222656 L 83.158594 88.421875 L 83.154688 88.617188 L 83.135156 88.820313 L 83.103906 89.023438 L 83.060938 89.226563 L 83.002344 89.433594 L 82.932031 89.644531 L 82.853906 89.855469 L 82.767969 90.070313 L 82.674219 90.289063 L 82.572656 90.503906 L 82.365625 90.945313 L 82.25625 91.167969 L 82.045313 91.613281 L 81.947656 91.835938 L 81.853906 92.058594 L 81.767969 92.277344 L 81.69375 92.5 L 81.627344 92.71875 L 81.572656 92.9375 L 81.529688 93.152344 L 81.502344 93.367188 L 81.490625 93.578125 L 81.490625 93.785156 L 81.50625 93.992188 L 81.541406 94.191406 L 81.592188 94.390625 L 81.654688 94.585938 L 81.736719 94.773438 L 81.834375 94.960938 L 81.94375 95.144531 L 82.06875 95.324219 L 82.205469 95.5 L 82.353906 95.671875 L 82.514063 95.839844 L 82.682031 96.007813 L 82.857813 96.167969 L 83.228906 96.488281 L 83.986719 97.113281 L 84.170313 97.265625 L 84.35 97.421875 L 84.521875 97.578125 L 84.685938 97.738281 L 84.838281 97.898438 L 84.982813 98.0625 L 85.115625 98.226563 L 85.232813 98.394531 L 85.338281 98.570313 L 85.432031 98.746094 L 85.510156 98.925781 L 85.572656 99.113281 L 85.619531 99.304688 L 85.654688 99.496094 L 85.678125 99.699219 L 85.682031 99.902344 L 85.678125 100.128906 L 85.654688 100.359375 L 85.623438 100.597656 L 85.576563 100.839844 L 85.525781 101.085938 L 85.463281 101.332031 L 85.326563 101.839844 L 85.252344 102.097656 L 85.111719 102.613281 L 85.045313 102.867188 L 84.986719 103.125 L 84.935938 103.378906 L 84.896875 103.628906 L 84.865625 103.875 L 84.853906 104.117188 L 84.85 104.355469 L 84.865625 104.585938 L 84.896875 104.8125 L 84.947656 105.03125 L 85.014063 105.242188 L 85.1 105.445313 L 85.201563 105.644531 L 85.322656 105.832031 L 85.455469 106.015625 L 85.611719 106.1875 L 85.779688 106.355469 L 85.959375 106.515625 L 86.154688 106.671875 L 86.357813 106.820313 L 86.572656 106.964844 L 86.795313 107.101563 L 87.025781 107.238281 L 87.486719 107.5 L 87.721094 107.632813 L 87.951563 107.761719 L 88.396875 108.023438 L 88.607813 108.160156 L 88.810938 108.300781 L 89.002344 108.445313 L 89.182031 108.59375 L 89.346094 108.75 L 89.498438 108.910156 L 89.63125 109.082031 L 89.752344 109.257813 L 89.857813 109.441406 L 89.947656 109.636719 L 90.017969 109.839844 L 90.076563 110.046875 L 90.119531 110.265625 L 90.150781 110.492188 L 90.166406 110.726563 L 90.174219 110.96875 L 90.170313 111.214844 L 90.158594 111.46875 L 90.139063 111.722656 L 90.115625 111.984375 L 90.060938 112.515625 L 90.014063 113.046875 L 89.994531 113.292969 L 89.982813 113.535156 L 89.978906 113.777344 L 89.982813 114.011719 L 89.994531 114.246094 L 90.017969 114.472656 L 90.053125 114.691406 L 90.103906 114.902344 L 90.1625 115.109375 L 90.236719 115.304688 L 90.326563 115.492188 L 90.428125 115.671875 L 90.545313 115.84375 L 90.678125 116.003906 L 90.822656 116.15625 L 90.978906 116.300781 L 91.150781 116.433594 L 91.330469 116.558594 L 91.525781 116.679688 L 91.728906 116.789063 L 91.939844 116.894531 L 92.158594 116.992188 L 92.611719 117.175781 L 92.846094 117.261719 L 93.080469 117.34375 L 93.553125 117.507813 L 93.783594 117.589844 L 94.010156 117.675781 L 94.447656 117.851563 L 94.654688 117.949219 L 94.853906 118.050781 L 95.045313 118.15625 L 95.225 118.273438 L 95.392969 118.394531 L 95.549219 118.527344 L 95.689844 118.664063 L 95.822656 118.816406 L 95.939844 118.972656 L 96.049219 119.140625 L 96.142969 119.320313 L 96.225 119.507813 L 96.299219 119.703125 L 96.361719 119.910156 L 96.4125 120.121094 L 96.455469 120.34375 L 96.494531 120.570313 L 96.521875 120.804688 L 96.549219 121.042969 L 96.56875 121.285156 L 96.607813 121.777344 L 96.627344 122.027344 L 96.646875 122.273438 L 96.670313 122.523438 L 96.697656 122.765625 L 96.732813 123.007813 L 96.771875 123.242188 L 96.81875 123.472656 L 96.877344 123.695313 L 96.94375 123.910156 L 97.021875 124.117188 L 97.119531 124.328125 L 97.228906 124.527344 L 97.353906 124.71875 L 97.494531 124.890625 L 97.650781 125.054688 L 97.81875 125.203125 L 98.002344 125.339844 L 98.197656 125.460938 L 98.408594 125.570313 L 98.627344 125.667969 L 98.861719 125.753906 L 99.1 125.832031 L 99.35 125.898438 L 99.603906 125.957031 L 99.865625 126.011719 L 100.396875 126.105469 L 100.928125 126.191406 L 101.189844 126.234375 L 101.447656 126.28125 L 101.701563 126.335938 L 101.947656 126.394531 L 102.182031 126.460938 L 102.408594 126.535156 L 102.627344 126.621094 L 102.830469 126.714844 L 103.025781 126.824219 L 103.205469 126.945313 L 103.377344 127.078125 L 103.533594 127.226563 L 103.678125 127.386719 L 103.810938 127.558594 L 103.932031 127.746094 L 104.041406 127.945313 L 104.142969 128.160156 L 104.236719 128.382813 L 104.31875 128.613281 L 104.396875 128.855469 L 104.471094 129.101563 L 104.541406 129.355469 L 104.740625 130.140625 L 104.807031 130.398438 L 104.88125 130.65625 L 104.959375 130.910156 L 105.041406 131.160156 L 105.13125 131.398438 L 105.232813 131.628906 L 105.342188 131.851563 L 105.459375 132.058594 L 105.592188 132.253906 L 105.732813 132.433594 L 105.889063 132.601563 L 106.053125 132.75 L 106.232813 132.886719 L 106.420313 133.007813 L 106.623438 133.109375 L 106.834375 133.199219 L 107.057031 133.273438 L 107.291406 133.335938 L 107.533594 133.382813 L 107.783594 133.417969 L 108.033594 133.441406 L 108.291406 133.457031 L 108.549219 133.464844 L 108.814844 133.46875 L 109.080469 133.46875 L 109.346094 133.464844 L 109.869531 133.457031 L 110.13125 133.457031 L 110.385156 133.464844 L 110.635156 133.476563 L 110.877344 133.496094 L 111.111719 133.527344 L 111.338281 133.566406 L 111.557031 133.617188 L 111.767969 133.683594 L 111.967188 133.761719 L 112.158594 133.855469 L 112.342188 133.960938 L 112.514063 134.085938 L 112.678125 134.222656 L 112.830469 134.375 L 112.975 134.539063 L 113.115625 134.71875 L 113.244531 134.910156 L 113.369531 135.113281 L 113.490625 135.328125 L 113.603906 135.550781 L 113.717188 135.78125 L 113.826563 136.015625 L 114.045313 136.496094 L 114.264063 136.980469 L 114.498438 137.449219 L 114.623438 137.671875 L 114.752344 137.886719 L 114.889063 138.089844 L 115.033594 138.285156 L 115.185938 138.464844 L 115.346094 138.628906 L 115.514063 138.777344 L 115.689844 138.914063 L 115.877344 139.03125 L 116.072656 139.132813 L 116.275781 139.214844 L 116.486719 139.28125 L 116.709375 139.332031 L 116.935938 139.367188 L 117.170313 139.386719 L 117.4125 139.394531 L 117.658594 139.386719 L 117.908594 139.371094 L 118.1625 139.34375 L 118.420313 139.304688 L 118.682031 139.265625 L 118.94375 139.21875 L 119.463281 139.117188 L 119.721094 139.070313 L 119.975 139.023438 L 120.228906 138.984375 L 120.478906 138.953125 L 120.705469 138.929688 L 120.928125 138.917969 L 121.142969 138.914063 L 121.353906 138.921875 L 121.560938 138.941406 L 121.764063 138.972656 L 121.955469 139.019531 L 122.146875 139.078125 L 122.326563 139.152344 L 122.50625 139.238281 L 122.674219 139.34375 L 122.842188 139.457031 L 123.002344 139.585938 L 123.158594 139.730469 L 123.310938 139.882813 L 123.459375 140.046875 L 123.603906 140.222656 L 123.748438 140.40625 L 124.025781 140.792969 L 124.166406 140.992188 L 124.303125 141.195313 L 124.584375 141.605469 L 124.725 141.804688 L 124.869531 142.003906 L 125.014063 142.195313 L 125.166406 142.382813 L 125.31875 142.558594 L 125.478906 142.726563 L 125.639063 142.882813 L 125.807031 143.027344 L 125.978906 143.160156 L 126.154688 143.273438 L 126.338281 143.378906 L 126.525781 143.464844 L 126.717188 143.535156 L 126.916406 143.589844 L 127.119531 143.628906 L 127.326563 143.652344 L 127.5375 143.660156 L 127.752344 143.65625 L 127.971094 143.636719 L 128.19375 143.605469 L 128.416406 143.558594 L 128.642969 143.503906 L 128.873438 143.441406 L 129.103906 143.367188 L 129.334375 143.289063 L 129.56875 143.207031 L 130.029688 143.03125 L 130.490625 142.859375 L 130.94375 142.699219 L 131.166406 142.632813 L 131.385156 142.570313 L 131.6 142.519531 L 131.814844 142.476563 L 132.025781 142.449219 L 132.228906 142.433594 L 132.432031 142.429688 L 132.63125 142.441406 L 132.846094 142.46875 L 133.053125 142.519531 L 133.25625 142.582031 L 133.459375 142.664063 L 133.654688 142.761719 L 133.85 142.878906 L 134.041406 143.007813 L 134.232813 143.152344 L 134.420313 143.308594 L 134.607813 143.476563 L 134.978906 143.835938 L 135.728906 144.597656 L 135.916406 144.785156 L 136.111719 144.964844 L 136.303125 145.140625 L 136.502344 145.304688 L 136.701563 145.453125 L 136.904688 145.59375 L 137.107813 145.714844 L 137.31875 145.824219 L 137.529688 145.914063 L 137.740625 145.984375 L 137.959375 146.039063 L 138.178125 146.070313 L 138.400781 146.085938 L 138.627344 146.082031 L 138.853906 146.058594 L 139.080469 146.015625 L 139.310938 145.957031 L 139.541406 145.882813 L 139.771875 145.792969 L 140.00625 145.691406 L 140.236719 145.578125 L 140.471094 145.457031 L 140.935938 145.195313 L 141.166406 145.058594 L 141.396875 144.917969 L 141.853906 144.652344 L 142.076563 144.527344 L 142.303125 144.410156 L 142.525781 144.300781 L 142.748438 144.207031 L 142.967188 144.125 L 143.185938 144.054688 L 143.400781 144.003906 L 143.619531 143.96875 L 143.834375 143.953125 L 144.045313 143.953125 L 144.260156 143.96875 L 144.471094 144.007813 L 144.682031 144.058594 L 144.896875 144.128906 L 145.107813 144.21875 L 145.31875 144.316406 L 145.529688 144.433594 L 145.744531 144.558594 L 146.170313 144.839844 L 146.373438 144.980469 L 146.572656 145.125 L 146.978906 145.417969 L 147.185938 145.5625 L 147.389063 145.703125 L 147.803125 145.96875 L 148.010156 146.085938 L 148.217188 146.195313 L 148.428125 146.292969 L 148.635156 146.378906 L 148.846094 146.449219 L 149.053125 146.503906 L 149.260156 146.542969 L 149.471094 146.566406 L 149.678125 146.574219 L 149.885156 146.566406 L 150.092188 146.539063 L 150.295313 146.492188 L 150.502344 146.433594 L 150.705469 146.359375 L 150.904688 146.265625 L 151.107813 146.164063 L 151.307031 146.046875 L 151.502344 145.917969 L 151.892969 145.632813 L 152.088281 145.476563 L 152.279688 145.320313 L 152.658594 144.992188 L 152.85 144.832031 L 153.0375 144.667969 L 153.225 144.511719 L 153.4125 144.359375 L 153.6 144.21875 L 153.7875 144.082031 L 153.975 143.957031 L 154.1625 143.84375 L 154.353906 143.742188 L 154.545313 143.65625 L 154.736719 143.582031 L 154.932031 143.523438 L 155.127344 143.480469 L 155.322656 143.453125 L 155.521875 143.441406 L 155.725 143.445313 L 155.928125 143.464844 L 156.135156 143.496094 L 156.342188 143.542969 L 156.557031 143.601563 L 156.767969 143.675781 L 156.986719 143.753906 L 157.201563 143.84375 L 157.424219 143.941406 L 157.642969 144.042969 L 157.869531 144.148438 L 158.31875 144.367188 L 158.545313 144.476563 L 158.998438 144.679688 L 159.225 144.769531 L 159.44375 144.855469 L 159.666406 144.925781 L 159.88125 144.988281 L 160.1 145.039063 L 160.314844 145.078125 L 160.525781 145.101563 L 160.736719 145.113281 L 160.94375 145.105469 L 161.146875 145.085938 L 161.346094 145.046875 L 161.541406 144.992188 L 161.736719 144.925781 L 161.924219 144.839844 L 162.107813 144.738281 L 162.291406 144.625 L 162.467188 144.5 L 162.642969 144.359375 L 162.814844 144.207031 L 163.146875 143.875 L 163.307031 143.699219 L 163.467188 143.515625 L 163.783594 143.140625 L 163.935938 142.949219 L 164.092188 142.757813 L 164.400781 142.390625 L 164.557031 142.214844 L 164.713281 142.042969 L 164.869531 141.882813 L 165.033594 141.730469 L 165.19375 141.589844 L 165.361719 141.460938 L 165.529688 141.34375 L 165.705469 141.242188 L 165.88125 141.152344 L 166.060938 141.078125 L 166.248438 141.015625 L 166.439844 140.972656 L 166.635156 140.9375 L 166.834375 140.921875 L 167.0375 140.917969 L 167.248438 140.925781 L 167.459375 140.945313 L 167.678125 140.972656 L 167.900781 141.011719 L 168.123438 141.0625 L 168.353906 141.117188 L 168.584375 141.175781 L 169.053125 141.304688 L 169.2875 141.371094 L 169.525781 141.4375 L 169.760156 141.503906 L 169.998438 141.5625 L 170.232813 141.613281 L 170.463281 141.660156 L 170.69375 141.699219 L 170.924219 141.726563 L 171.146875 141.746094 L 171.365625 141.75 L 171.580469 141.742188 L 171.791406 141.71875 L 172.014063 141.679688 L 172.228906 141.625 L 172.435938 141.550781 L 172.635156 141.457031 L 172.830469 141.347656 L 173.014063 141.21875 L 173.19375 141.078125 L 173.365625 140.917969 L 173.529688 140.742188 L 173.685938 140.554688 L 173.838281 140.359375 L 173.982813 140.148438 L 174.123438 139.929688 L 174.260156 139.707031 L 174.658594 139.015625 L 174.7875 138.78125 L 175.049219 138.332031 L 175.182031 138.117188 L 175.31875 137.90625 L 175.459375 137.710938 L 175.603906 137.523438 L 175.75625 137.351563 L 175.9125 137.191406 L 176.076563 137.046875 L 176.248438 136.917969 L 176.428125 136.804688 L 176.615625 136.707031 L 176.814844 136.625 L 177.017969 136.558594 L 177.228906 136.503906 L 177.451563 136.464844 L 177.678125 136.441406 L 177.916406 136.429688 L 178.158594 136.425781 L 178.404688 136.433594 L 178.658594 136.449219 L 178.916406 136.46875 L 179.178125 136.492188 L 179.44375 136.519531 L 179.705469 136.546875 L 180.236719 136.59375 L 180.498438 136.609375 L 180.75625 136.617188 L 181.014063 136.621094 L 181.264063 136.609375 L 181.50625 136.589844 L 181.744531 136.554688 L 181.971094 136.503906 L 182.189844 136.441406 L 182.400781 136.363281 L 182.603906 136.269531 L 182.795313 136.15625 L 182.975 136.03125 L 183.146875 135.886719 L 183.303125 135.730469 L 183.455469 135.554688 L 183.596094 135.367188 L 183.725 135.167969 L 183.846094 134.953125 L 183.959375 134.730469 L 184.060938 134.515625 L 184.154688 134.292969 L 184.330469 133.832031 L 184.416406 133.597656 L 184.498438 133.363281 L 184.6625 132.898438 L 184.744531 132.671875 L 184.830469 132.445313 L 184.920313 132.230469 L 185.014063 132.019531 L 185.111719 131.816406 L 185.217188 131.625 L 185.326563 131.441406 L 185.447656 131.269531 L 185.576563 131.109375 L 185.713281 130.960938 L 185.857813 130.828125 L 186.010156 130.703125 L 186.174219 130.59375 L 186.35 130.492188 L 186.533594 130.40625 L 186.725 130.328125 L 186.924219 130.261719 L 187.135156 130.207031 L 187.35 130.160156 L 187.576563 130.121094 L 187.807031 130.089844 L 188.041406 130.0625 L 188.283594 130.039063 L 188.525781 130.019531 L 188.771875 130 L 189.021875 129.980469 L 189.514063 129.941406 L 189.760156 129.914063 L 190.002344 129.882813 L 190.240625 129.847656 L 190.471094 129.800781 L 190.697656 129.75 L 190.9125 129.6875 L 191.123438 129.613281 L 191.322656 129.53125 L 191.514063 129.433594 L 191.69375 129.328125 L 191.865625 129.207031 L 192.021875 129.078125 L 192.170313 128.933594 L 192.307031 128.777344 L 192.432031 128.609375 L 192.545313 128.429688 L 192.646875 128.238281 L 192.740625 128.039063 L 192.822656 127.828125 L 192.896875 127.609375 L 192.963281 127.382813 L 193.021875 127.152344 L 193.076563 126.914063 L 193.123438 126.675781 L 193.209375 126.183594 L 193.2875 125.695313 L 193.330469 125.433594 L 193.377344 125.175781 L 193.432031 124.925781 L 193.486719 124.679688 L 193.553125 124.441406 L 193.627344 124.214844 L 193.709375 123.996094 L 193.803125 123.792969 L 193.9125 123.597656 L 194.029688 123.414063 L 194.1625 123.242188 L 194.307031 123.085938 L 194.463281 122.941406 L 194.635156 122.804688 L 194.822656 122.683594 L 195.017969 122.570313 L 195.228906 122.46875 L 195.447656 122.378906 L 195.678125 122.292969 L 195.920313 122.214844 L 196.166406 122.140625 L 196.420313 122.070313 L 196.935938 121.9375 L 197.459375 121.804688 L 197.717188 121.730469 L 197.971094 121.65625 L 198.217188 121.574219 L 198.459375 121.484375 L 198.689844 121.386719 L 198.9125 121.277344 L 199.123438 121.160156 L 199.31875 121.035156 L 199.502344 120.894531 L 199.670313 120.742188 L 199.822656 120.578125 L 199.963281 120.40625 L 200.084375 120.21875 L 200.189844 120.019531 L 200.283594 119.808594 L 200.361719 119.589844 L 200.424219 119.359375 L 200.471094 119.117188 L 200.510156 118.871094 L 200.5375 118.617188 L 200.557031 118.359375 L 200.564844 118.09375 L 200.56875 117.828125 L 200.56875 117.558594 L 200.560938 117.019531 L 200.557031 116.753906 L 200.560938 116.488281 L 200.564844 116.230469 L 200.576563 115.976563 L 200.596094 115.730469 L 200.627344 115.492188 L 200.666406 115.261719 L 200.721094 115.039063 L 200.7875 114.824219 L 200.865625 114.621094 L 200.963281 114.425781 L 201.072656 114.242188 L 201.197656 114.074219 L 201.334375 113.910156 L 201.486719 113.757813 L 201.654688 113.613281 L 201.834375 113.476563 L 202.025781 113.34375 L 202.228906 113.222656 L 202.44375 113.101563 L 202.666406 112.988281 L 202.892969 112.875 L 203.369531 112.660156 L 203.611719 112.550781 L 203.85 112.441406 L 204.326563 112.214844 L 204.557031 112.097656 L 204.779688 111.972656 L 204.994531 111.84375 L 205.197656 111.707031 L 205.389063 111.5625 L 205.56875 111.410156 L 205.732813 111.253906 L 205.88125 111.082031 L 206.014063 110.90625 L 206.13125 110.71875 L 206.232813 110.527344 L 206.314844 110.324219 L 206.38125 110.109375 L 206.432031 109.890625 L 206.467188 109.664063 L 206.486719 109.429688 L 206.494531 109.191406 L 206.486719 108.945313 L 206.471094 108.695313 L 206.44375 108.441406 L 206.408594 108.183594 L 206.365625 107.921875 L 206.31875 107.664063 L 206.271875 107.402344 L 206.221094 107.144531 L 206.174219 106.886719 L 206.127344 106.632813 L 206.088281 106.378906 L 206.053125 106.132813 L 206.029688 105.890625 L 206.017969 105.652344 L 206.014063 105.421875 L 206.025781 105.195313 L 206.049219 104.976563 L 206.088281 104.765625 L 206.142969 104.558594 L 206.213281 104.359375 L 206.303125 104.167969 L 206.404688 103.984375 L 206.525781 103.804688 L 206.658594 103.632813 L 206.807031 103.464844 L 206.971094 103.300781 L 207.146875 103.140625 L 207.334375 102.988281 L 207.529688 102.835938 L 207.947656 102.535156 L 208.146875 102.398438 L 208.35 102.257813 L 208.75625 101.980469 L 208.959375 101.839844 L 209.154688 101.695313 L 209.525781 101.394531 L 209.701563 101.242188 L 209.865625 101.082031 L 210.017969 100.921875 L 210.158594 100.753906 L 210.2875 100.578125 L 210.400781 100.402344 L 210.498438 100.21875 L 210.580469 100.03125 L 210.650781 99.839844 L 210.701563 99.640625 L 210.736719 99.4375 L 210.75625 99.230469 L 210.764063 99.019531 L 210.752344 98.804688 L 210.732813 98.585938 L 210.697656 98.363281 L 210.650781 98.136719 L 210.592188 97.910156 L 210.529688 97.683594 L 210.455469 97.453125 L 210.373438 97.222656 L 210.291406 96.988281 L 210.115625 96.527344 L 210.029688 96.296875 L 209.865625 95.84375 L 209.791406 95.621094 L 209.721094 95.398438 L 209.6625 95.179688 L 209.611719 94.964844 L 209.572656 94.753906 L 209.545313 94.542969 L 209.529688 94.339844 L 209.529688 94.136719 L 209.545313 93.9375 L 209.572656 93.746094 L 209.615625 93.550781 L 209.674219 93.363281 L 209.748438 93.179688 L 209.834375 92.996094 L 209.935938 92.816406 L 210.049219 92.640625 L 210.178125 92.464844 L 210.314844 92.289063 L 210.463281 92.117188 L 210.783594 91.773438 L 211.123438 91.433594 L 211.478906 91.089844 L 211.654688 90.917969 L 211.826563 90.742188 L 212.158594 90.386719 L 212.326563 90.191406 L 212.482813 89.996094 L 212.627344 89.792969 L 212.760156 89.589844 L 212.873438 89.386719 L 212.971094 89.175781 L 213.053125 88.964844 L 213.115625 88.75 L 213.158594 88.53125 L 213.182031 88.3125 L 213.185938 88.085938 L 213.170313 87.863281 L 213.139063 87.636719 L 213.088281 87.40625 L 213.021875 87.179688 L 212.939844 86.949219 L 212.846094 86.714844 L 212.740625 86.484375 L 212.623438 86.25 L 212.498438 86.019531 L 212.232813 85.558594 L 211.959375 85.097656 L 211.822656 84.871094 L 211.69375 84.644531 L 211.572656 84.421875 L 211.459375 84.195313 L 211.357813 83.976563 L 211.267969 83.753906 L 211.19375 83.535156 L 211.13125 83.320313 L 211.088281 83.101563 L 211.060938 82.890625 L 211.049219 82.675781 L 211.057031 82.460938 L 211.084375 82.25 L 211.127344 82.039063 L 211.189844 81.828125 L 211.264063 81.617188 L 211.357813 81.40625 L 211.463281 81.195313 L 211.584375 80.980469 L 211.713281 80.769531 L 211.853906 80.554688 L 212.002344 80.34375 L 212.307031 79.910156 L 212.463281 79.695313 L 212.619531 79.476563 L 212.771875 79.257813 L 212.916406 79.039063 L 213.057031 78.816406 L 213.185938 78.59375 L 213.299219 78.371094 L 213.404688 78.148438 L 213.494531 77.925781 L 213.564844 77.703125 L 213.619531 77.480469 L 213.654688 77.257813 L 213.674219 77.035156 L 213.674219 76.8125 L 213.650781 76.59375 L 213.611719 76.375 L 213.557031 76.167969 L 213.486719 75.964844 L 213.400781 75.765625 L 213.303125 75.5625 L 213.189844 75.367188 L 213.064844 75.167969 L 212.932031 74.972656 L 212.7875 74.777344 L 212.635156 74.582031 L 212.478906 74.390625 L 212.154688 74.011719 L 211.994531 73.824219 L 211.830469 73.636719 L 211.521875 73.261719 L 211.373438 73.074219 L 211.236719 72.886719 L 211.107813 72.699219 L 210.986719 72.511719 L 210.88125 72.324219 L 210.7875 72.132813 L 210.709375 71.941406 L 210.646875 71.75 L 210.596094 71.554688 L 210.564844 71.359375 L 210.545313 71.160156 L 210.541406 70.960938 L 210.557031 70.757813 L 210.584375 70.554688 L 210.623438 70.347656 L 210.678125 70.136719 L 210.740625 69.925781 L 210.81875 69.710938 L 210.904688 69.492188 L 210.998438 69.277344 L 211.096094 69.054688 L 211.201563 68.832031 L 211.420313 68.386719 L 211.63125 67.933594 L 211.732813 67.707031 L 211.830469 67.480469 L 211.916406 67.257813 L 211.998438 67.03125 L 212.064844 66.808594 L 212.123438 66.589844 L 212.166406 66.371094 L 212.197656 66.152344 L 212.209375 65.9375 L 212.209375 65.726563 L 212.19375 65.519531 L 212.1625 65.316406 L 212.111719 65.113281 L 212.045313 64.917969 L 211.963281 64.722656 L 211.865625 64.535156 L 211.752344 64.347656 L 211.627344 64.167969 L 211.486719 63.988281 L 211.334375 63.816406 L 211.002344 63.476563 L 210.826563 63.3125 L 210.642969 63.15625 L 210.267969 62.839844 L 210.080469 62.6875 L 209.889063 62.53125 L 209.521875 62.222656 L 209.342188 62.070313 L 209.170313 61.914063 L 209.010156 61.753906 L 208.857813 61.597656 L 208.713281 61.433594 L 208.584375 61.269531 L 208.463281 61.101563 L 208.361719 60.929688 L 208.267969 60.753906 L 208.189844 60.574219 L 208.127344 60.386719 L 208.080469 60.199219 L 208.045313 60.003906 L 208.025781 59.808594 L 208.017969 59.605469 L 208.021875 59.398438 L 208.041406 59.183594 L 208.06875 58.96875 L 208.103906 58.75 L 208.150781 58.523438 L 208.205469 58.296875 L 208.264063 58.070313 L 208.392969 57.601563 L 208.525781 57.132813 L 208.588281 56.894531 L 208.646875 56.660156 L 208.701563 56.425781 L 208.752344 56.191406 L 208.791406 55.960938 L 208.822656 55.734375 L 208.842188 55.511719 L 208.85 55.289063 L 208.846094 55.074219 L 208.826563 54.863281 L 208.795313 54.660156 L 208.748438 54.457031 L 208.689844 54.265625 L 208.611719 54.078125 L 208.521875 53.894531 L 208.416406 53.71875 L 208.295313 53.550781 L 208.1625 53.386719 L 208.014063 53.230469 L 207.853906 53.082031 L 207.682031 52.933594 L 207.502344 52.792969 L 207.310938 52.660156 L 207.115625 52.527344 L 206.701563 52.277344 L 205.853906 51.796875 L 205.623438 51.667969 L 205.404688 51.535156 L 205.189844 51.402344 L 204.982813 51.265625 L 204.7875 51.125 L 204.603906 50.976563 L 204.432031 50.828125 L 204.275781 50.667969 L 204.13125 50.503906 L 204.00625 50.332031 L 203.892969 50.152344 L 203.799219 49.960938 L 203.717188 49.765625 L 203.650781 49.5625 L 203.6 49.347656 L 203.564844 49.128906 L 203.541406 48.898438 L 203.529688 48.664063 L 203.525781 48.421875 L 203.533594 48.171875 L 203.549219 47.921875 L 203.572656 47.664063 L 203.596094 47.402344 L 203.623438 47.140625 L 203.650781 46.875 L 203.674219 46.609375 L 203.69375 46.347656 L 203.709375 46.085938 L 203.721094 45.828125 L 203.721094 45.574219 L 203.709375 45.324219 L 203.685938 45.082031 L 203.650781 44.84375 L 203.603906 44.617188 L 203.541406 44.398438 L 203.459375 44.1875 L 203.365625 43.988281 L 203.252344 43.800781 L 203.127344 43.621094 L 202.982813 43.449219 L 202.826563 43.289063 L 202.650781 43.140625 L 202.463281 43.003906 L 202.264063 42.871094 L 202.053125 42.75 L 201.830469 42.636719 L 201.6 42.53125 L 201.357813 42.429688 L 201.115625 42.335938 L 200.865625 42.242188 L 200.365625 42.066406 L 200.115625 41.980469 L 199.869531 41.890625 L 199.392969 41.707031 L 199.166406 41.609375 L 198.947656 41.503906 L 198.740625 41.394531 L 198.545313 41.273438 L 198.365625 41.144531 L 198.19375 41.007813 L 198.0375 40.863281 L 197.896875 40.703125 L 197.775781 40.546875 L 197.666406 40.382813 L 197.572656 40.207031 L 197.486719 40.023438 L 197.4125 39.828125 L 197.35 39.625 L 197.295313 39.417969 L 197.252344 39.199219 L 197.213281 38.972656 L 197.182031 38.742188 L 197.154688 38.503906 L 197.135156 38.265625 L 197.096094 37.773438 L 197.080469 37.527344 L 197.057031 37.28125 L 197.0375 37.035156 L 197.010156 36.792969 L 196.978906 36.550781 L 196.939844 36.316406 L 196.892969 36.085938 L 196.838281 35.863281 L 196.775781 35.648438 L 196.701563 35.4375 L 196.615625 35.242188 L 196.517969 35.050781 L 196.408594 34.875 L 196.2875 34.707031 L 196.154688 34.550781 L 196.010156 34.40625 L 195.85 34.273438 L 195.682031 34.148438 L 195.502344 34.039063 L 195.310938 33.9375 L 195.107813 33.847656 L 194.896875 33.765625 L 194.678125 33.691406 L 194.451563 33.628906 L 194.221094 33.570313 L 193.982813 33.519531 L 193.744531 33.472656 L 193.498438 33.425781 L 193.010156 33.347656 L 192.767969 33.308594 L 192.525781 33.265625 L 192.2875 33.222656 L 192.057031 33.175781 L 191.830469 33.125 L 191.611719 33.066406 L 191.396875 33 L 191.19375 32.929688 L 190.998438 32.847656 L 190.814844 32.753906 L 190.639063 32.652344 L 190.475 32.539063 L 190.31875 32.417969 L 190.174219 32.28125 L 190.041406 32.136719 L 189.920313 31.980469 L 189.803125 31.808594 L 189.701563 31.632813 L 189.603906 31.441406 L 189.514063 31.242188 L 189.428125 31.015625 L 189.346094 30.78125 L 189.271875 30.539063 L 189.201563 30.289063 L 189.13125 30.035156 L 189.064844 29.773438 L 188.932031 29.253906 L 188.865625 28.996094 L 188.791406 28.738281 L 188.709375 28.488281 L 188.623438 28.246094 L 188.529688 28.011719 L 188.428125 27.785156 L 188.314844 27.570313 L 188.19375 27.367188 L 188.060938 27.179688 L 187.9125 27.003906 L 187.75625 26.84375 L 187.588281 26.699219 L 187.404688 26.570313 L 187.213281 26.457031 L 187.010156 26.359375 L 186.795313 26.273438 L 186.56875 26.203125 L 186.334375 26.148438 L 186.092188 26.105469 L 185.842188 26.074219 L 185.584375 26.050781 L 185.322656 26.039063 L 185.060938 26.03125 L 184.521875 26.03125 L 184.25625 26.035156 L 183.986719 26.039063 L 183.721094 26.042969 L 183.463281 26.039063 L 183.205469 26.03125 L 182.955469 26.015625 L 182.713281 25.992188 L 182.478906 25.957031 L 182.252344 25.910156 L 182.0375 25.851563 L 181.826563 25.777344 L 181.63125 25.691406 L 181.439844 25.589844 L 181.260156 25.46875 L 181.092188 25.339844 L 180.932031 25.191406 L 180.783594 25.027344 L 180.639063 24.851563 L 180.502344 24.660156 L 180.373438 24.460938 L 180.252344 24.246094 L 180.017969 23.792969 L 179.799219 23.316406 L 179.576563 22.824219 L 179.35 22.339844 L 179.107813 21.875 L 178.982813 21.671875 L 178.857813 21.472656 L 178.725 21.289063 L 178.584375 21.113281 L 178.435938 20.949219 L 178.279688 20.800781 L 178.115625 20.664063 L 177.947656 20.542969 L 177.767969 20.4375 L 177.580469 20.347656 L 177.385156 20.269531 L 177.185938 20.210938 L 176.975 20.164063 L 176.760156 20.128906 L 176.5375 20.113281 L 176.310938 20.105469 L 176.076563 20.109375 L 175.838281 20.125 L 175.6 20.148438 L 175.357813 20.179688 L 175.111719 20.21875 L 174.865625 20.261719 L 174.127344 20.402344 L 173.88125 20.445313 L 173.642969 20.488281 L 173.404688 20.523438 L 173.170313 20.550781 L 172.94375 20.574219 L 172.717188 20.585938 L 172.498438 20.585938 L 172.283594 20.574219 L 172.076563 20.550781 L 171.877344 20.511719 L 171.682031 20.460938 L 171.490625 20.398438 L 171.310938 20.316406 L 171.13125 20.222656 L 170.959375 20.113281 L 170.795313 19.992188 L 170.635156 19.855469 L 170.475 19.707031 L 170.322656 19.546875 L 170.174219 19.375 L 170.029688 19.191406 L 169.744531 18.808594 L 169.463281 18.402344 L 169.182031 17.984375 L 168.892969 17.578125 L 168.592188 17.1875 L 168.439844 17.003906 L 168.279688 16.832031 L 168.115625 16.667969 L 167.951563 16.519531 L 167.775781 16.382813 L 167.6 16.257813 L 167.416406 16.148438 L 167.228906 16.058594 L 167.0375 15.984375 L 166.842188 15.921875 L 166.642969 15.878906 L 166.439844 15.851563 L 166.228906 15.839844 L 166.017969 15.839844 L 165.799219 15.855469 L 165.580469 15.882813 L 165.357813 15.921875 L 165.13125 15.976563 L 164.904688 16.035156 L 164.678125 16.105469 L 164.447656 16.179688 L 164.217188 16.261719 L 163.525781 16.519531 L 163.072656 16.691406 L 162.846094 16.769531 L 162.623438 16.839844 L 162.404688 16.90625 L 162.189844 16.960938 L 161.975 17.007813 L 161.764063 17.039063 L 161.557031 17.0625 L 161.353906 17.070313 L 161.154688 17.066406 L 160.959375 17.042969 L 160.764063 17.011719 L 160.576563 16.960938 L 160.389063 16.898438 L 160.205469 16.820313 L 160.025781 16.726563 L 159.846094 16.621094 L 159.670313 16.5 L 159.498438 16.371094 L 159.322656 16.230469 L 158.982813 15.921875 L 158.810938 15.753906 L 158.639063 15.582031 L 158.299219 15.234375 L 157.955469 14.882813 L 157.603906 14.546875 L 157.424219 14.386719 L 157.244531 14.234375 L 157.064844 14.089844 L 156.877344 13.960938 L 156.689844 13.839844 L 156.502344 13.734375 L 156.310938 13.640625 L 156.115625 13.5625 L 155.916406 13.503906 L 155.717188 13.457031 L 155.517969 13.425781 L 155.314844 13.414063 L 155.107813 13.417969 L 154.900781 13.433594 L 154.689844 13.46875 L 154.482813 13.515625 L 154.252344 13.585938 L 154.021875 13.667969 L 153.791406 13.765625 L 153.560938 13.871094 L 153.326563 13.988281 L 153.096094 14.117188 L 152.635156 14.382813 L 152.408594 14.519531 L 152.178125 14.652344 L 151.951563 14.785156 L 151.725 14.914063 L 151.502344 15.035156 L 151.279688 15.148438 L 151.057031 15.25 L 150.838281 15.335938 L 150.619531 15.410156 L 150.404688 15.472656 L 150.189844 15.515625 L 149.975 15.539063 L 149.764063 15.550781 L 149.549219 15.539063 L 149.338281 15.511719 L 149.127344 15.46875 L 148.916406 15.40625 L 148.705469 15.332031 L 148.494531 15.238281 L 148.283594 15.128906 L 148.072656 15.011719 L 147.861719 14.878906 L 147.435938 14.59375 L 147.221094 14.441406 L 147.00625 14.285156 L 146.572656 13.976563 L 146.353906 13.824219 L 146.135156 13.679688 L 145.9125 13.542969 L 145.69375 13.414063 L 145.471094 13.296875 L 145.248438 13.195313 L 145.025781 13.105469 L 144.803125 13.035156 L 144.580469 12.980469 L 144.357813 12.945313 L 144.139063 12.925781 L 143.916406 12.925781 L 143.697656 12.949219 L 143.478906 12.988281 L 143.260156 13.046875 L 143.041406 13.121094 L 142.826563 13.214844 L 142.615625 13.324219 L 142.400781 13.449219 L 142.189844 13.585938 L 141.982813 13.734375 L 141.775781 13.890625 L 141.365625 14.226563 L 140.560938 14.917969 L 140.373438 15.070313 L 140.185938 15.21875 L 139.998438 15.355469 L 139.814844 15.484375 L 139.627344 15.605469 L 139.439844 15.710938 L 139.248438 15.804688 L 139.057031 15.882813 L 138.865625 15.949219 L 138.674219 16 L 138.478906 16.035156 L 138.279688 16.054688 L 138.080469 16.058594 L 137.88125 16.046875 L 137.674219 16.019531 L 137.467188 15.980469 L 137.260156 15.929688 L 137.049219 15.863281 L 136.834375 15.789063 L 136.619531 15.707031 L 136.400781 15.613281 L 136.182031 15.515625 L 135.740625 15.304688 L 135.514063 15.195313 L 135.291406 15.085938 L 135.064844 14.980469 L 134.842188 14.878906 L 134.615625 14.785156 L 134.389063 14.695313 L 134.166406 14.613281 L 133.94375 14.542969 L 133.725 14.484375 L 133.50625 14.441406 L 133.2875 14.40625 L 133.072656 14.390625 L 132.861719 14.386719 L 132.654688 14.402344 L 132.451563 14.433594 L 132.248438 14.480469 L 132.053125 14.542969 L 131.857813 14.621094 L 131.670313 14.714844 L 131.482813 14.824219 L 131.303125 14.949219 L 131.123438 15.085938 L 130.947656 15.234375 L 130.779688 15.394531 L 130.611719 15.5625 L 130.44375 15.742188 L 130.119531 16.113281 L 129.963281 16.304688 L 129.803125 16.5 L 129.490625 16.882813 L 129.178125 17.25 L 129.017969 17.421875 L 128.857813 17.589844 L 128.697656 17.742188 L 128.529688 17.886719 L 128.361719 18.019531 L 128.19375 18.140625 L 128.002344 18.253906 L 127.807031 18.351563 L 127.607813 18.433594 L 127.400781 18.496094 L 127.189844 18.542969 L 126.975 18.570313 L 126.752344 18.582031 L 126.525781 18.578125 L 126.291406 18.5625 L 126.053125 18.53125 L 125.810938 18.488281 L 125.560938 18.433594 L 125.310938 18.375 L 125.057031 18.308594 L 124.541406 18.164063 L 124.279688 18.089844 L 124.021875 18.019531 L 123.760156 17.953125 L 123.502344 17.890625 L 123.248438 17.839844 L 122.994531 17.796875 L 122.744531 17.769531 L 122.498438 17.75 L 122.260156 17.75 L 122.025781 17.765625 L 121.795313 17.796875 L 121.576563 17.84375 L 121.361719 17.914063 L 121.154688 17.996094 L 120.955469 18.101563 L 120.764063 18.222656 L 120.580469 18.359375 L 120.404688 18.515625 L 120.236719 18.6875 L 120.072656 18.871094 L 119.916406 19.066406 L 119.767969 19.277344 L 119.482813 19.71875 L 119.346094 19.949219 L 119.213281 20.183594 L 118.951563 20.652344 L 118.81875 20.886719 L 118.685938 21.113281 L 118.4125 21.546875 L 118.271875 21.75 L 118.127344 21.9375 L 117.975 22.117188 L 117.814844 22.28125 L 117.650781 22.429688 L 117.475 22.5625 L 117.295313 22.679688 L 117.107813 22.78125 L 116.908594 22.867188 L 116.701563 22.9375 L 116.486719 22.992188 L 116.264063 23.03125 L 116.033594 23.054688 L 115.795313 23.070313 L 115.549219 23.074219 L 115.299219 23.066406 L 115.045313 23.050781 L 114.791406 23.03125 L 114.529688 23.007813 L 114.267969 22.980469 L 114.002344 22.953125 L 113.478906 22.90625 L 113.217188 22.890625 L 112.959375 22.878906 L 112.705469 22.878906 L 112.455469 22.886719 L 112.213281 22.910156 L 111.975 22.941406 L 111.748438 22.988281 L 111.529688 23.050781 L 111.31875 23.128906 L 111.119531 23.21875 L 110.928125 23.328125 L 110.744531 23.453125 L 110.576563 23.59375 L 110.416406 23.75 L 110.264063 23.921875 L 110.123438 24.105469 L 109.994531 24.300781 L 109.869531 24.511719 L 109.75625 24.734375 L 109.650781 24.960938 L 109.549219 25.199219 L 109.451563 25.441406 L 109.361719 25.6875 L 109.182031 26.1875 L 109.096094 26.4375 L 109.010156 26.683594 L 108.920313 26.925781 L 108.826563 27.160156 L 108.728906 27.390625 L 108.627344 27.609375 L 108.517969 27.816406 L 108.400781 28.015625 L 108.275781 28.199219 L 108.139063 28.371094 L 107.994531 28.53125 L 107.842188 28.675781 L 107.674219 28.804688 L 107.498438 28.921875 L 107.310938 29.027344 L 107.115625 29.117188 L 106.908594 29.195313 L 106.689844 29.261719 L 106.463281 29.316406 L 106.228906 29.359375 L 105.982813 29.398438 L 105.736719 29.429688 L 105.478906 29.457031 L 105.221094 29.476563 L 104.959375 29.496094 L 104.428125 29.535156 L 104.166406 29.558594 L 103.904688 29.589844 L 103.650781 29.621094 L 103.396875 29.664063 L 103.154688 29.714844 L 102.932031 29.769531 L 102.717188 29.835938 L 102.510156 29.910156 L 102.314844 29.996094 L 102.127344 30.09375 L 101.951563 30.207031 L 101.7875 30.328125 L 101.63125 30.460938 L 101.490625 30.609375 L 101.357813 30.769531 L 101.236719 30.9375 L 101.127344 31.121094 L 101.025781 31.3125 L 100.939844 31.511719 L 100.857813 31.722656 L 100.7875 31.941406 L 100.721094 32.167969 L 100.666406 32.402344 L 100.615625 32.636719 L 100.56875 32.878906 L 100.482813 33.363281 L 100.404688 33.851563 L 100.365625 34.089844 L 100.31875 34.328125 L 100.271875 34.558594 L 100.221094 34.785156 L 100.1625 35.003906 L 100.096094 35.214844 L 100.025781 35.417969 L 99.94375 35.609375 L 99.85 35.792969 L 99.748438 35.96875 L 99.635156 36.132813 L 99.514063 36.285156 L 99.377344 36.429688 L 99.232813 36.5625 L 99.072656 36.683594 L 98.904688 36.796875 L 98.725 36.902344 L 98.5375 37 L 98.338281 37.085938 L 98.13125 37.167969 L 97.916406 37.242188 L 97.69375 37.3125 L 97.232813 37.441406 L 96.994531 37.503906 L 96.75625 37.5625 L 96.517969 37.625 L 96.275781 37.6875 L 96.041406 37.75 L 95.807031 37.820313 L 95.576563 37.894531 L 95.353906 37.972656 L 95.135156 38.058594 L 94.928125 38.152344 L 94.725 38.253906 L 94.5375 38.363281 L 94.357813 38.480469 L 94.189844 38.609375 L 94.0375 38.75 L 93.892969 38.898438 L 93.75625 39.070313 L 93.63125 39.257813 L 93.521875 39.453125 L 93.428125 39.660156 L 93.35 39.878906 L 93.2875 40.105469 L 93.232813 40.339844 L 93.19375 40.585938 L 93.166406 40.835938 L 93.146875 41.09375 L 93.135156 41.355469 L 93.13125 41.621094 L 93.13125 41.890625 L 93.135156 42.15625 L 93.139063 42.425781 L 93.142969 42.691406 L 93.142969 42.953125 L 93.139063 43.210938 L 93.127344 43.464844 L 93.107813 43.710938 L 93.084375 43.953125 L 93.045313 44.183594 L 92.994531 44.40625 L 92.932031 44.621094 L 92.857813 44.828125 L 92.764063 45.023438 L 92.658594 45.207031 L 92.5375 45.382813 L 92.400781 45.550781 L 92.252344 45.707031 L 92.084375 45.855469 L 91.904688 45.996094 L 91.713281 46.128906 L 91.510156 46.253906 L 91.295313 46.378906 L 91.06875 46.492188 L 90.838281 46.605469 L 90.6 46.71875 L 90.115625 46.9375 L 89.869531 47.046875 L 89.627344 47.160156 L 89.389063 47.277344 L 89.154688 47.394531 L 88.928125 47.523438 L 88.713281 47.652344 L 88.50625 47.789063 L 88.310938 47.9375 L 88.13125 48.089844 L 87.963281 48.253906 L 87.810938 48.421875 L 87.678125 48.601563 L 87.560938 48.792969 L 87.459375 48.988281 L 87.377344 49.195313 L 87.310938 49.410156 L 87.260156 49.636719 L 87.228906 49.867188 L 87.209375 50.105469 L 87.205469 50.347656 L 87.213281 50.597656 L 87.232813 50.851563 L 87.264063 51.109375 L 87.303125 51.371094 L 87.342188 51.617188 L 87.385156 51.863281 L 87.478906 52.355469 L 87.525781 52.597656 L 87.56875 52.839844 L 87.607813 53.078125 L 87.639063 53.3125 L 87.6625 53.542969 L 87.682031 53.769531 L 87.685938 53.992188 L 87.682031 54.207031 L 87.666406 54.417969 L 87.635156 54.621094 L 87.592188 54.816406 L 87.533594 55.011719 L 87.463281 55.195313 L 87.373438 55.375 L 87.275781 55.550781 L 87.158594 55.71875 L 87.029688 55.882813 L 86.889063 56.039063 L 86.732813 56.195313 L 86.56875 56.34375 L 86.392969 56.492188 L 86.209375 56.636719 L 85.81875 56.917969 L 84.998438 57.480469 L 84.791406 57.625 L 84.592188 57.769531 L 84.396875 57.917969 L 84.209375 58.070313 L 84.033594 58.226563 L 83.861719 58.386719 L 83.705469 58.550781 L 83.560938 58.71875 L 83.428125 58.894531 L 83.314844 59.074219 L 83.213281 59.257813 L 83.127344 59.449219 L 83.057031 59.644531 L 83.002344 59.84375 L 82.967188 60.050781 L 82.94375 60.261719 L 82.935938 60.472656 L 82.947656 60.691406 L 82.967188 60.914063 L 83.00625 61.140625 L 83.053125 61.367188 L 83.107813 61.597656 L 83.178125 61.832031 L 83.252344 62.0625 L 83.330469 62.296875 L 83.416406 62.53125 L 83.596094 63 L 83.682031 63.234375 L 83.767969 63.464844 L 83.85 63.691406 L 83.924219 63.921875 L 83.990625 64.140625 L 84.049219 64.355469 L 84.096094 64.570313 L 84.13125 64.78125 L 84.158594 64.988281 L 84.170313 65.191406 L 84.166406 65.390625 L 84.150781 65.585938 L 84.123438 65.78125 L 84.076563 65.972656 L 84.017969 66.15625 L 83.94375 66.339844 L 83.853906 66.523438 L 83.752344 66.699219 L 83.639063 66.878906 L 83.510156 67.050781 L 83.373438 67.222656 L 83.225 67.394531 L 82.908594 67.738281 L 82.213281 68.417969 L 81.869531 68.761719 L 81.701563 68.9375 L 81.5375 69.113281 L 81.385156 69.292969 L 81.236719 69.476563 L 81.103906 69.65625 L 80.978906 69.84375 L 80.869531 70.03125 L 80.771875 70.222656 L 80.689844 70.414063 L 80.623438 70.613281 L 80.572656 70.808594 L 80.5375 71.007813 L 80.517969 71.210938 L 80.514063 71.417969 L 80.525781 71.621094 L 80.557031 71.832031 L 80.6 72.039063 L 80.654688 72.25 L 80.725 72.460938 L 80.807031 72.671875 L 80.900781 72.886719 L 81.002344 73.097656 L 81.111719 73.3125 L 81.228906 73.523438 L 81.471094 73.945313 L 81.6 74.15625 L 81.725 74.367188 L 81.967188 74.785156 L 82.080469 74.992188 L 82.185938 75.195313 L 82.2875 75.398438 L 82.373438 75.601563 L 82.455469 75.804688 L 82.521875 76.003906 L 82.572656 76.203125 L 82.611719 76.402344 L 82.639063 76.613281 L 82.650781 76.828125 L 82.642969 77.039063 L 82.615625 77.25 L 82.572656 77.460938 L 82.514063 77.671875 L 82.435938 77.878906 L 82.346094 78.089844 L 82.240625 78.300781 L 82.119531 78.511719 L 81.853906 78.933594 L 81.705469 79.148438 L 81.553125 79.359375 L 81.244531 79.792969 L 81.092188 80.007813 L 80.939844 80.226563 L 80.795313 80.445313 L 80.654688 80.664063 L 80.525781 80.882813 L 80.408594 81.105469 L 80.307031 81.328125 L 80.217188 81.550781 L 80.142969 81.769531 L 80.084375 81.992188 L 80.049219 82.214844 L 80.025781 82.4375 L 80.025781 82.65625 L 80.045313 82.875 L 80.080469 83.09375 L 80.139063 83.3125 L 80.213281 83.527344 L 80.303125 83.742188 L 80.408594 83.957031 L 80.529688 84.167969 L 80.666406 84.378906 L 80.810938 84.585938 L 81.13125 85 L 81.475 85.40625 L 81.81875 85.808594 L 81.990625 86.007813 L 82.154688 86.207031 L 82.459375 86.605469 L 82.596094 86.804688 L 82.721094 87.003906 L 82.834375 87.207031 L 82.932031 87.410156 L 83.010156 87.613281 L 83.072656 87.816406 L 83.119531 88.027344 L 83.146875 88.234375 L 83.158594 88.449219 L 83.150781 88.664063 L 83.127344 88.878906 L 83.088281 89.101563 L 83.033594 89.324219 L 82.967188 89.546875 L 82.885156 89.777344 L 82.795313 90.007813 L 82.701563 90.226563 L 82.603906 90.445313 L 82.392969 90.886719 L 82.283594 91.109375 L 82.178125 91.332031 L 81.971094 91.78125 L 81.873438 92.007813 L 81.7875 92.230469 L 81.709375 92.453125 L 81.639063 92.675781 L 81.580469 92.894531 L 81.5375 93.113281 L 81.50625 93.328125 L 81.490625 93.542969 L 81.490625 93.753906 L 81.50625 93.960938 L 81.5375 94.164063 L 81.584375 94.363281 L 81.646875 94.558594 L 81.728906 94.753906 L 81.822656 94.941406 L 81.932031 95.125 L 82.057031 95.308594 L 82.19375 95.484375 L 82.342188 95.660156 L 82.502344 95.828125 L 82.674219 95.996094 L 82.85 96.160156 L 83.221094 96.484375 L 83.4125 96.640625 L 83.603906 96.800781 L 83.986719 97.113281 L 84.174219 97.269531 L 84.353906 97.425781 L 84.689844 97.742188 L 84.846094 97.90625 L 84.990625 98.070313 L 85.123438 98.238281 L 85.240625 98.40625 L 85.346094 98.582031 L 85.439844 98.761719 L 85.514063 98.945313 L 85.576563 99.132813 L 85.627344 99.324219 L 85.658594 99.519531 L 85.678125 99.722656 L 85.682031 99.929688 L 85.674219 100.140625 L 85.654688 100.355469 L 85.627344 100.578125 L 85.584375 100.800781 L 85.5375 101.027344 L 85.482813 101.257813 L 85.357813 101.726563 L 85.291406 101.964844 L 85.221094 102.203125 L 85.092188 102.683594 L 85.025781 102.949219 L 84.967188 103.214844 L 84.920313 103.476563 L 84.88125 103.734375 L 84.857813 103.988281 L 84.85 104.238281 L 84.857813 104.480469 L 84.88125 104.71875 L 84.928125 104.945313 L 84.990625 105.167969 L 85.072656 105.382813 L 85.170313 105.589844 L 85.291406 105.789063 L 85.428125 105.980469 L 85.584375 106.164063 L 85.75625 106.335938 L 85.94375 106.503906 L 86.146875 106.664063 L 86.357813 106.820313 L 86.580469 106.96875 L 86.810938 107.113281 L 87.049219 107.253906 L 87.533594 107.527344 L 87.771875 107.660156 L 88.010156 107.796875 L 88.244531 107.933594 L 88.471094 108.070313 L 88.685938 108.210938 L 88.892969 108.359375 L 89.084375 108.511719 L 89.264063 108.667969 L 89.428125 108.832031 L 89.576563 109.003906 L 89.705469 109.1875 L 89.822656 109.375 L 89.920313 109.574219 L 89.998438 109.78125 L 90.064844 109.996094 L 90.111719 110.222656 L 90.146875 110.453125 L 90.166406 110.695313 L 90.174219 110.945313 L 90.170313 111.199219 L 90.158594 111.460938 L 90.139063 111.726563 L 90.115625 112 L 90.060938 112.546875 L 90.033594 112.824219 L 90.010156 113.101563 L 89.990625 113.375 L 89.982813 113.644531 L 89.978906 113.910156 L 89.990625 114.167969 L 90.014063 114.421875 L 90.049219 114.667969 L 90.103906 114.902344 L 90.170313 115.132813 L 90.25625 115.347656 L 90.357813 115.554688 L 90.478906 115.75 L 90.619531 115.933594 L 90.771875 116.109375 " transform="matrix(1,0,0,1,-72.6,-5.5)" />
        <path style="fill:none;stroke-width:1.1;stroke-linecap:square;stroke-linejoin:miter;stroke:rgb(0%,0%,0%);stroke-opacity:1;stroke-miterlimit:3.25;" d="M 146.85 79.75 L 146.85 145.324219 " transform="matrix(1,0,0,1,-72.6,-5.5)" />
    </g>
</svg>